<svg xmlns="http://www.w3.org/2000/svg">
<defs>
<font id="COCOGOOSE" horiz-adv-x="713" >
  <font-face 
    font-family="COCOGOOSE"
    font-weight="400"
    font-stretch="normal"
    units-per-em="2000"
    panose-1="2 0 0 0 0 0 0 0 0 0"
    ascent="1600"
    descent="-400"
    x-height="1270"
    cap-height="1485"
    bbox="-144 -832 2684 2234"
    underline-thickness="100"
    underline-position="-200"
    unicode-range="U+000D-FB06"
  />
<missing-glyph horiz-adv-x="1368" 
d="M969 250q-57 -48 -129 -77t-153 -29t-152 29t-128 77h562zM373 282q-50 57 -77 129t-27 153q0 77 24.5 143.5t69.5 122.5h556zM405 876q57 51 129 79.5t153 28.5t152.5 -29t125.5 -79h-560zM1105 564q0 -77 -24.5 -144.5t-69.5 -123.5h-558l546 550q106 -131 106 -282z
M823 76q-66 -18 -136 -18q-108 0 -200.5 41t-160.5 110t-106.5 161t-38.5 194q0 108 41 201t110 161t161 107t194 39q109 0 202 -42t160.5 -112.5t105.5 -162t38 -191.5q0 -92 -29 -170.5t-79 -141.5t-117.5 -108t-144.5 -68zM809 1012q-54 18 -122 18q-101 0 -186 -38
t-146.5 -102t-96.5 -148.5t-35 -177.5q0 -94 35.5 -178.5t98 -149t147.5 -102.5t183 -38q96 0 181 36.5t148 100t100 148.5t37 183q0 85 -27.5 158.5t-74 131.5t-109.5 98t-133 60zM132 244l26 -44l-23 -13l-46 77l11 6q6 5 13 3l79 -8l-25 42l23 13l44 -76l-10 -6
q-4 -2 -6 -2q-2 -1 -6 -1zM202 104l-49 58l88 74l49 -59l-20 -16l-32 37l-13 -11l25 -30l-20 -17l-25 30l-15 -12l32 -37zM279 150l17 20l70 -59l-17 -20l-24 21l-58 -68l-20 18l57 67zM391 96l19 -12l-16 -123l-16 9q-2 2 -4 3q-2 2 -2 4q-2 4 -2 5v5l2 14l-38 22l-11 -8
q-1 -1 -2 -1t-2 -1h-5q-2 -1 -3 -0.5t-2 0.5q-2 1 -3 1t-2 1l-15 9zM381 58l-2 -2l-2 -2l-2 -2l-17 -12l18 -11l2 21q0 1 0.5 1.5t0.5 1.5t0.5 1t0.5 1t0.5 1.5t0.5 1.5zM499 -6l-10 -25l-38 16l-15 -40l-26 10l42 106l71 -28l-9 -24l-46 18l-7 -18zM508 -23q1 5 5 15l9 12
q3 4 11 10q4 3 14 7q6 1 15 3q10 0 15 -2q11 -2 15 -5q5 -2 13 -8q4 -3 10 -11q5 -8 6 -14q2 -5 4 -15q0 -10 -1 -15q-2 -9 -6 -15q-2 -5 -8 -13q-2 -2 -5 -4.5t-6 -4.5q-7 -4 -14 -7q-8 -3 -15 -3h-7.5t-8.5 1t-15 5q-6 3 -12 9q-4 3 -10 11q-2 3 -3.5 6.5t-3.5 6.5l-3 15

<glyph glyph-name=".notdef" horiz-adv-x="1368" 
d="M969 250q-57 -48 -129 -77t-153 -29t-152 29t-128 77h562zM373 282q-50 57 -77 129t-27 153q0 77 24.5 143.5t69.5 122.5h556zM405 876q57 51 129 79.5t153 28.5t152.5 -29t125.5 -79h-560zM1105 564q0 -77 -24.5 -144.5t-69.5 -123.5h-558l546 550q106 -131 106 -282z
M823 76q-66 -18 -136 -18q-108 0 -200.5 41t-160.5 110t-106.5 161t-38.5 194q0 108 41 201t110 161t161 107t194 39q109 0 202 -42t160.5 -112.5t105.5 -162t38 -191.5q0 -92 -29 -170.5t-79 -141.5t-117.5 -108t-144.5 -68zM809 1012q-54 18 -122 18q-101 0 -186 -38
t-146.5 -102t-96.5 -148.5t-35 -177.5q0 -94 35.5 -178.5t98 -149t147.5 -102.5t183 -38q96 0 181 36.5t148 100t100 148.5t37 183q0 85 -27.5 158.5t-74 131.5t-109.5 98t-133 60zM132 244l26 -44l-23 -13l-46 77l11 6q6 5 13 3l79 -8l-25 42l23 13l44 -76l-10 -6
q-4 -2 -6 -2q-2 -1 -6 -1zM202 104l-49 58l88 74l49 -59l-20 -16l-32 37l-13 -11l25 -30l-20 -17l-25 30l-15 -12l32 -37zM279 150l17 20l70 -59l-17 -20l-24 21l-58 -68l-20 18l57 67zM391 96l19 -12l-16 -123l-16 9q-2 2 -4 3q-2 2 -2 4q-2 4 -2 5v5l2 14l-38 22l-11 -8
q-1 -1 -2 -1t-2 -1h-5q-2 -1 -3 -0.5t-2 0.5q-2 1 -3 1t-2 1l-15 9zM381 58l-2 -2l-2 -2l-2 -2l-17 -12l18 -11l2 21q0 1 0.5 1.5t0.5 1.5t0.5 1t0.5 1t0.5 1.5t0.5 1.5zM499 -6l-10 -25l-38 16l-15 -40l-26 10l42 106l71 -28l-9 -24l-46 18l-7 -18zM508 -23q1 5 5 15l9 12
q3 4 11 10q4 3 14 7q6 1 15 3q10 0 15 -2q11 -2 15 -5q5 -2 13 -8q4 -3 10 -11q5 -8 6 -14q2 -5 4 -15q0 -10 -1 -15q-2 -9 -6 -15q-2 -5 -8 -13q-2 -2 -5 -4.5t-6 -4.5q-7 -4 -14 -7q-8 -3 -15 -3h-7.5t-8.5 1t-15 5q-6 3 -12 9q-4 3 -10 11q-2 3 -3.5 6.5t-3.5 6.5l-3 15
v8t1 8zM535 -29q-2 -6 0 -12q2 -8 4 -12l4 -4t5 -4q3 -3 12 -5q6 -2 12 0q8 2 11 4q6 4 9 9q3 4 5 12q2 6 0 13q-2 8 -5 11q-2 3 -4 5l-4 4q-3 2 -5.5 3t-6.5 2q-6 1 -12 0q-4 -1 -6.5 -2t-5.5 -3q-5 -4 -8 -9q-3 -3 -5 -12zM738 -103l-24 -1l-53 76l1 -76l-27 -1l-2 115h12
h11q5 0 7 -1t4 -3l40 -58q1 -1 1 -1.5t1 -1.5q0 -1 0.5 -1.5t0.5 -1.5q0 -3 1 -4l-2 73h28zM751 -14l-5 26l90 17l5 -25l-32 -7l17 -86l-26 -5l-17 86zM886 21q-2 0 -4 -2q-2 0 -2 -2q-1 -1 -1 -1.5t-1 -1.5q0 -1 1 -2q0 -1 2 -3q1 0 1.5 -0.5t2.5 -0.5h7h9q9 0 14 -1
q6 -2 11 -4q6 -4 9 -7q4 -4 6 -11q3 -8 2 -15q0 -7 -5 -15q-3 -7 -10 -12l-6 -4t-8 -4q-8 -2 -13 -2q-5 -1 -13 1q-4 1 -12 5q-7 4 -9 8l6 8l3 3q2 2 4 2q2 1 7 1q2 0 3 -0.5t3 -0.5t3 -0.5t3 -0.5q4 0 6 1q1 0 5 2l4 4q2 2 2 5v5l-3 3q-1 1 -4 1q-2 1 -6 1h-8q-8 0 -12 1
q-4 0 -12 2q-4 2 -10 6q-5 5 -8 12q-2 4 -2 7.5v6.5q2 9 5 13q3 5 9 10q4 4 12 7q6 2 10 2q2 0 4.5 -0.5t5.5 -0.5q6 -2 10 -4q6 -2 8 -4l-5 -9q-1 -2 -1.5 -2.5t-1.5 -2.5q-4 -2 -6 -2q-1 -1 -4 -1h-4h-4q-2 0 -3 -1zM959 -29q0 2 -0.5 3t-0.5 3q0 4 1 6q0 2 3 5q1 2 5 4
q2 1 3 1t3 1q2 0 3 -0.5t3 -0.5q4 -2 5 -3q2 -1 4 -5t2 -6q0 -4 -1 -6q-2 -4 -3 -5q-1 -2 -5 -4t-6 -2q-4 0 -6 1q-3 0 -6 3t-4 5zM1001 41q3 -6 9 -9q3 -3 11 -5q6 -2 12 0q4 0 12 4l3.5 3.5l3.5 3.5t3 4l2 4q2 5 6 8q2 2 3.5 2t3.5 1h6l10 -2q-2 -10 -4 -14q-1 -4 -5 -12
q-3 -6 -8 -11q-6 -6 -9 -8q-4 -2 -7.5 -4t-7.5 -3q-8 -3 -15 -3q-5 -1 -15 1q-3 1 -6.5 1.5t-7.5 2.5q-3 2 -6.5 4t-5.5 5q-6 5 -11 11q-2 4 -3.5 7.5t-3.5 7.5q-1 4 -3 14q0 10 1 15t5 15l4 6t5 6q5 7 12 11q5 4 11 5q5 2 13 4h13q6 0 14 -2l-1 -10l-3 -6q-1 -2 -2 -2.5
t-3 -2.5q-5 -3 -10 -3q-6 0 -9 -1q-6 -2 -9 -4q-6 -3 -9 -9q-2 -3 -3 -5.5t-1 -5.5q-2 -7 0 -13q2 -8 5 -11zM1070 86q-6 5 -10 13q-2 4 -3 7t-2 7q-2 5 -2 15q0 5 2 15q1 6 6 14q2 3 4.5 6.5t5.5 5.5q2 3 5.5 5.5t6.5 4.5q4 2 7 3t7 2q5 2 15 2t15 -2q7 -1 14 -5
q7 -5 13 -10q2 -3 4.5 -6t4.5 -7t6 -14q1 -5 1 -15q0 -6 -2 -14t-6 -14q-2 -4 -4.5 -7t-4.5 -6q-6 -6 -13 -9q-8 -5 -14 -6q-10 -2 -15 -2t-15 2q-6 1 -14 6q-6 3 -12 9zM1089 105q3 -3 11 -7q6 -2 12 -2q8 0 12 2q4 1 10 7t7 10q3 6 3 12t-3 12q-1 5 -7 11t-10 7
q-6 3 -12 3q-4 0 -12 -2q-8 -4 -11 -7q-6 -6 -7 -11q-2 -4 -2 -12t2 -12q2 -5 7 -11zM1275 247l-15 -23l-46 30l33 -50l-12 -19l-58 10l45 -29l-15 -23l-96 63l10 15q3 4 8 7q3 1 9 1l68 -11l-38 57q-3 4 -3 9t3 10l10 15zM162 736l-6 -15l-107 40l14 38q3 8 7 12q7 7 12 9
l6 2t7 1t7 -0.5t7 -1.5q7 -3 12 -8q4 -3 8 -11q2 -3 2.5 -6.5t1.5 -6.5q0 -8 -3 -15l-8 -23zM116 780q0 2 0.5 4t0.5 4q0 3 -2 7q-1 3 -5 7q-2 2 -6 4q-3 1 -8 1q-2 0 -8 -2q-4 -2 -6 -4t-2.5 -3.5t-1.5 -3.5l-9 -24l38 -14zM220 861l-34 -62l-100 55l34 62l14 -8l-27 -48
l29 -16l22 39l13 -7l-21 -39l30 -17l26 48zM236 882l-10 -13l-91 70l25 33q6 6 10 8q4 3 12 5h6.5t6.5 -1q6 -2 12 -6q3 -2 7 -8t5 -9q1 -4 1 -11q0 -4 -2 -10l61 -1l-6 -9q-4 -4 -7 -5q-4 -2 -7 -2l-51 1l-10 -13zM157 942l28 -22l16 21q1 1 1.5 2.5t1.5 3.5v7q0 2 -2 6
q-2 3 -5 5q-3 3 -6 3q-2 1 -7 1q-2 -1 -3 -1t-3 -1q-3 -2 -5 -5zM245 1036q-2 -1 -3.5 -1t-3.5 -1q-4 -2 -5 -3q-4 -4 -5 -6q-2 -4 -2 -6v-6q2 -4 3 -5q3 -3 5 -4h5q3 0 7 2q6 2 10 4t5 2l6 3q2 0 6 2q1 0 2 0.5t3 0.5q16 2 26 -10q7 -5 8 -12q1 -4 1.5 -7t0.5 -7
q-2 -10 -4 -14q-5 -8 -9 -12q-12 -11 -25 -12h-5q-2 1 -5 1q-1 0 -2 0.5t-2 0.5t-1 0.5t-1 0.5l1 4l3 6q4 3 9 3h2q2 0 8 2q2 1 3.5 2t3.5 3t2.5 3.5t2.5 3.5q2 4 2 8q2 3 0 8q0 3 -4 7q-3 4 -7 4q-4 2 -7 0q-4 0 -8 -2q-6 -2 -8 -4l-6 -2l-6 -2q-3 -2 -6 -2t-5 -1
q-8 0 -12 1q-2 2 -5 3.5t-5 4.5q-5 4 -7 11q-2 8 -1 12q2 8 4 12q3 6 7 10q2 2 4 3l4 2q4 3 9 3q8 2 9 2q6 0 8 -1l-1 -5q0 -4 -3 -7t-6 -3zM294 1032q-6 8 -7 14q-3 7 -3 15q-1 4 -0.5 7.5t0.5 7.5q1 7 5 14q2 5 8 13q3 3 6 5.5t6 4.5q8 6 14 7q7 3 15 3q7 1 15 0
q4 -1 7 -2t7 -3q5 -2 13 -8l5.5 -5.5t4.5 -6.5q6 -8 7 -14q3 -8 3 -15q1 -8 0 -15q-1 -4 -2 -7t-3 -7q-2 -5 -8 -13l-5.5 -5.5t-6.5 -4.5q-11 -8 -21 -9q-12 -3 -23 0q-9 1 -21 8q-11 7 -16 16zM307 1041q4 -8 12 -12q7 -5 15 -6t17 0q8 2 15 7q7 4 12 12q4 7 6 15q1 8 0 17
q-2 8 -7 15t-12 12q-8 4 -15 6q-8 2 -16 0q-9 -2 -16 -7q-8 -5 -12 -12q-5 -8 -6 -15q-2 -8 0 -16q2 -9 7 -16zM444 1059l-15 -6l-44 106l11 5q3 1 7 1t5 -1l87 -57l1 -1q1 -1 1 -2q1 0 1 -0.5t1 -0.5l-37 88l15 6l44 -106l-11 -5q-3 -1 -7 -1t-6 1l-86 57q-1 0 -1 0.5
t-1 0.5q0 1 -1 2t-1 2zM548 1214l15 3l71 -102l-9 -2q-2 -1 -3.5 -0.5t-3.5 0.5q-3 2 -5 5l-12 16l-57 -11l-4 -20q-2 -4 -4 -6q-2 -3 -6 -3l-9 -2zM559 1191l-11 -51l44 8l-30 43q-2 2 -2 3.5t-1 3.5v-4v-3zM635 1112l-4 115l15 1l4 -99l50 2l1 -16zM764 1154q-2 -6 0 -12
q2 -5 5 -10t8 -8q3 -2 5.5 -3t5.5 -2q9 0 12 1q5 0 11 4q5 3 8 8q4 8 5 12l12 68l16 -2l-13 -69q-2 -8 -4 -12q-1 -3 -2.5 -5.5t-3.5 -4.5q-6 -6 -9 -8q-5 -3 -10 -5q-3 -2 -6 -2t-6 -1q-8 0 -12 1q-4 0 -6.5 1t-5.5 3q-5 1 -10 6q-6 6 -8 9q-3 5 -5 10q-3 6 -3 12q0 8 1 12
l12 69l16 -3zM913 1168q-1 2 -2 3t-2 3l-6 3q-2 1 -7 1h-6q-4 -2 -5 -3q-3 -3 -3 -5q-2 -4 -1 -6q0 -3 2 -5q2 -4 4 -6t4 -3t4 -3q3 -3 5 -4t2.5 -2t2.5 -2q1 -1 1.5 -2t2.5 -2q1 -2 1.5 -2.5t1.5 -2.5q9 -12 4 -27q-2 -5 -8 -13q-8 -6 -12 -7q-8 -3 -14 -3q-5 0 -15 2
q-14 6 -22 18q0 2 -2 4q0 2 -0.5 2.5t-0.5 2.5q-1 1 -1 3v3l4 1q4 0 6 -1q5 -1 8 -6v-1q3 -5 5 -6q2 -2 4 -3l4 -2q2 0 4 -0.5t4 -0.5q6 0 8 1q6 2 8 4q4 4 5 7q2 5 0 8q0 2 -1 3.5t-2 3.5l-6 6q-2 1 -3.5 2t-3.5 3l-9 9q-4 2 -7 9q-4 6 -4 10q-1 5 2 13q1 6 6 11q6 5 11 6
q4 2 12 2q5 0 13 -2l4 -2t4 -3q4 -3 7 -7q4 -4 5 -7t3 -7l-5 -2q-3 -2 -8 0q-4 2 -6 4zM973 1035l-63 33l52 102l63 -33l-7 -14l-49 25l-15 -29l40 -20l-8 -15l-39 21l-16 -30l49 -26zM1045 1058q6 7 12 10q3 2 6.5 3.5t6.5 3.5q4 2 7.5 2t7.5 1q10 0 15 -1q7 -1 14 -5
q7 -3 13 -9q7 -5 11 -12q5 -6 6 -13q3 -8 3 -15q0 -10 -1 -15q-2 -10 -5 -14q-2 -5 -8 -13l-6 -6t-6 -5q-8 -5 -14 -6q-8 -3 -15 -3q-10 0 -15 1q-3 1 -6.5 2t-7.5 3q-5 2 -13 8q-10 10 -14 19q-5 11 -6 22q0 11 3 22q2 5 4.5 10t7.5 10zM1057 1048q-6 -8 -9 -15
q-2 -4 -2 -8v-8q0 -5 1 -8.5t3 -7.5t4.5 -7.5t5.5 -6.5q4 -3 7.5 -4.5t7.5 -3.5q10 -3 16 -2q9 0 16 4q7 3 14 10q3 4 5 7t3 8q3 9 2 16q0 9 -4 16q-2 4 -4.5 7t-5.5 6q-6 6 -15 9q-4 2 -8 2h-8q-6 0 -16 -4q-8 -5 -13 -10zM1108 920l-10 12l92 69l8 -10l3 -6v-6l-34 -97
q0 -1 -0.5 -1t-0.5 -1t-0.5 -1t-0.5 -1l-1 -1l76 57l10 -13l-92 -68l-7 9q-2 2 -4 6q0 4 1 6l33 98q1 1 1 2l1 1l2 2zM1164 839l102 53l7 -14l-88 -45l23 -44l-14 -8zM1206 748l-6 15l46 17l2 1q2 2 3 2q0 1 0.5 1.5t0.5 1.5q2 0 2 2l38 58l3 -10q2 -3 2 -9q-1 -2 -1.5 -3.5
t-1.5 -3.5l-25 -38l-2 -2l-1 -1h2q0 2 2 0l44 -12q2 -1 3.5 -1.5t3.5 -2.5q2 -3 4 -7l4 -10l-66 19q-2 0 -3 1h-3h-3q-2 0 -3 -1z" />
    <glyph glyph-name="NULL" horiz-adv-x="0" 
 />
    <glyph glyph-name="NULL" horiz-adv-x="0" 
 />
    <glyph glyph-name="nonmarkingreturn" unicode="&#xd;" horiz-adv-x="627" 
 />
    <glyph glyph-name="space" unicode=" " horiz-adv-x="627" 
 />
    <glyph glyph-name="J" unicode="J" horiz-adv-x="903" 
d="M350 1445q0 37 39 40h295q54 0 54 -52v-1370q0 -99 -39.5 -185.5t-106.5 -151t-155.5 -101.5t-186.5 -37q-58 0 -114 13t-106.5 38.5t-94 63t-76.5 86.5q-3 1 -3 16q0 26 16 38l174 163q8 7 17 11.5t17 4.5q15 0 28.5 -11t30 -24.5t38.5 -24.5t53 -11q23 0 45 9t38.5 24
t26.5 35.5t10 43.5v1382z" />
    <glyph glyph-name="K" unicode="K" horiz-adv-x="1529" 
d="M159 1441q0 18 11.5 31t32.5 13h296q15 0 31.5 -12t16.5 -32v-545q109 140 214 276t213 276q11 17 28.5 27.5t34.5 10.5h380q24 0 24 -15q0 -10 -11 -24l-471 -621l521 -784q11 -17 11 -27q0 -15 -22 -15h-378q-17 0 -33.5 10t-27.5 27q-53 72 -96.5 138t-84.5 131.5
t-83 132.5t-92 141l-127 -146v-390q0 -44 -48 -44h-295q-45 0 -45 44v1397z" />
    <glyph glyph-name="L" unicode="L" horiz-adv-x="1179" 
d="M126 1442q0 18 12 31t33 13h296q17 0 31 -12t15 -32v-1088h550q18 0 31 -12t13 -33v-263q0 -17 -11.5 -31t-32.5 -15h-893q-44 0 -44 44v1398z" />
    <glyph glyph-name="M" unicode="M" horiz-adv-x="1921" 
d="M244 1441q2 18 14 31t34 13h346q37 0 48 -38l272 -908l274 908q14 38 51 38h342q18 0 32.5 -12.5t16.5 -31.5q35 -352 71.5 -698.5t71.5 -698.5v-5q0 -39 -44 -39h-283q-46 0 -48 44l-87 773l-225 -778q-2 -10 -14.5 -24t-24.5 -14h-263q-12 0 -25.5 13.5t-14.5 24.5
l-225 776l-87 -771q-2 -44 -49 -44h-283q-43 0 -43 44z" />
    <glyph glyph-name="P" unicode="P" horiz-adv-x="1343" 
d="M142 1439q0 21 11 33.5t33 12.5h639q69 0 130 -19t112 -52.5t92 -80t69.5 -100.5t43.5 -113.5t15 -120.5q0 -90 -32.5 -176t-92.5 -153t-144 -108.5t-186 -42.5h-303v-476q0 -43 -46 -43h-297q-20 0 -32 10.5t-12 32.5v1396zM895 1001q0 30 -10.5 60t-30.5 53.5
t-48.5 38.5t-64.5 15h-212v-334h212q36 0 65 14.5t48.5 37.5t30 53t10.5 62z" />
    <glyph glyph-name="R" unicode="R" horiz-adv-x="1407" 
d="M163 1439q0 21 11 33.5t33 12.5h646q103 0 193 -38.5t157 -104.5t105.5 -154.5t38.5 -188.5q0 -68 -18.5 -129.5t-51.5 -115t-78.5 -97t-99.5 -74.5l257 -484q7 -14 18 -33t11 -33q0 -16 -10.5 -24.5t-28.5 -8.5h-343q-17 0 -30.5 10t-17.5 27l-243 457h-162v-451
q0 -43 -46 -43h-297q-20 0 -32 10.5t-12 32.5v1396zM946 995q0 30 -11 60t-31 55t-48 42t-62 22q-28 2 -52.5 3.5t-53.5 1.5h-138v-367h184q18 0 32 1t31 3q35 4 63 20.5t47 41t29 55t10 62.5z" />
    <glyph glyph-name="S" unicode="S" horiz-adv-x="1312" 
d="M348 479q17 -14 43.5 -37.5t60.5 -46.5q51 -34 101 -53t105 -19q51 0 85.5 11.5t54.5 30.5t28.5 44t8.5 53q0 31 -23.5 55.5t-57.5 43.5t-71 32.5t-64 22.5q-120 42 -210 90.5t-150 108t-90 131t-30 159.5q0 93 37.5 169t107 130t167.5 83.5t219 29.5q91 0 174.5 -20.5
t164.5 -65.5q34 -20 64.5 -41.5t53.5 -41.5t36.5 -38t13.5 -31t-6.5 -24t-19.5 -25l-153 -163q-17 -17 -34 -17q-14 0 -25.5 8t-25.5 20l-9 8q-20 17 -44.5 35t-52.5 32.5t-59 24t-63 9.5q-33 0 -62 -5.5t-51 -17.5t-35 -31.5t-13 -47.5t14 -48.5t42 -38t69.5 -33
t96.5 -33.5q106 -35 195.5 -73.5t154.5 -91t101.5 -125.5t36.5 -177q0 -110 -45 -199.5t-123.5 -152.5t-184.5 -97.5t-228 -34.5q-115 0 -226 41t-207 110q-40 29 -67.5 57t-43.5 45l-3 3q-1 2 -2 2.5t-2 1.5q-1 2 -2 2.5t-2 1.5q-23 25 -23 40q0 17 23 38l173 165
q21 15 34 15q9 0 19 -6t24 -18z" />
    <glyph glyph-name="T" unicode="T" horiz-adv-x="1332" 
d="M80 1441q0 20 13.5 32t33.5 12h1077q18 0 32 -11t16 -33v-249q0 -18 -12.5 -34.5t-35.5 -16.5h-345v-1094q0 -18 -13 -32.5t-34 -14.5h-294q-17 0 -32 13.5t-15 33.5v1094h-344q-20 0 -33.5 13t-13.5 38v249z" />
    <glyph glyph-name="A" unicode="A" horiz-adv-x="1531" 
d="M586 1446q1 6 6.5 13t13.5 13t17 9.5t17 3.5h256q17 0 29 -10.5t18 -18.5l25 -57l525 -1354q8 -20 -3 -32.5t-38 -12.5h-287q-23 0 -35.5 8.5t-19.5 28.5q-20 51 -39 101.5t-38 101.5h-531q-19 -51 -38.5 -101.5t-38.5 -101.5q-13 -37 -51 -37h-295q-19 0 -31.5 10
t-4.5 30zM768 1018q-19 -51 -38.5 -110t-38.5 -119t-38.5 -118.5t-38.5 -109.5h307z" />
    <glyph glyph-name="U" unicode="U" horiz-adv-x="1550" 
d="M544 593q0 -74 20.5 -125.5t54 -84t78 -47.5t92.5 -15q50 0 94.5 17.5t78 52t53 85.5t19.5 117v848q0 18 12.5 31t33.5 13h292q23 0 36 -13.5t13 -30.5v-843q0 -175 -51.5 -294t-138.5 -191.5t-201.5 -104t-240.5 -31.5t-241 32.5t-202 106t-138.5 192t-51.5 290.5v843
q0 17 11.5 30.5t28.5 13.5h300q15 0 31.5 -12.5t16.5 -31.5v-848z" />
    <glyph glyph-name="V" unicode="V" horiz-adv-x="1470" 
d="M570 21q-11 18 -19.5 37t-16.5 39l-513 1343q0 5 -1.5 9t-1.5 8q0 28 37 28h322q38 0 52 -38l305 -910q41 114 78.5 227.5t74 227.5t74 227.5t78.5 227.5q14 38 55 38h315q23 0 32.5 -8.5t9.5 -22.5q0 -8 -1 -11v-3l-516 -1343q-5 -14 -12 -31t-16 -31.5t-21 -24.5
t-27 -10h-247q-31 0 -41 21z" />
    <glyph glyph-name="W" unicode="W" horiz-adv-x="2156" 
d="M571 21q-10 17 -19 35t-16 36q-129 340 -257 674t-257 674q0 5 -1.5 9t-1.5 8q0 28 37 28h322q38 0 52 -38l306 -911l283 911q14 38 55 38h325q23 0 32.5 -8.5t9.5 -22.5q0 -8 -1 -11v-3l-178 -510l134 -393l324 910q14 38 55 38h315q23 0 32.5 -8.5t9.5 -22.5
q0 -8 -1 -11v-3q-68 -176 -139 -351t-142.5 -350t-142 -350.5t-137.5 -350.5q-4 -11 -18 -24.5t-34 -13.5h-3h-242q-22 0 -33.5 8.5t-16.5 22.5l-158 416q-34 -91 -67 -178.5t-66 -178.5q-5 -14 -11.5 -29.5t-15.5 -29t-20.5 -22.5t-26.5 -9h-3h-242q-32 0 -42 21z" />
    <glyph glyph-name="X" unicode="X" horiz-adv-x="1454" 
d="M16 26q8 15 16.5 30.5t19.5 31.5l450 672q-115 173 -227.5 342t-227.5 342q-6 8 -9.5 15t-4.5 15q2 8 11.5 7.5t19.5 4.5h348q37 0 58 -38l245 -368l248 368q21 38 58 38h314h19t20.5 -0.5t16.5 -3.5t7 -9q0 -12 -11 -26l-460 -687l469 -700q10 -14 15.5 -25.5t4.5 -19.5
q0 -15 -18 -15h-358q-17 0 -31 10t-22 27l-272 403l-269 -403q-8 -17 -22 -27t-31 -10h-341h-18q-8 0 -14 4.5t-6 12.5q0 5 2 9z" />
    <glyph glyph-name="Y" unicode="Y" horiz-adv-x="1410" 
d="M706 937l242 517q6 12 10 17.5t8 8t8.5 3t10.5 2.5h385q7 0 11.5 -4.5t4.5 -10.5q0 -11 -14 -25l-474 -839v-559q0 -47 -46 -47h-300q-20 0 -31 12.5t-11 34.5v561l-473 837q-13 13 -13 25q0 6 4 10.5t11 4.5h385q7 -2 11 -2.5t8 -3t8 -8t11 -17.5z" />
    <glyph glyph-name="Z" unicode="Z" horiz-adv-x="1432" 
d="M108 1441q0 20 12.5 32t34.5 12h1161q19 0 32.5 -11t13.5 -33v-202q0 -8 -0.5 -15t-5.5 -18l-724 -863h687q19 0 32 -11t13 -34v-249q0 -17 -12.5 -33t-32.5 -16h-1161q-20 0 -33.5 13t-13.5 36v215q0 16 7 26l722 851h-685q-22 0 -34.5 11.5t-12.5 37.5v251z" />
    <glyph glyph-name="bar" unicode="|" horiz-adv-x="614" 
d="M162 1441q0 18 11 31t33 13h188q15 0 31.5 -12t16.5 -32v-1781q0 -44 -48 -44h-188q-44 0 -44 44v1781z" />
    <glyph glyph-name="brokenbar" unicode="&#xa6;" horiz-adv-x="598" 
d="M165 1443q0 18 11 31t33 13h181q18 0 33 -12t15 -32v-746q0 -44 -48 -44h-181q-44 0 -44 44v746zM165 402q0 18 11 31t33 13h181q18 0 33 -12t15 -32v-746q0 -44 -48 -44h-181q-44 0 -44 44v746z" />
    <glyph glyph-name="bracketleft" unicode="[" horiz-adv-x="838" 
d="M160 1597q0 44 44 44h434q44 -3 44 -44v-238q0 -21 -13 -33.5t-31 -12.5h-121v-1327h121q18 0 31 -12.5t13 -33.5v-238q0 -41 -44 -44h-434q-44 0 -44 44v1895z" />
    <glyph glyph-name="bracketright" unicode="]" horiz-adv-x="838" 
d="M681 -298q0 -44 -44 -44h-433q-44 3 -44 44v238q0 21 12.5 33.5t31.5 12.5h121v1327h-121q-19 0 -31.5 12.5t-12.5 33.5v238q0 41 44 44h433q44 0 44 -44v-1895z" />
    <glyph glyph-name="braceleft" unicode="{" horiz-adv-x="887" 
d="M230 1320q0 91 40.5 171.5t108 140t153.5 94t178 34.5h20q51 -5 51 -50v-302q0 -22 -13 -36.5t-31 -14.5h-18q-23 0 -43.5 -9t-35.5 -24t-24 -35.5t-9 -43.5v-468q0 -36 -16.5 -67.5t-39.5 -57.5q23 -27 39.5 -58.5t16.5 -69.5v-477q0 -23 9 -43.5t24 -35.5t35.5 -24
t43.5 -9h18q18 0 31 -14.5t13 -36.5v-310q0 -48 -51 -51h-20q-92 0 -178 34.5t-153.5 94t-108 139.5t-40.5 172v471q0 8 -8 16t-16 8h-86q-44 0 -44 48v291q0 44 44 44h81q29 0 29 28v451z" />
    <glyph glyph-name="underscore" unicode="_" horiz-adv-x="1342" 
d="M165 229q0 44 44 44h922q18 0 31 -11.5t13 -32.5v-181q0 -7 -3 -15.5t-9 -15.5t-14 -12t-18 -5h-922q-44 0 -44 48v181z" />
    <glyph glyph-name="endash" unicode="&#x2013;" horiz-adv-x="1342" 
d="M167 702q0 44 44 44h922q18 0 31 -11t13 -33v-176q0 -15 -12 -31.5t-32 -16.5h-922q-44 0 -44 48v176z" />
    <glyph glyph-name="bullet" unicode="&#x2022;" horiz-adv-x="505" 
d="M89 658q0 36 13.5 67t37 54t54.5 36.5t67 13.5q35 0 66 -13.5t54.5 -36.5t37 -54t13.5 -67q0 -35 -13.5 -66.5t-37 -55t-54.5 -37t-66 -13.5q-36 0 -67 13.5t-54.5 37t-37 55t-13.5 66.5z" />
    <glyph glyph-name="asciicircum" unicode="^" horiz-adv-x="977" 
d="M458 1582q15 15 30 15q14 0 29 -15l372 -370q13 -13 13 -31q0 -16 -13 -28l-128 -130q-18 -18 -35 -18t-31 13l-207 209l-209 -209q-17 -11 -30 -11q-17 0 -31 14l-128 127q-15 12 -15 33q0 18 13 31z" />
    <glyph glyph-name="backslash" unicode="\" horiz-adv-x="1086" 
d="M31 1441q-2 2 -2 5t-2 8q0 17 16 24t36 7h277q25 0 40.5 -13t23.5 -31l632 -1397q1 -18 4 -18q0 -26 -42 -26h-299q-21 0 -31.5 9.5t-21.5 34.5z" />
    <glyph glyph-name="asciitilde" unicode="~" horiz-adv-x="1318" 
d="M161 691q58 81 138 123t174 42q58 0 113 -19t109 -52l82 -53q28 -19 66 -19q58 0 88 44l39 57q11 17 35 17q14 0 31 -11l150 -101q17 -14 17 -33q0 -12 -8 -28l-40 -55q-58 -81 -138 -123t-174 -42q-58 -2 -114.5 17.5t-108.5 52.5l-81 53q-32 20 -66 20q-56 0 -88 -44
l-40 -58q-11 -14 -29 -16t-37 10l-149 101q-18 10 -18 33q0 3 1 7.5t6 13.5t14.5 24t27.5 39z" />
    <glyph glyph-name="braceright" unicode="}" horiz-adv-x="879" 
d="M631 869q0 -28 29 -28h81q44 0 44 -44v-291q0 -48 -44 -48h-86q-8 0 -16 -8t-8 -16v-471q0 -92 -41 -172t-108 -139.5t-154 -94t-178 -34.5h-20q-50 3 -50 51v310q0 22 13 36.5t31 14.5h18q23 0 43.5 9t35.5 24t24 35.5t9 43.5v477q0 38 16.5 69.5t39.5 58.5
q-23 26 -39.5 57.5t-16.5 67.5v468q0 23 -9 43.5t-24 35.5t-35.5 24t-43.5 9h-18q-18 0 -31 14.5t-13 36.5v302q0 45 50 50h20q91 0 178 -34.5t154 -94t108 -140t41 -171.5v-451z" />
    <glyph glyph-name="Euro" unicode="&#x20ac;" horiz-adv-x="1542" 
d="M1374 1377q17 -10 25 -26t-3 -38l-169 -240q-11 -17 -23.5 -19.5t-30.5 8.5q-49 37 -108 57t-125 20q-99 0 -176.5 -43.5t-128.5 -115.5h216q19 0 31.5 -11.5t12.5 -32.5v-110q0 -15 -12 -32t-32 -17h-286q-1 -8 -1 -17v-17q0 -27 3 -51h284q19 0 31.5 -11.5t12.5 -32.5
v-110q0 -15 -12 -32t-32 -17h-203q51 -66 125 -103t167 -37q66 0 126 20.5t109 57.5q18 11 30 9t24 -18l171 -246q11 -22 3 -37t-25 -25q-94 -63 -202.5 -97.5t-228.5 -34.5q-126 0 -239.5 38t-208 106t-165 161.5t-109.5 205.5h-97q-44 0 -44 49v110q0 44 44 44h56
q-1 12 -1 24v25v18t1 18h-56q-44 0 -44 49v110q0 44 44 44h93q37 115 107 211.5t165.5 166.5t211 109.5t242.5 39.5q120 0 226.5 -33.5t200.5 -96.5z" />
    <glyph glyph-name="E" unicode="E" horiz-adv-x="1350" 
d="M161 1439q0 21 11.5 33.5t32.5 12.5h993q22 0 34 -13t12 -35v-248q0 -17 -12 -32.5t-35 -15.5h-648v-247h500q19 0 31.5 -9t12.5 -30v-216q0 -14 -11 -27t-32 -13h-501v-255h672q45 0 45 -46v-252q0 -10 -8 -18q-4 -28 -41 -28h-1012q-20 0 -32 10.5t-12 32.5v1396z" />
    <glyph glyph-name="grave" unicode="`" horiz-adv-x="552" 
d="M469 1464q2 -9 5 -22t3 -24t-5.5 -19t-20.5 -8h-219q-19 0 -30.5 10t-23.5 32l-98 215q-5 11 -7 22.5t0.5 20.5t10 15t22.5 6h258q17 0 32.5 -9.5t20.5 -32.5z" />
    <glyph glyph-name="ellipsis" unicode="&#x2026;" horiz-adv-x="1461" 
d="M84 288q0 20 11.5 32t32.5 12h264q17 0 31.5 -12t14.5 -32v-242q0 -18 -11.5 -32t-34.5 -14h-264q-44 0 -44 46v242zM554 288q0 20 11 32t33 12h264q17 0 32 -12t15 -32v-242q0 -18 -12 -32t-35 -14h-264q-44 0 -44 46v242zM1024 288q0 20 11.5 32t32.5 12h264
q17 0 31.5 -12t14.5 -32v-242q0 -18 -11.5 -32t-34.5 -14h-264q-44 0 -44 46v242z" />
    <glyph glyph-name="quoteleft" unicode="&#x2018;" horiz-adv-x="524" 
d="M436 1008q0 -20 -11 -32t-33 -12h-242q-17 0 -31.5 12t-14.5 32v216q0 43 3 85q6 78 49 143.5t121 110.5q1 1 7.5 3t14 4t14.5 3.5t9 1.5q8 0 13 -4t11 -10l38 -29q17 -12 20 -20.5t3 -16.5q0 -11 -13.5 -25t-30 -33t-30 -43t-13.5 -55v-44q0 -18 18 -21h57
q20 0 30.5 -12t10.5 -32v-222z" />
    <glyph glyph-name="quoteright" unicode="&#x2019;" horiz-adv-x="558" 
d="M124 1442q0 20 11 32t33 12h242q17 0 31.5 -12t14.5 -32v-216q0 -43 -3 -85q-6 -78 -49 -143.5t-121 -110.5q-1 -1 -7.5 -3t-14 -4t-14.5 -3.5t-9 -1.5q-8 0 -13 4t-11 10l-38 29q-17 12 -20 20.5t-3 16.5q0 11 13.5 25t30 33t30 43t13.5 55v44q0 18 -18 21h-57
q-20 0 -30.5 12t-10.5 32v222z" />
    <glyph glyph-name="quotedblleft" unicode="&#x201c;" horiz-adv-x="968" 
d="M434 1005q0 -20 -11 -32t-33 -12h-242q-17 0 -31.5 12t-14.5 32v216q0 43 3 85q6 78 49 143.5t121 110.5q1 1 7.5 3t14 4t14.5 3.5t9 1.5q8 0 13 -4t11 -10l38 -29q17 -12 20 -20.5t3 -16.5q0 -11 -13.5 -25t-30 -33t-30 -43t-13.5 -55v-44q0 -18 18 -21h57
q20 0 30.5 -12t10.5 -32v-222zM878 1005q0 -20 -11 -32t-33 -12h-242q-17 0 -31.5 12t-14.5 32v216q0 43 3 85q6 78 49 143.5t121 110.5q1 1 7.5 3t14 4t14.5 3.5t9 1.5q8 0 13 -4t11 -10l38 -29q17 -12 20 -20.5t3 -16.5q0 -11 -13.5 -25t-30 -33t-30 -43t-13.5 -55v-44
q0 -18 18 -21h57q20 0 30.5 -12t10.5 -32v-222z" />
    <glyph glyph-name="quotedblright" unicode="&#x201d;" horiz-adv-x="990" 
d="M102 1443q0 20 11 32t33 12h242q17 0 31.5 -12t14.5 -32v-216q0 -43 -3 -85q-6 -78 -49 -143.5t-121 -110.5q-1 -1 -7.5 -3t-14 -4t-14.5 -3.5t-9 -1.5q-8 0 -13 4t-11 10l-38 29q-17 12 -20 20.5t-3 16.5q0 11 13.5 25t30 33t30 43t13.5 55v44q0 18 -18 21h-57
q-20 0 -30.5 12t-10.5 32v222zM556 1443q0 20 11 32t33 12h242q17 0 31.5 -12t14.5 -32v-216q0 -43 -3 -85q-6 -78 -49 -143.5t-121 -110.5q-1 -1 -7.5 -3t-14 -4t-14.5 -3.5t-9 -1.5q-8 0 -13 4t-11 10l-38 29q-17 12 -20 20.5t-3 16.5q0 11 13.5 25t30 33t30 43t13.5 55
v44q0 18 -18 21h-57q-20 0 -30.5 12t-10.5 32v222z" />
    <glyph glyph-name="sterling" unicode="&#xa3;" horiz-adv-x="1123" 
d="M135 998q0 106 41 198.5t111 160t163 106.5t197 39q84 0 158.5 -21.5t137.5 -59.5q17 -10 28 -24t11 -36q0 -6 -1.5 -12.5t-6.5 -11.5l-91 -179q-17 -30 -40 -30h-2q-10 0 -30 11q-23 18 -61 31t-73 13q-37 0 -68 -14.5t-53.5 -39.5t-35 -57.5t-12.5 -69.5v-147h277
q17 0 31.5 -12t14.5 -32v-185q0 -18 -11.5 -32.5t-34.5 -14.5h-276v-225h497q19 0 31.5 -11.5t12.5 -32.5v-262q0 -7 -3 -15.5t-9 -15.5t-14 -12t-18 -5h-827q-44 0 -44 43v955z" />
    <glyph glyph-name="cent" unicode="&#xa2;" horiz-adv-x="1089" 
d="M796 339q17 -5 30.5 -14.5t26.5 -29.5l97 -152q3 -6 3 -11q0 -11 -14 -19q3 -5 3 -11q0 -15 -21 -30t-49.5 -28.5t-59 -24t-49.5 -16.5v-137q0 -15 -10 -27.5t-29 -12.5h-236q-38 0 -38 40v139q-83 25 -152.5 74t-120 116t-78.5 149.5t-28 174.5q0 91 28.5 173
t78.5 149.5t119.5 116.5t152.5 74v136q0 19 9.5 30.5t28.5 11.5h236q14 0 26.5 -13.5t12.5 -28.5v-133q40 -11 78 -28.5t74 -38.5q-1 0 -1 1q5 -3 11 -9.5t11 -14.5t8.5 -16t3.5 -14q0 -10 -6 -20l-106 -195q-14 -21 -31 -21q-8 0 -15 4q-1 -1 -2 -1q-2 0 -3 1
q-12 9 -30.5 18.5t-40.5 18t-46 13.5t-47 5q-45 0 -84.5 -17.5t-68.5 -48t-45.5 -71t-16.5 -85.5q0 -47 16.5 -87.5t46 -70t68.5 -46.5t84 -17q40 0 82 14.5t71 36.5q1 0 1 -1q6 2 9 2l6 -2t6 -6z" />
    <glyph glyph-name="dagger" unicode="&#x2020;" horiz-adv-x="854" 
d="M42 648q0 44 44 44h205v749q0 18 11 31t33 13h180q15 0 32 -12t17 -32v-749h204q18 0 31 -11.5t13 -32.5v-181q0 -15 -12 -31.5t-32 -16.5h-204v-758q0 -44 -49 -44h-180q-44 0 -44 44v758h-205q-44 0 -44 48v181z" />
    <glyph glyph-name="daggerdbl" unicode="&#x2021;" horiz-adv-x="884" 
d="M57 447q0 44 44 44h205v216h-205q-44 0 -44 48v181q0 44 44 44h205v461q0 18 11 31t33 13h180q15 0 32 -12t17 -32v-461h204q18 0 31 -11.5t13 -32.5v-181q0 -15 -12 -31.5t-32 -16.5h-204v-216h204q18 0 31 -11.5t13 -32.5v-181q0 -15 -12 -31.5t-32 -16.5h-204v-557
q0 -44 -49 -44h-180q-44 0 -44 44v557h-205q-44 0 -44 48v181z" />
    <glyph glyph-name="florin" unicode="&#x192;" horiz-adv-x="766" 
d="M81 944q0 50 52 50h63v88q0 49 13.5 96.5t37.5 91t56.5 81.5t70.5 68q63 46 136 67t155 21q28 0 42.5 -14t14.5 -37v-224q0 -21 -11 -32.5t-29 -11.5h-5q-27 0 -50 -7.5t-40 -21t-27 -34t-10 -45.5v-86h105q23 0 37.5 -12t14.5 -38v-179q0 -21 -14 -38t-38 -17h-105v-667
q0 -112 -43.5 -205t-130.5 -162q-63 -45 -142 -65t-158 -20q-53 0 -53 49v225q0 20 11.5 32t29.5 12h4q24 0 47 7t41 20.5t29 33.5t11 46v694h-63q-52 0 -52 55v179z" />
    <glyph glyph-name="trademark" unicode="&#x2122;" horiz-adv-x="1368" 
d="M112 1470q0 7 5.5 12t16.5 5h416q22 0 22 -17v-108q0 -20 -22 -20h-130v-444q0 -7 -5.5 -13.5t-11.5 -6.5h-119q-5 0 -12.5 6.5t-7.5 13.5v444h-130q-22 0 -22 20v108zM629 1470q0 7 5 12t13 5h156q14 0 18 -13l88 -273l90 273q2 7 8.5 10t11.5 3h151q7 0 13.5 -5.5
t6.5 -11.5l29 -575q0 -17 -22 -17h-106q-17 0 -17 17l-25 315l-90 -290q-6 -16 -15 -16h-68q-9 0 -16 16l-90 290l-24 -315q0 -17 -20 -17h-108q-17 0 -17 17z" />
    <glyph glyph-name="tilde" unicode="&#x2dc;" horiz-adv-x="881" 
d="M93 1618q19 27 45 49t56 37.5t62 23.5t64 8q18 0 39 -4t46 -14t56 -26.5t69 -41.5q11 -7 21.5 -11t23.5 -4q21 0 35 8.5t26 21.5l33 40q9 13 19.5 13.5t19.5 -8.5l103 -90q11 -11 14.5 -19t-6.5 -21l-30 -39q-40 -55 -99 -86t-125 -31q-39 0 -79 13.5t-77 36.5l-55 35
q-11 7 -21 11t-24 4q-20 0 -34.5 -8t-25.5 -21l-31 -40q-6 -10 -21 -11.5t-24 7.5l-103 87q-5 5 -8.5 9.5t-3.5 13.5q0 1 0.5 4t4 9t10.5 16.5t20 27.5z" />
    <glyph glyph-name="circumflex" unicode="&#x2c6;" horiz-adv-x="748" 
d="M353 1801q7 5 11 7t11 2q8 0 20 -9l257 -256q8 -6 8 -23q0 -9 -9 -19l-88 -90q-11 -11 -27 -11q-13 0 -22 9l-139 142l-142 -143q-11 -11 -23.5 -8t-20.5 11l-90 87q-5 5 -6.5 10.5t-2.5 11.5q0 8 2.5 13t6.5 9z" />
    <glyph glyph-name="yen" unicode="&#xa5;" horiz-adv-x="1456" 
d="M726 937l242 517q6 12 10 17.5t8 8t8.5 3t10.5 2.5h385q7 0 11.5 -4.5t4.5 -10.5q0 -5 -4.5 -11t-9.5 -14l-374 -662h117q18 0 31 -11t13 -33v-110q0 -15 -12 -31.5t-32 -16.5h-217v-90h217q18 0 31 -11.5t13 -32.5v-110q0 -15 -12 -32t-32 -17h-217v-241q0 -47 -46 -47
h-300q-20 0 -31 12.5t-11 34.5v241h-204q-44 0 -44 49v110q0 44 44 44h204v90h-204q-44 0 -44 48v110q0 44 44 44h105l-374 662q-5 8 -9 14t-4 11q0 6 4 10.5t11 4.5h385q7 -2 11 -2.5t8 -3t8 -8t11 -17.5z" />
    <glyph glyph-name="emdash" unicode="&#x2014;" horiz-adv-x="1672" 
d="M167 702q0 44 44 44h1252q18 0 31 -11t13 -33v-176q0 -15 -12 -31.5t-32 -16.5h-1252q-44 0 -44 48v176z" />
    <glyph glyph-name="guilsinglright" unicode="&#x203a;" horiz-adv-x="883" 
d="M838 662q15 -15 15 -31q0 -14 -15 -29l-523 -525q-14 -14 -31 -14q-14 0 -28 14l-146 143q-16 16 -16 36q0 17 13 30l343 346l-343 345q-7 8 -9 16t-4 15q2 8 5 16t10 15l142 144q13 13 33 13q21 0 30 -11z" />
    <glyph glyph-name="N" unicode="N" horiz-adv-x="1639" 
d="M165 1441q0 18 11 31t33 13h327q14 0 29 -7t26 -24q127 -205 252 -404t253 -404v801q4 18 16 28t28 10h285q21 0 35 -11.5t14 -32.5v-1402q0 -20 -12 -29.5t-33 -9.5h-319q-13 0 -23 9t-21 24q-133 220 -263 435t-264 435v-859q0 -22 -10 -33t-36 -11h-284
q-23 0 -33.5 12.5t-10.5 30.5v1398z" />
    <glyph glyph-name="acute" unicode="&#xb4;" horiz-adv-x="526" 
d="M141 1670q5 23 20.5 32.5t32.5 9.5h258q15 0 22.5 -6t10 -15t0.5 -20.5t-7 -22.5l-98 -215q-12 -22 -23.5 -32t-30.5 -10h-219q-15 0 -20.5 8t-5.5 19t3 24t5 22z" />
    <glyph glyph-name="dieresis" unicode="&#xa8;" horiz-adv-x="941" 
d="M108 1688q0 42 42 42h196q14 0 27.5 -11t13.5 -31v-189q0 -18 -11.5 -33.5t-29.5 -15.5h-196q-42 0 -42 49v189zM544 1688q0 42 44 42h193q42 0 42 -42v-189q0 -18 -11 -33.5t-31 -15.5h-193q-44 0 -44 49v189z" />
    <glyph glyph-name="mu" unicode="&#xb5;" horiz-adv-x="1342" 
d="M477 952q5 -4 7 -10t2 -12v-485q3 -30 21.5 -54.5t44.5 -42t56 -27.5t56 -10q30 0 58 11t50 30t35.5 45t13.5 57v477q0 25 12 37t39 12h251q21 0 35.5 -13.5t14.5 -37.5v-434q0 -44 -3 -86q-7 -89 -45.5 -166.5t-101.5 -134.5t-146 -89.5t-179 -32.5q-38 0 -69 10.5
t-56.5 27t-47 36t-39.5 36.5v-439q0 -20 -10 -30t-24.5 -15t-30.5 -5.5t-28 -0.5h-208q-27 0 -40 14.5t-13 37.5v1271q0 24 13.5 37.5t43.5 13.5h206h25t26 -2.5t21 -8t10 -17.5z" />
    <glyph glyph-name="periodcentered" unicode="&#xb7;" horiz-adv-x="597" 
d="M121 751q0 20 11 32t33 12h264q17 0 31.5 -12t14.5 -32v-242q0 -18 -11.5 -32t-34.5 -14h-264q-44 0 -44 46v242z" />
    <glyph glyph-name="cedilla" unicode="&#xb8;" horiz-adv-x="557" 
d="M345 0q-22 -15 -22 -35q0 -16 15.5 -29.5t38 -28t49.5 -31t49.5 -38t38 -49t15.5 -64.5q0 -36 -24.5 -77t-69 -81t-106.5 -74.5t-138 -57.5h-5q-15 0 -33 22t-34 50t-27 54.5t-11 35.5q0 16 11 22q171 43 171 106q0 22 -15 39t-37.5 32.5t-48.5 31t-48.5 33.5t-37.5 40
t-15 51q0 11 3 22.5t17 25.5h264z" />
    <glyph glyph-name="degree" unicode="&#xb0;" horiz-adv-x="651" 
d="M326 1435q45 0 84 -16.5t68 -46t46 -68.5t17 -84t-17 -84.5t-46.5 -68.5t-68.5 -45.5t-83 -16.5q-45 0 -84 16.5t-68 45.5t-46 68.5t-17 84.5t16.5 84t45.5 68.5t68.5 46t84.5 16.5zM326 1310q-39 0 -65 -26t-26 -64q0 -39 26 -65t65 -26q37 0 63.5 26t26.5 65
q0 19 -7 35.5t-19.5 28.5t-29 19t-34.5 7z" />
    <glyph glyph-name="dotaccent" unicode="&#x2d9;" horiz-adv-x="543" 
d="M138 1420q0 42 42 42h196q14 0 27.5 -11t13.5 -31v-189q0 -18 -11.5 -33.5t-29.5 -15.5h-196q-42 0 -42 49v189z" />
    <glyph glyph-name="breve" unicode="&#x2d8;" horiz-adv-x="653" 
d="M323 1413q-59 1 -109 22.5t-87 56.5t-58 79.5t-21 92.5q0 17 11.5 27t26.5 10h144q11 0 17 -6.5t6 -15.5q0 -23 18 -41.5t56 -18.5q34 0 52.5 19t18.5 41q0 9 5 15.5t16 6.5h146q15 0 26.5 -10t11.5 -27q0 -49 -21.5 -94t-59.5 -79.5t-89 -55.5t-110 -22z" />
    <glyph glyph-name="ogonek" unicode="&#x2db;" horiz-adv-x="516" 
d="M475 0q14 -14 17 -25.5t3 -22.5q0 -29 -15 -51t-37.5 -40t-48.5 -33.5t-48.5 -31t-37.5 -32.5t-15 -39q0 -63 171 -106q11 -6 11 -22q0 -9 -11 -35.5t-27 -54.5t-34 -50t-33 -22h-5q-76 23 -138.5 57.5t-107 74.5t-69 81t-24.5 77q0 37 15.5 64.5t38.5 49t49.5 38
t49.5 31t38.5 28t15.5 29.5q0 20 -22 35h264z" />
    <glyph glyph-name="IJ" unicode="&#x132;" horiz-adv-x="1428" 
d="M874 1445q0 37 39 40h295q54 0 54 -52v-1450q0 -99 -39.5 -185.5t-106.5 -151t-155.5 -101.5t-186.5 -37q-58 0 -114 13t-106.5 38.5t-94 63t-76.5 86.5q-3 1 -3 16q0 26 16 38l174 163q8 7 17 11.5t17 4.5q15 0 28.5 -11t30 -24.5t38.5 -24.5t53 -11q23 0 45 9t38.5 24
t26.5 35.5t10 43.5v1462zM165 1441q0 18 11 31t33 13h294q15 0 32 -12t17 -32v-1397q0 -44 -49 -44h-294q-44 0 -44 44v1397z" />
    <glyph glyph-name="Lslash" unicode="&#x141;" horiz-adv-x="1179" 
d="M126 590l-78 -28q-30 -10 -44 22l-42 112q-10 31 22 44l142 51v651q0 18 12 31t33 13h296q17 0 31 -12t15 -32v-510l96 35q25 10 39 -20l42 -112q5 -14 0.5 -26.5t-17.5 -17.5l-160 -59v-378h550q18 0 31 -12t13 -33v-263q0 -17 -11.5 -31t-32.5 -15h-893q-44 0 -44 44
v546z" />
    <glyph glyph-name="ij" unicode="&#x133;" horiz-adv-x="1198" 
d="M187 1192q0 32 18 55t56 23h229q12 0 26 -5.5t26 -16t20.5 -24.5t8.5 -32v-1115q0 -38 -21 -57.5t-60 -19.5h-229q-74 0 -74 77v1115zM187 1698q0 42 18 59.5t56 17.5h232q35 0 56.5 -17.5t21.5 -59.5v-195q0 -12 -5.5 -26t-15.5 -27t-24.5 -21.5t-32.5 -8.5h-232
q-74 0 -74 83v195zM771 1192q0 39 25 58.5t55 19.5h227q36 0 56 -23t20 -55v-1148q0 -93 -39 -175t-105 -143t-151.5 -96t-178.5 -35h-24q-36 2 -55 22.5t-19 49.5v143q0 36 22.5 58t54.5 22h21q20 0 37 16.5t29 40.5t18.5 50.5t6.5 46.5v1148zM766 1698q0 42 18 59.5
t56 17.5h232q35 0 56.5 -17.5t21.5 -59.5v-195q0 -12 -5.5 -26t-15.5 -27t-24.5 -21.5t-32.5 -8.5h-232q-74 0 -74 83v195z" />
    <glyph glyph-name="s_t" unicode="&#xfb06;" horiz-adv-x="1481" 
 />
    <glyph glyph-name="tbar" unicode="&#x167;" horiz-adv-x="810" 
d="M641 691q31 0 31 -33v-127q0 -14 -8.5 -24.5t-22.5 -10.5h-492q-35 0 -35 35v127q0 33 35 33h492zM200 1468q0 31 20.5 46.5t58.5 29.5l227 79q5 1 9.5 1h8.5q37 0 49.5 -21.5t12.5 -56.5l-1 -315h167q32 0 52 -19t20 -57v-193q0 -42 -20 -61.5t-52 -19.5h-167l1 -804
q0 -38 -22 -57.5t-61 -19.5h-226q-77 0 -77 77l-1 804h-73q-77 0 -77 81v193q0 76 77 76h73z" />
    <glyph glyph-name="tcaron" unicode="&#x165;" horiz-adv-x="1107" 
d="M197 1468q0 31 20.5 46.5t58.5 29.5l227 79q5 1 9.5 1h8.5q37 0 49.5 -21.5t12.5 -56.5l-1 -315h167q32 0 52 -19t20 -57v-193q0 -42 -20 -61.5t-52 -19.5h-167l1 -804q0 -38 -22 -57.5t-61 -19.5h-226q-77 0 -77 77l-1 804h-73q-77 0 -77 81v193q0 76 77 76h73z
M807 1670q0 17 10.5 28t29.5 11h236q15 0 28.5 -10.5t13.5 -28.5v-257q0 -85 -43.5 -159t-125.5 -122q-1 -1 -12 -1q-13 0 -20 3t-13 8l-61 52q-10 8 -13.5 15t-3.5 15q0 12 12 23t27 25.5t27 34t12 47.5v39q0 15 -16 19h-51q-37 1 -37 39v219z" />
    <glyph glyph-name="nsuperior" unicode="&#x207f;" horiz-adv-x="612" 
 />
    <glyph glyph-name="Tbar" unicode="&#x166;" horiz-adv-x="1332" 
d="M80 1441q0 20 13.5 32t33.5 12h1077q18 0 32 -11t16 -33v-249q0 -18 -12.5 -34.5t-35.5 -16.5h-345v-1094q0 -18 -13 -32.5t-34 -14.5h-294q-17 0 -32 13.5t-15 33.5v1094h-344q-20 0 -33.5 13t-13.5 38v249zM982 1053q18 0 31 -11.5t13 -32.5v-194q0 -18 -12 -32
t-32 -14h-649q-47 0 -47 46v194q0 44 47 44h649z" />
    <glyph glyph-name="plusminus" unicode="&#xb1;" horiz-adv-x="994" 
d="M829 263q18 0 31 -11.5t13 -32.5v-172q0 -17 -12 -32t-32 -15h-665q-44 0 -44 47v172q0 44 44 44h665zM98 836q0 44 44 44h183v193q0 44 48 44h224q44 0 44 -44v-193h183q18 0 31 -11.5t13 -32.5v-203q0 -15 -12 -31.5t-32 -16.5h-183v-194q0 -18 -11 -31t-33 -13h-224
q-15 0 -31.5 12t-16.5 32v194h-183q-44 0 -44 48v203z" />
    <glyph glyph-name="fraction" unicode="&#x2044;" horiz-adv-x="1099" 
d="M790 1441q8 18 23.5 31t40.5 13h189q20 0 35 -8t15 -23q0 -11 -2 -13l-763 -1397q-12 -25 -21.5 -34.5t-31.5 -9.5h-211q-42 0 -42 26q0 -2 4 18z" />
    <glyph glyph-name="dotlessi" unicode="&#x131;" 
d="M173 1192q0 32 18 55t56 23h229q12 0 26 -5.5t26 -16t20.5 -24.5t8.5 -32v-1115q0 -38 -21 -57.5t-60 -19.5h-229q-74 0 -74 77v1115z" />
    <glyph glyph-name="guillemotright" unicode="&#xbb;" horiz-adv-x="1474" 
d="M1410 662q15 -15 15 -31q0 -14 -15 -29l-523 -525q-12 -14 -30 -14q-15 0 -29 14l-147 143q-15 15 -15 36q0 18 12 30l344 346l-344 345q-7 8 -9 16t-3 15q2 17 14 31l144 144q12 13 33 13q20 0 29 -11zM766 662q15 -15 15 -31q0 -14 -15 -29l-523 -525q-12 -14 -30 -14
q-15 0 -29 14l-147 143q-15 15 -15 36q0 18 12 30l344 346l-344 345q-7 8 -9 16t-3 15q2 17 14 31l144 144q12 13 33 13q20 0 29 -11z" />
    <glyph glyph-name="guillemotleft" unicode="&#xab;" horiz-adv-x="1469" 
d="M561 1185q9 11 29 11q21 0 33 -13l144 -144q12 -14 14 -31q-1 -7 -3 -15t-9 -16l-344 -345l344 -346q12 -12 12 -30q0 -21 -15 -36l-147 -143q-6 -6 -13.5 -10t-15.5 -4q-18 0 -30 14l-523 525q-15 15 -15 29q0 16 15 31zM1205 1185q9 11 29 11q21 0 33 -13l144 -144
q12 -14 14 -31q-1 -7 -3 -15t-9 -16l-344 -345l344 -346q12 -12 12 -30q0 -21 -15 -36l-147 -143q-6 -6 -13.5 -10t-15.5 -4q-18 0 -30 14l-523 525q-15 15 -15 29q0 16 15 31z" />
    <glyph glyph-name="minus" unicode="&#x2212;" horiz-adv-x="1100" 
d="M874 809q18 0 31 -11.5t13 -32.5v-194q0 -18 -12 -32t-32 -14h-649q-47 0 -47 46v194q0 44 47 44h649z" />
    <glyph glyph-name="figuredash" unicode="&#x2012;" horiz-adv-x="1100" 
d="M874 849q18 0 31 -11.5t13 -32.5v-194q0 -18 -12 -32t-32 -14h-649q-47 0 -47 46v194q0 44 47 44h649z" />
    <glyph glyph-name="uni00AD" unicode="&#xad;" horiz-adv-x="1100" 
d="M874 769q18 0 31 -11.5t13 -32.5v-164q0 -18 -12 -32t-32 -14h-649q-47 0 -47 46v164q0 44 47 44h649z" />
    <glyph glyph-name="onedotenleader" unicode="&#x2024;" horiz-adv-x="594" 
d="M121 288q0 20 11 32t33 12h264q17 0 31.5 -12t14.5 -32v-242q0 -18 -11.5 -32t-34.5 -14h-264q-44 0 -44 46v242z" />
    <glyph glyph-name="twodotenleader" unicode="&#x2025;" horiz-adv-x="1165" 
d="M681 288q0 20 11 32t33 12h264q17 0 31.5 -12t14.5 -32v-242q0 -18 -11.5 -32t-34.5 -14h-264q-44 0 -44 46v242zM171 288q0 20 11 32t33 12h264q17 0 31.5 -12t14.5 -32v-242q0 -18 -11.5 -32t-34.5 -14h-264q-44 0 -44 46v242z" />
    <glyph glyph-name="Dcroat" unicode="&#x110;" horiz-adv-x="1547" 
d="M1454 741q0 -106 -27 -201.5t-77 -178t-119.5 -149.5t-154 -114t-182.5 -72.5t-203 -25.5h-493q-18 0 -32 8t-14 34v1397q0 21 11.5 34t34.5 13h493q105 0 202.5 -26t182 -74t154.5 -115t119.5 -150t77 -179t27.5 -201zM539 1127v-769h84q23 0 45 1.5t44 3.5
q75 6 140 36.5t113.5 80t76 116.5t27.5 146q0 84 -31.5 154.5t-85.5 122t-126.5 80t-154.5 28.5h-132zM41.3096 839.581q0 39.6729 38.2852 39.6729h593.42q15.6621 0 26.9736 -10.3691t11.3115 -29.3037v-183.04q0 -13.5254 -10.4414 -28.4023
q-10.4414 -14.8779 -27.8438 -14.8779h-593.42q-38.2852 0 -38.2852 43.2803v183.04z" />
    <glyph glyph-name="twosuperior" unicode="&#xb2;" horiz-adv-x="836" 
d="M409 825h250q45 0 45 -45v-90q0 -20 -12.5 -32.5t-32.5 -12.5h-493q-18 0 -33 12.5t-15 32.5v81q0 10 6 19q-1 -1 0 1l2 4l352 361h-1q21 23 27.5 37t6.5 33q0 18 -8 35t-22 30t-32.5 20.5t-39.5 7.5t-39.5 -8t-31.5 -22t-20.5 -32t-7.5 -38v-45q0 -42 -44 -42h-98
q-23 0 -33 14t-10 28v45q0 60 22.5 110.5t61.5 87t90.5 57t109.5 20.5q57 0 110.5 -19t94.5 -53.5t65.5 -83t24.5 -108.5q0 -64 -25 -113.5t-62 -83.5v1z" />
    <glyph glyph-name="threesuperior" unicode="&#xb3;" horiz-adv-x="757" 
d="M355 998q-44 0 -44 35v104q0 44 44 44q19 0 31 6t19 15t10 20t3 21q0 11 -1.5 23t-7 22t-17 16.5t-30.5 6.5q-17 0 -27 -6t-15.5 -16.5t-7.5 -23.5t-2 -28q0 -24 -10 -35t-36 -11h-92q-43 0 -43 43q0 67 19 114.5t51.5 77.5t75.5 43.5t92 13.5q48 0 91 -18.5t75.5 -50.5
t51 -75t18.5 -92q0 -77 -42 -131q22 -17 39.5 -37t29.5 -45.5t18 -57t6 -71.5q0 -59 -20.5 -109.5t-58 -88.5t-89.5 -59.5t-115 -21.5q-59 0 -110 12.5t-88.5 46t-59.5 93t-22 152.5q0 33 42 43h99q43 0 43 -43q0 -36 7.5 -59t20 -36.5t30 -19t38.5 -5.5q47 0 72.5 24.5
t25.5 72.5q0 51 -25 71t-89 20z" />
    <glyph glyph-name="onesuperior" unicode="&#xb9;" horiz-adv-x="469" 
d="M57 1404q0 21 24 35l88 44q5 4 18 4h149q26 0 26 -24v-768q0 -24 -24 -24h-151q-24 0 -24 22v608l-75 -37q-2 -3 -7 -3q-2 0 -2 -2q-11 0 -16.5 7.5t-5.5 19.5v118z" />
    <glyph glyph-name="ordmasculine" unicode="&#xba;" horiz-adv-x="1023" 
d="M103 1105q0 82 31 154.5t85 126.5t126 85.5t154 31.5t154.5 -31.5t126.5 -85.5t85 -126.5t31 -154.5t-31 -154t-85 -126t-126.5 -85t-154.5 -31t-154 31t-126 85t-85 126t-31 154zM353 1104q0 -30 11.5 -56.5t31 -46t45.5 -31t56 -11.5t56.5 11.5t46 31t31 46t11.5 56.5
t-11 56.5t-30.5 46t-46 31t-57.5 11.5q-30 0 -56 -11.5t-45.5 -31t-31 -46t-11.5 -56.5z" />
    <glyph glyph-name="ordfeminine" unicode="&#xaa;" horiz-adv-x="1023" 
d="M885 772q-12 -6 -22 -6h-159q-31 0 -31 28v55q-31 -45 -78 -71t-120 -26q-78 0 -145.5 29t-118 79.5t-79.5 118t-29 145.5t29 145.5t79.5 118t118 79.5t145.5 29q81 0 131 -31t78 -86l18 77q0 29 31 29h130q12 0 22 -7q7 -6 7 -22v-662q0 -15 -7 -22zM328 1125
q0 -30 11 -56.5t30.5 -46t45.5 -31t57 -11.5q30 0 56.5 11.5t46 31t31 46t11.5 56.5v7q-2 29 -13.5 54t-31 44t-45 29.5t-55.5 10.5q-31 0 -57 -11t-45.5 -30.5t-30.5 -46t-11 -57.5z" />
    <glyph glyph-name="onequarter" unicode="&#xbc;" horiz-adv-x="1503" 
d="M951 1441q8 18 23.5 31t40.5 13h189q20 0 35 -8t15 -23q0 -11 -2 -13l-763 -1397q-12 -25 -21.5 -34.5t-31.5 -9.5h-211q-42 0 -42 26q0 -2 4 18zM94 1404q0 21 24 35l88 44q5 4 18 4h149q26 0 26 -24v-768q0 -24 -24 -24h-151q-24 0 -24 22v608l-75 -37q-2 -3 -7 -3
q-2 0 -2 -2q-11 0 -16.5 7.5t-5.5 19.5v118zM813 119q-28 0 -39 16t-11 35q0 10 3.5 18.5t8.5 16.5l361 618q11 17 19 21.5t19 4.5h101q19 0 30 -15.5t11 -29.5v-497h60q19 0 34 -9.5t15 -32.5v-102q0 -17 -15 -30.5t-34 -13.5h-60v-77q0 -22 -10 -32.5t-36 -10.5h-96
q-43 0 -43 43v77h-318zM1131 307v172l-98 -172h98z" />
    <glyph glyph-name="onehalf" unicode="&#xbd;" horiz-adv-x="1611" 
d="M959 1441q8 18 23.5 31t40.5 13h189q20 0 35 -8t15 -23q0 -11 -2 -13l-763 -1397q-12 -25 -21.5 -34.5t-31.5 -9.5h-211q-42 0 -42 26q0 -2 4 18zM80 1404q0 21 24 35l88 44q5 4 18 4h149q26 0 26 -24v-768q0 -24 -24 -24h-151q-24 0 -24 22v608l-75 -37q-2 -3 -7 -3
q-2 0 -2 -2q-11 0 -16.5 7.5t-5.5 19.5v118zM1231 179h250q45 0 45 -45v-90q0 -20 -12.5 -32.5t-32.5 -12.5h-493q-18 0 -33 12.5t-15 32.5v81q0 10 6 19q-1 -1 0 1l2 4l352 361h-1q21 23 27.5 37t6.5 33q0 18 -8 35t-22 30t-32.5 20.5t-39.5 7.5t-39.5 -8t-31.5 -22
t-20.5 -32t-7.5 -38v-45q0 -42 -44 -42h-98q-23 0 -33 14t-10 28v45q0 60 22.5 110.5t61.5 87t90.5 57t109.5 20.5q57 0 110.5 -19t94.5 -53.5t65.5 -83t24.5 -108.5q0 -64 -25 -113.5t-62 -83.5v1z" />
    <glyph glyph-name="threequarters" unicode="&#xbe;" horiz-adv-x="1533" 
d="M1043 1441q8 18 23.5 31t40.5 13h189q20 0 35 -8t15 -23q0 -11 -2 -13l-763 -1397q-12 -25 -21.5 -34.5t-31.5 -9.5h-211q-42 0 -42 26q0 -2 4 18zM877 103q-28 0 -39 16t-11 35q0 10 3.5 18.5t8.5 16.5l361 618q11 17 19 21.5t19 4.5h101q19 0 30 -15.5t11 -29.5v-497
h60q19 0 34 -9.5t15 -32.5v-102q0 -17 -15 -30.5t-34 -13.5h-60v-77q0 -22 -10 -32.5t-36 -10.5h-96q-43 0 -43 43v77h-318zM1195 291v172l-98 -172h98zM313 1020q-44 0 -44 35v104q0 44 44 44q19 0 31 6t19 15t10 20t3 21q0 11 -1.5 23t-7 22t-17 16.5t-30.5 6.5
q-17 0 -27 -6t-15.5 -16.5t-7.5 -23.5t-2 -28q0 -24 -10 -35t-36 -11h-92q-43 0 -43 43q0 67 19 114.5t51.5 77.5t75.5 43.5t92 13.5q48 0 91 -18.5t75.5 -50.5t51 -75t18.5 -92q0 -77 -42 -131q22 -17 39.5 -37t29.5 -45.5t18 -57t6 -71.5q0 -59 -20.5 -109.5t-58 -88.5
t-89.5 -59.5t-115 -21.5q-59 0 -110 12.5t-88.5 46t-59.5 93t-22 152.5q0 33 42 43h99q43 0 43 -43q0 -36 7.5 -59t20 -36.5t30 -19t38.5 -5.5q47 0 72.5 24.5t25.5 72.5q0 51 -25 71t-89 20z" />
    <glyph glyph-name="logicalnot" unicode="&#xac;" horiz-adv-x="1162" 
d="M97 748q0 44 44 44h878q44 0 44 -44v-482q0 -18 -11.5 -31t-32.5 -13h-154q-15 0 -32 12t-17 32v280h-675q-44 0 -44 48v154z" />
    <glyph glyph-name="divide" unicode="&#xf7;" horiz-adv-x="948" 
d="M804 798q18 0 31 -11.5t13 -32.5v-234q0 -18 -12 -32t-32 -14h-649q-47 0 -47 46v234q0 44 47 44h649zM304 1223q0 20 11 32t33 12h264q17 0 31.5 -12t14.5 -32v-242q0 -18 -11.5 -32t-34.5 -14h-264q-44 0 -44 46v242zM304 290q0 20 11 32t33 12h264q17 0 31.5 -12
t14.5 -32v-242q0 -18 -11.5 -32t-34.5 -14h-264q-44 0 -44 46v242z" />
    <glyph glyph-name="zerosuperior" unicode="&#x2070;" horiz-adv-x="988" 
d="M112 1098q0 84 32 158t87.5 129.5t129.5 87.5t158 32q85 0 159.5 -32t130 -87.5t87.5 -129.5t32 -158q0 -86 -32 -160t-87.5 -129t-130 -86.5t-159.5 -31.5q-84 0 -158 31.5t-129.5 86.5t-87.5 129t-32 160zM352 1098q0 -36 12.5 -67.5t35 -54.5t53 -36.5t66.5 -13.5
q34 0 65 13.5t54.5 36.5t37 54.5t13.5 67.5t-13.5 67.5t-37 55.5t-54.5 37.5t-65 13.5q-36 0 -66.5 -13.5t-53 -37.5t-35 -55.5t-12.5 -67.5z" />
    <glyph glyph-name="perthousand" unicode="&#x2030;" horiz-adv-x="2735" 
d="M42 1142q0 80 30 150t82 122.5t122.5 82.5t150.5 30t150 -30t122.5 -82.5t82.5 -122.5t30 -150t-30 -150.5t-82.5 -122.5t-122.5 -82t-150 -30t-150.5 30t-122.5 82t-82 122.5t-30 150.5zM1082 1441q8 18 23.5 31t40.5 13h217q20 0 35.5 -8t15.5 -23q0 -11 -2 -13
l-632 -1397q-11 -25 -21 -34.5t-32 -9.5h-239q-42 0 -42 26l2 4l3 14zM310 1142q0 -51 33 -84t84 -33q24 0 45.5 9t37 24.5t24.5 37t9 46.5t-9 46t-24.5 36.5t-37 24.5t-45.5 9q-26 0 -47 -8.5t-37 -24t-24.5 -37t-8.5 -46.5zM1073 365q0 80 30 150t82 122.5t122.5 82.5
t150.5 30t150 -30t122.5 -82.5t82.5 -122.5t30 -150t-30 -150.5t-82.5 -122.5t-122.5 -82t-150 -30t-150.5 30t-122.5 82t-82 122.5t-30 150.5zM1341 365q0 -51 33 -84t84 -33q24 0 45.5 9t37 24.5t24.5 37t9 46.5t-9 46t-24.5 36.5t-37 24.5t-45.5 9q-26 0 -47 -8.5
t-37 -24t-24.5 -37t-8.5 -46.5zM1914 365q0 80 30 150t82 122.5t122.5 82.5t150.5 30t150 -30t122.5 -82.5t82.5 -122.5t30 -150t-30 -150.5t-82.5 -122.5t-122.5 -82t-150 -30t-150.5 30t-122.5 82t-82 122.5t-30 150.5zM2182 365q0 -51 33 -84t84 -33q24 0 45.5 9t37 24.5
t24.5 37t9 46.5t-9 46t-24.5 36.5t-37 24.5t-45.5 9q-26 0 -47 -8.5t-37 -24t-24.5 -37t-8.5 -46.5z" />
    <glyph glyph-name="multiply" unicode="&#xd7;" horiz-adv-x="900" 
d="M101 503q-32 31 0 63l130 129l-137 136q-30 32 3 65l158 159q31 30 63 0l136 -137l129 130q13 13 30.5 14t32.5 -14l143 -144q10 -11 13 -31t-10 -34l-129 -129l137 -137q13 -13 14 -30t-14 -33l-159 -158q-11 -11 -31 -14t-34 11l-137 137l-129 -129q-32 -32 -65 3z" />
    <glyph glyph-name="currency" unicode="&#xa4;" horiz-adv-x="1078" 
d="M436 500q0 -45 29 -74t74 -29t74 29t29 74t-29 74t-74 29t-74 -29t-29 -74zM257 931q18 18 36 18q19 0 37 -18l84 -85q35 10 66.5 15.5t56.5 5.5q26 0 56.5 -5.5t65.5 -14.5l85 85q8 8 17 11.5t17 4.5q24 0 39 -18l150 -150q8 -9 13 -18t5 -22q0 -17 -17 -34l-84 -86
q9 -33 15 -62.5t6 -53.5q0 -29 -5 -60.5t-15 -67.5l84 -85q18 -20 18 -35q0 -11 -4 -20.5t-15 -16.5q-35 -35 -69 -69.5t-70 -69.5q-9 -10 -20 -18t-28 -8q-15 0 -26.5 7.5t-21.5 17.5l-74 72q-72 -20 -122 -20q-26 0 -57 5.5t-66 14.5l-85 -84q-16 -16 -35 -16
q-11 0 -20.5 3.5t-17.5 14.5l-11 10q-35 34 -69 69.5t-70 69.5q-9 8 -13 16.5t-4 20.5q0 21 16 37l11 12q18 17 36 35.5t37 37.5q-9 34 -15 64t-6 58q0 24 6 55t15 66q-13 13 -29.5 28.5t-32 32t-26 32t-11.5 27.5q1 11 4.5 21.5t12.5 19.5z" />
    <glyph glyph-name="copyright" unicode="&#xa9;" horiz-adv-x="1936" 
d="M961 1617q119 0 230.5 -31t208 -88t176.5 -137t137 -177t88.5 -209.5t31.5 -233.5q0 -119 -31 -230.5t-88 -208t-137 -176.5t-177.5 -137t-209.5 -88.5t-233 -31.5q-120 0 -231 31t-208 88t-177 137t-137 177.5t-88.5 209.5t-31.5 234q0 119 31 230t88 208t137 176.5
t177.5 136.5t209.5 88.5t234 31.5zM653 1269q-76 -45 -134.5 -105t-99 -129.5t-61.5 -147t-21 -157.5q0 -86 23 -164.5t64.5 -146.5t99 -122.5t126 -93.5t145.5 -60t158 -21t159 21.5t153 67.5q76 43 135 102.5t99.5 130.5t62 150t21.5 160q0 90 -24 170t-66.5 146.5
t-100 119.5t-125 90t-142 56.5t-149.5 19.5q-82 0 -163.5 -21t-159.5 -66zM1242 1144q7 -4 14.5 -9.5t12.5 -12.5t6 -15t-5 -18l-18 -32q-10 -18 -23.5 -45t-28 -52.5t-27.5 -43.5t-23 -18q-6 0 -10 2q-32 19 -73.5 27.5t-86.5 8.5q-44 0 -81 -15t-63.5 -42t-41.5 -64
t-15 -81q0 -45 14.5 -82t40.5 -63.5t61 -40.5t77 -14q30 0 49.5 1.5t35.5 5t32.5 9.5t41.5 16q21 8 26.5 5t12.5 -13l104 -170q8 -18 -3 -29t-22 -19q-63 -39 -132 -61.5t-147 -22.5q-99 0 -186.5 37.5t-152.5 102.5t-102.5 153t-37.5 189q0 100 38 188t104 153.5t154 103
t187 37.5q78 0 142.5 -20t127.5 -57q-1 0 -2 1z" />
    <glyph glyph-name="registered" unicode="&#xae;" horiz-adv-x="1928" 
d="M969 1617q119 0 230.5 -31t208 -88t176.5 -137t137 -177t88.5 -209.5t31.5 -233.5q0 -119 -31 -230.5t-88 -208t-137 -176.5t-177.5 -137t-209.5 -88.5t-233 -31.5q-120 0 -231 31t-208 88t-177 137t-137 177.5t-88.5 209.5t-31.5 234q0 119 31 230t88 208t137 176.5
t177.5 136.5t209.5 88.5t234 31.5zM639 1135q0 15 7.5 22t19.5 7h407q57 -2 106 -24.5t85.5 -60t57 -86.5t20.5 -104q0 -78 -36 -141t-99 -99l143 -301q0 -2 1.5 -3.5t1.5 -3.5q0 -20 -27 -20h-211q-15 0 -22 18l-125 275h-74v-269q0 -13 -7.5 -18.5t-19.5 -5.5h-201
q-11 0 -19 5.5t-8 18.5v790zM1089 891q0 13 -5.5 26.5t-15.5 24t-24 17.5t-30 7h-120v-150h120q33 0 54 21.5t21 53.5zM968 1350q-84 0 -162 -22t-146 -61.5t-123.5 -94.5t-95 -122.5t-61 -144.5t-21.5 -160q0 -85 22 -162.5t61.5 -145.5t95 -123.5t122.5 -95t144.5 -61
t160.5 -21.5q126 0 237 48t193.5 130.5t130.5 192.5t48 235q0 84 -22 162t-61.5 145.5t-95 123t-123 95t-144.5 61t-160 21.5z" />
    <glyph glyph-name="B" unicode="B" horiz-adv-x="1410" 
d="M160 1439q0 21 11.5 33.5t32.5 12.5h664q88 0 166 -33.5t136.5 -92t92.5 -137t34 -168.5q0 -75 -23.5 -139.5t-66.5 -115.5q72 -66 114 -157t42 -193q0 -91 -35 -172.5t-94.5 -143t-139 -97.5t-167.5 -36h-723q-20 0 -32 10.5t-12 32.5v1396zM966 464q0 30 -11.5 60
t-32 53.5t-49 38.5t-61.5 15h-264v-334h264q33 0 61 14t49 37.5t32.5 53.5t11.5 62zM913 1045q0 30 -11 56t-31 46t-48 31.5t-61 11.5h-214v-290h211q34 0 62.5 10.5t48.5 30t31.5 46t11.5 58.5z" />
    <glyph glyph-name="caron" unicode="&#x2c7;" horiz-adv-x="741" 
d="M397 1315q-7 -5 -11 -7t-11 -2q-8 0 -20 9l-257 256q-8 6 -8 23q0 8 9 19l88 90q11 11 27 11q13 0 22 -9l139 -142l142 143q11 11 23.5 8t20.5 -11l90 -87q5 -5 6.5 -10.5t2.5 -11.5q0 -8 -2.5 -13t-6.5 -9z" />
    <glyph glyph-name="G" unicode="G" horiz-adv-x="1502" 
d="M1098 1066q-51 36 -109 56t-124 20q-83 0 -152 -31.5t-118.5 -85.5t-77.5 -126.5t-28 -154.5t28 -154t77.5 -125.5t118.5 -84.5t152 -31q35 0 69.5 5t73.5 13v262q0 19 11 31.5t33 12.5h272q15 0 32 -12t17 -32v-484q0 -27 -29 -44q-47 -32 -104 -55t-119 -38
t-125.5 -22.5t-123.5 -7.5q-106 0 -203.5 27t-182.5 77t-154.5 119.5t-119.5 154t-77 182t-27 203.5t27 203.5t77 183t119.5 155.5t154.5 119.5t182.5 77t203.5 27.5q120 0 226.5 -33.5t200.5 -96.5q17 -10 26 -26.5t-4 -37.5l-162 -234q-13 -16 -26 -21.5t-35 8.5z" />
    <glyph glyph-name="quotesinglbase" unicode="&#x201a;" horiz-adv-x="574" 
d="M121 266q0 20 11 32t33 12h242q17 0 31.5 -12t14.5 -32v-216q0 -43 -3 -85q-6 -78 -49 -143.5t-121 -110.5q-1 -1 -7.5 -3t-14 -4t-14.5 -3.5t-9 -1.5q-8 0 -13 4t-11 10l-38 29q-17 12 -20 20.5t-3 16.5q0 11 13.5 25t30 33t30 43t13.5 55v44q0 18 -18 21h-57
q-20 0 -30.5 12t-10.5 32v222z" />
    <glyph glyph-name="quotedblbase" unicode="&#x201e;" horiz-adv-x="998" 
d="M124 266q0 20 11 32t33 12h242q17 0 31.5 -12t14.5 -32v-216q0 -43 -3 -85q-6 -78 -49 -143.5t-121 -110.5q-1 -1 -7.5 -3t-14 -4t-14.5 -3.5t-9 -1.5q-8 0 -13 4t-11 10l-38 29q-17 12 -20 20.5t-3 16.5q0 11 13.5 25t30 33t30 43t13.5 55v44q0 18 -18 21h-57
q-20 0 -30.5 12t-10.5 32v222zM560 266q0 20 11.5 32t32.5 12h242q17 0 31.5 -12t14.5 -32v-216q0 -43 -3 -85q-6 -78 -49 -143.5t-121 -110.5q-1 -1 -7.5 -3t-14 -4t-14.5 -3.5t-9 -1.5q-8 0 -13 4t-11 10l-38 29q-17 12 -20 20.5t-3 16.5q0 11 13.5 25t30 33t30 43
t13.5 55v44q0 18 -18 21h-57q-20 0 -30.5 12t-10.5 32v222z" />
    <glyph glyph-name="guilsinglleft" unicode="&#x2039;" horiz-adv-x="893" 
d="M561 1185q9 11 29 11q21 0 33 -13l144 -144q12 -14 14 -31q-1 -7 -3 -15t-9 -16l-344 -345l344 -346q12 -12 12 -30q0 -21 -15 -36l-147 -143q-6 -6 -13.5 -10t-15.5 -4q-18 0 -30 14l-523 525q-15 15 -15 29q0 16 15 31z" />
    <glyph glyph-name="germandbls" unicode="&#xdf;" horiz-adv-x="1199" 
d="M582 1187q-38 0 -61 -12.5t-35.5 -32t-16.5 -42t-4 -41.5v-1102q0 -45 -12 -88.5t-34 -82.5t-52 -72.5t-67 -58.5q-51 -33 -113 -47.5t-125 -14.5q-46 0 -46 43v200q0 40 37 40h8q54 0 74.5 31t20.5 88v1066q0 121 35.5 202t94.5 130.5t136 71.5t160 24h6q84 0 160.5 -30
t135 -83t93 -125t34.5 -157v-27q0 -72 -29 -127t-89 -103q34 -18 70 -43.5t67 -60.5t53 -82t27 -108q2 -40 4.5 -74.5t-1.5 -76.5q-11 -201 -137.5 -302t-379.5 -101q-44 0 -44 45v235q0 14 12 28.5t32 14.5h61q23 1 44 10t36.5 25t24.5 39t9 53v68q0 35 -17.5 61.5
t-43.5 44.5t-57.5 27t-59.5 9q-17 0 -30.5 10t-13.5 33q0 54 0.5 108.5t0.5 108.5q0 43 43 43q21 0 37 9t26.5 23t16 31.5t5.5 34.5v21q0 7 -4 26t-14.5 39t-29.5 35.5t-48 15.5z" />
    <glyph glyph-name="at.001" horiz-adv-x="1911" 
d="M1362 -114q13 6 20 6q13 0 24 -15l94 -139q5 -8 5 -13q0 -11 -6 -18.5t-14 -12.5q-112 -66 -232.5 -102t-255.5 -36q-132 1 -254.5 36t-229.5 98t-194.5 150.5t-150 194t-97 229t-34.5 254.5t34.5 255t97 231t150.5 196.5t195.5 152.5t231 99t257.5 35q109 -2 215 -29
t202 -75.5t177 -118t140.5 -156.5t93 -190t33.5 -219q0 -149 -26.5 -268.5t-79 -203.5t-131 -129t-183.5 -45h-141q-23 0 -42 10.5t-41 30.5q-20 14 -39.5 31.5t-33.5 40.5q-21 -24 -44 -48t-50.5 -43.5t-62.5 -32.5t-80 -14h-2q-108 0 -197 39.5t-152.5 107t-98.5 157
t-35 190.5t35.5 189.5t98.5 154.5t149.5 105.5t188.5 42.5q51 0 90.5 -12t70.5 -33.5t55 -50.5t44 -63l31 100q7 29 15.5 38t34.5 9h129q20 0 34.5 -12t14.5 -33v-600q0 -26 4.5 -40t13 -21t21.5 -8.5t30 -1.5q42 0 73 34.5t51.5 91t30.5 127.5t10 145q0 129 -50.5 235.5
t-137.5 183t-203 118.5t-247 42q-108 0 -207 -27.5t-196 -84.5q-175 -108 -266.5 -266t-91.5 -357q0 -103 27 -199t76 -179.5t117 -152t150.5 -117.5t176 -76t193.5 -27q54 0 100.5 6t90.5 19.5t88 34t92 49.5zM749 519q0 -40 14 -74t38 -59t57 -39.5t71 -14.5
q39 0 72.5 14.5t58 39.5t38 59t13.5 74q0 39 -13.5 73t-38 59.5t-58 40.5t-72.5 15q-38 0 -71 -15t-57 -40.5t-38 -59.5t-14 -73z" />
    <glyph glyph-name="O" unicode="O" horiz-adv-x="1705" 
d="M478 742q0 -83 28 -155t78.5 -125.5t119.5 -84t152 -30.5t152.5 30.5t120 84t78.5 125.5t28 155q0 82 -28 154.5t-78.5 126.5t-120 85t-152.5 31t-152 -31t-119.5 -85t-78.5 -126.5t-28 -154.5zM92 741q0 106 27 203.5t77 183t119.5 155.5t154.5 119.5t182.5 77
t203.5 27.5q105 0 203 -27.5t183 -77t155 -119.5t119.5 -155.5t77 -183t27.5 -203.5t-27.5 -203.5t-77 -182t-119.5 -154t-155 -119.5t-183 -77t-203 -27q-106 0 -203.5 27t-182.5 77t-154.5 119.5t-119.5 154t-77 182t-27 203.5z" />
    <glyph glyph-name="Q" unicode="Q" horiz-adv-x="1705" 
d="M92 741q0 106 27 203.5t77 183t119.5 155.5t154.5 119.5t182.5 77t203.5 27.5q105 0 203 -27.5t183 -77t155 -119.5t119.5 -155.5t77 -183t27.5 -203.5q0 -135 -43 -257t-119.5 -219.5t-182 -166t-230.5 -97.5v-271q0 -44 -48 -44h-295q-44 0 -44 44v273
q-124 30 -228 98.5t-179.5 165.5t-117.5 218t-42 256zM478 742q0 -83 28 -155t78.5 -125.5t119.5 -84t152 -30.5t152.5 30.5t120 84t78.5 125.5t28 155q0 82 -28 154.5t-78.5 126.5t-120 85t-152.5 31t-152 -31t-119.5 -85t-78.5 -126.5t-28 -154.5z" />
    <glyph glyph-name="a" unicode="a" horiz-adv-x="1547" 
d="M1427 74q0 -17 -6 -32.5t-20 -24.5q-11 -11 -26 -14t-26 -3h-197q-21 0 -34 5.5t-21 15.5t-13.5 24.5t-11.5 31.5l-29 75q-27 -27 -59 -57.5t-70.5 -56.5t-83.5 -43.5t-96 -17.5q-91 0 -174.5 23t-156 65.5t-131.5 102t-101.5 132.5t-65.5 157.5t-23 176.5
q0 139 51 258.5t139 208t207 139t255 50.5q62 0 114 -18.5t94.5 -48.5t77 -68t61.5 -77l39 121q10 25 16.5 40.5t14 23t18.5 10t31 2.5h149q11 0 26 -3t26 -14q14 -11 20 -25t6 -32v-1127zM442 634q0 -66 20.5 -123.5t58.5 -99.5t91.5 -66.5t118.5 -24.5q67 0 124.5 24.5
t100 66.5t66.5 99.5t24 123.5q0 64 -24 122t-66.5 102t-100 69.5t-124.5 25.5q-65 0 -118.5 -25.5t-91.5 -69.5t-58.5 -102t-20.5 -122z" />
    <glyph glyph-name="b" unicode="b" horiz-adv-x="1520" 
d="M475 77q-9 -19 -15 -33.5t-13.5 -24t-18.5 -14.5t-30 -5h-198q-80 0 -80 77v1494q0 17 6.5 31t17 24t24 15.5t26.5 5.5h227q38 0 60 -22t22 -54v-456q28 30 60 61t69.5 56.5t82.5 41.5t100 16q136 0 250.5 -50.5t197 -139t129 -208t46.5 -258.5q0 -138 -46.5 -258
t-129 -208.5t-197 -139.5t-250.5 -51q-51 0 -96 17.5t-84 44.5t-72 58t-60 58zM1078 634q0 64 -20.5 122t-58.5 102t-91 69.5t-119 25.5t-123.5 -25.5t-99.5 -69.5t-66.5 -102t-24.5 -122v-14q3 -63 28.5 -118t67.5 -95.5t98 -63.5t120 -23q66 0 119 24.5t91 66.5t58.5 99.5
t20.5 123.5z" />
    <glyph glyph-name="d" unicode="d" horiz-adv-x="1545" 
d="M1015 155q-27 -27 -59.5 -58t-71.5 -58t-84 -44.5t-97 -17.5q-136 0 -250.5 51t-197 139.5t-129 208.5t-46.5 258q0 139 46.5 258.5t129 208t197 139t250.5 50.5q55 0 100.5 -16t83 -41t69 -56.5t59.5 -61.5v457q0 32 19.5 54t58.5 22h225q13 0 27.5 -5.5t26.5 -15.5
t19.5 -24t7.5 -31v-1495q0 -77 -81 -77h-196q-20 0 -31 5t-18.5 14.5t-13.5 24t-15 33.5zM440 634q0 -66 20.5 -123.5t58.5 -99.5t91.5 -66.5t118.5 -24.5q64 0 120.5 23t98.5 63.5t67.5 95.5t28.5 118v14q0 64 -24 122t-66.5 102t-100 69.5t-124.5 25.5q-65 0 -118.5 -25.5
t-91.5 -69.5t-58.5 -102t-20.5 -122z" />
    <glyph glyph-name="e" unicode="e" horiz-adv-x="1416" 
d="M1184 152q-88 -81 -198 -126.5t-233 -45.5q-137 0 -259 50t-214 138.5t-146 208.5t-54 261q0 88 21.5 170.5t61 154.5t96 132.5t126.5 103.5t152 67t173 24q83 0 161 -22t146.5 -62t125.5 -96t98 -122.5t63.5 -142t22.5 -155.5q0 -52 -1.5 -85t-15.5 -52.5t-46.5 -27
t-95.5 -7.5h-720q10 -64 40.5 -107t70.5 -68.5t85 -36.5t85 -11q36 0 74 7.5t73.5 20t65 29t47.5 34.5q16 13 27.5 19.5t24.5 6.5t26.5 -9t30.5 -26l106 -120q11 -13 14 -23.5t3 -21.5q0 -20 -11 -34.5t-26 -25.5zM703 985q-39 0 -75.5 -15.5t-68.5 -41.5t-57.5 -59
t-41.5 -67h511q-21 39 -45.5 72t-56 58t-72 39t-94.5 14z" />
    <glyph glyph-name="f" unicode="f" horiz-adv-x="867" 
d="M241 1252q0 93 40 175t107 143.5t154 97t182 35.5h20q34 0 52.5 -20.5t18.5 -56.5v-191q0 -37 -19.5 -61.5t-51.5 -24.5h-20q-21 0 -40 -7.5t-34 -20.5t-24 -30.5t-9 -38.5v-115h157q34 0 52.5 -18.5t18.5 -58.5v-183q0 -43 -18.5 -63t-52.5 -20h-157v-717
q0 -38 -25.5 -57.5t-55.5 -19.5h-216q-36 0 -57.5 22.5t-21.5 54.5v717h-103q-35 0 -56.5 20t-21.5 63v183q0 40 21.5 58.5t56.5 18.5h103v115z" />
    <glyph glyph-name="g" unicode="g" horiz-adv-x="1537" 
d="M1040 44q11 34 10.5 77.5t-0.5 88.5q-29 -31 -59 -65.5t-66.5 -64t-82.5 -48.5t-107 -19q-135 0 -250 46t-199 128.5t-131 197.5t-47 253q0 137 47 256.5t131 208t199 139t250 50.5q62 0 111.5 -19t90 -49t74 -67.5t63.5 -74.5l38 119q6 17 11 31t13 23.5t20.5 14.5
t32.5 5h149q11 0 25.5 -3t25.5 -14q14 -11 21 -24t7 -33v-1018q0 -156 -51 -278t-139.5 -206t-209.5 -128t-260 -44q-54 0 -116 9.5t-123.5 28.5t-119 48.5t-101.5 68.5q-12 9 -21 21t-12.5 27t0 32.5t16.5 36.5l95 131q26 28 49 30t58 -24q25 -24 57.5 -38.5t67 -23t68 -11
t60.5 -2.5q45 0 94 12t91.5 35.5t75 57.5t44.5 78zM468 638q0 -67 20.5 -124.5t58.5 -99.5t91.5 -66t118.5 -24q64 0 120.5 22.5t98.5 62.5t67.5 94t28.5 117v33q-3 61 -28.5 115.5t-67.5 96t-98.5 66t-120.5 24.5q-65 0 -118.5 -25.5t-91.5 -68.5t-58.5 -101t-20.5 -122z
" />
    <glyph glyph-name="h" unicode="h" horiz-adv-x="1405" 
d="M504 1137q19 28 46 55.5t63.5 49t83 35t105.5 13.5q114 0 203.5 -44t152 -120t95 -177.5t32.5 -216.5v-655q0 -38 -16.5 -57.5t-52.5 -19.5h-231q-43 0 -59 14.5t-16 56.5v661q0 43 -16.5 80t-44.5 64.5t-65.5 43t-79.5 15.5q-36 0 -70.5 -14.5t-62 -41t-46 -63.5
t-21.5 -82v-660q0 -17 -6.5 -34t-19.5 -26q-13 -8 -24.5 -11t-26.5 -3h-226q-43 0 -62 21t-19 56v814v7v298v5v371q0 34 19 55t62 21h226q23 0 51 -16q13 -9 19.5 -26t6.5 -32v-437z" />
    <glyph glyph-name="i" unicode="i" horiz-adv-x="623" 
d="M119 1192q0 32 18 55t56 23h229q12 0 26 -5.5t26 -16t20.5 -24.5t8.5 -32v-1115q0 -38 -21 -57.5t-60 -19.5h-229q-74 0 -74 77v1115zM119 1698q0 42 18 59.5t56 17.5h232q35 0 56.5 -17.5t21.5 -59.5v-195q0 -12 -5.5 -26t-15.5 -27t-24.5 -21.5t-32.5 -8.5h-232
q-74 0 -74 83v195z" />
    <glyph glyph-name="j" unicode="j" horiz-adv-x="628" 
d="M125 1192q0 39 25 58.5t55 19.5h227q36 0 56 -23t20 -55v-1148q0 -93 -39 -175t-105 -143t-151.5 -96t-178.5 -35h-24q-36 2 -55 22.5t-19 49.5v143q0 36 22.5 58t54.5 22h21q20 0 37 16.5t29 40.5t18.5 50.5t6.5 46.5v1148zM120 1698q0 42 18 59.5t56 17.5h232
q35 0 56.5 -17.5t21.5 -59.5v-195q0 -12 -5.5 -26t-15.5 -27t-24.5 -21.5t-32.5 -8.5h-232q-74 0 -74 83v195z" />
    <glyph glyph-name="k" unicode="k" horiz-adv-x="1413" 
d="M120 1571q0 17 1 31t8.5 24t23.5 15.5t45 5.5h239q19 0 31.5 -6.5t20 -16.5t10 -21.5t2.5 -21.5v-740l360 400q26 29 62 29h307q55 0 55 -43q0 -11 -3.5 -18t-14.5 -20l-411 -434l517 -664h-2q13 -13 18.5 -26.5t5.5 -24.5q0 -23 -12.5 -31.5t-37.5 -8.5h-338
q-17 0 -32 13t-33 39l-327 463l-111 -115v-323q0 -8 -2.5 -21t-10 -25.5t-20.5 -21.5t-34 -9h-251q-18 0 -31 9.5t-20.5 21.5t-11 22.5t-3.5 12.5v1505z" />
    <glyph glyph-name="l" unicode="l" horiz-adv-x="620" 
d="M120 1571q0 32 16 54t55 22h245q10 0 21 -5.5t20.5 -15.5t16 -24t6.5 -31v-1494q0 -38 -21.5 -57.5t-55.5 -19.5h-232q-39 0 -55 19.5t-16 57.5v1494z" />
    <glyph glyph-name="m" unicode="m" horiz-adv-x="2131" 
d="M146 1253q13 11 27.5 14t27.5 3h151q18 0 31 -6.5t22 -17.5t14.5 -25t10.5 -29l31 -128q15 31 36.5 70.5t57 74t89 58t133.5 23.5q128 0 224 -54.5t158 -146.5q19 31 52 66.5t79 65.5t105.5 49.5t131.5 19.5q114 0 203.5 -44t152 -120t95 -177.5t32.5 -216.5v-655
q0 -38 -16.5 -57.5t-52.5 -19.5h-231q-43 0 -59 14.5t-16 56.5v661q0 43 -13.5 80t-37.5 64.5t-58.5 43t-76.5 15.5q-38 0 -72 -15t-60 -41.5t-41.5 -64t-15.5 -82.5v-655q0 -38 -16.5 -57.5t-52.5 -19.5h-21h-8h-202q-43 0 -59 14.5t-16 56.5v661q0 43 -12.5 80t-36 64.5
t-57 43t-75.5 15.5q-36 0 -70.5 -14.5t-62 -41t-46 -63.5t-21.5 -82v-660q0 -17 -6.5 -34t-19.5 -26q-13 -8 -24.5 -11t-26.5 -3h-226q-43 0 -62 21t-19 56v1119q0 19 8.5 35t23.5 25z" />
    <glyph glyph-name="n" unicode="n" horiz-adv-x="1445" 
d="M146 1253q13 11 27.5 14t27.5 3h151q18 0 31 -6.5t22 -17.5t14.5 -25t10.5 -29l31 -128q15 31 43.5 70.5t72.5 74t104.5 58t140.5 23.5q114 0 207 -44t158.5 -120t101.5 -177.5t36 -216.5v-655q0 -38 -16.5 -57.5t-52.5 -19.5h-231q-43 0 -59 14.5t-16 56.5v651
q0 43 -19.5 81.5t-51.5 68t-72.5 46.5t-82.5 17q-36 0 -73.5 -16t-69 -44.5t-53 -67t-24.5 -83.5v-650q0 -17 -6.5 -34t-19.5 -26q-13 -8 -24.5 -11t-26.5 -3h-226q-43 0 -62 21t-19 56v1119q0 19 8.5 35t23.5 25z" />
    <glyph glyph-name="o" unicode="o" horiz-adv-x="1473" 
d="M81 634q0 92 23.5 177t66 157.5t102 132t132.5 101.5t157.5 65t176.5 23q136 0 255.5 -50.5t208 -139t140 -208t51.5 -258.5q0 -92 -23.5 -176.5t-66 -157.5t-102 -132.5t-132.5 -102t-156.5 -65.5t-174.5 -23q-92 0 -176.5 23t-157.5 65.5t-132.5 102t-102 132.5
t-66 157.5t-23.5 176.5zM446 634q0 -66 20.5 -123.5t58 -99.5t91 -66.5t120.5 -24.5q65 0 117.5 24.5t89 66.5t56 99.5t19.5 123.5q0 64 -19.5 122t-56 102t-89 69.5t-117.5 25.5q-67 0 -120.5 -25.5t-91 -69.5t-58 -102t-20.5 -122z" />
    <glyph glyph-name="p" unicode="p" horiz-adv-x="1527" 
d="M146 1258q13 11 27 14t27 3h151q19 0 31.5 -6t20.5 -16.5t13.5 -24t10.5 -29.5l42 -121q28 36 56.5 73.5t67.5 68t93 50.5t132 20q137 0 252.5 -50.5t199 -139t130.5 -208t47 -258.5q0 -138 -47 -258t-130.5 -208.5t-199 -139.5t-252.5 -51q-65 0 -112 15.5t-83.5 40.5
t-64.5 55t-55 60v-466q0 -30 -18 -51t-56 -21h-229q-12 0 -26 5t-26 14t-20 22.5t-8 30.5v1519q0 20 7.5 33t18.5 24zM1080 634q0 64 -21 121.5t-59 100.5t-91 68t-117 25q-63 0 -119.5 -23.5t-99 -64t-69 -95.5t-29.5 -117v-15q0 -66 25 -124t68 -100.5t101 -67.5t123 -25
q64 0 117 25t91 67.5t59 100.5t21 124z" />
    <glyph glyph-name="q" unicode="q" horiz-adv-x="1527" 
d="M1381 1258q11 -11 18.5 -24t7.5 -33v-1516q0 -17 -8 -30.5t-20 -22.5t-26 -14t-26 -5h-229q-39 0 -56.5 21t-17.5 51v463q-27 -30 -59.5 -60t-71.5 -55t-85 -40.5t-99 -15.5q-137 0 -252.5 51t-199 139.5t-130.5 208.5t-47 258q0 139 47 258.5t130.5 208t199 139
t252.5 50.5q60 0 111.5 -20t95 -50.5t79 -68t63.5 -73.5l43 121q8 32 23 54t51 22h152q13 0 27 -3t27 -14zM445 634q0 -66 21.5 -124t59.5 -100.5t91.5 -67.5t117.5 -25q65 0 123 25t101 67.5t68 100.5t25 124v15q-3 62 -29.5 117t-69.5 95.5t-99 64t-119 23.5
q-64 0 -117.5 -25t-91.5 -68t-59.5 -100.5t-21.5 -121.5z" />
    <glyph glyph-name="r" unicode="r" horiz-adv-x="1151" 
d="M120 1196q0 17 7.5 32.5t18.5 24.5q26 17 54 17h151q19 0 30 -7t18.5 -18t13 -25t13.5 -28q2 -4 8 -19.5t13 -34t13.5 -35t8.5 -21.5q30 33 57.5 69.5t58.5 67.5t69 51t90 20q54 0 96.5 -8t80.5 -23.5t75.5 -39.5t81.5 -56q69 -37 26 -110l-91 -155q-20 -30 -49 -37
t-63 9q-43 42 -87.5 62.5t-101.5 20.5q-39 0 -68.5 -11t-53.5 -31t-45 -48t-42 -62v-724q0 -38 -18.5 -57.5t-61.5 -19.5h-225q-78 0 -78 77v1119z" />
    <glyph glyph-name="s" unicode="s" horiz-adv-x="1158" 
d="M310 395q27 -27 58.5 -45.5t60.5 -30t51 -16.5t30 -5q19 0 48.5 1.5t56.5 9t46.5 24.5t19.5 48q0 28 -11 44.5t-32 28t-51.5 20.5t-68.5 21q-120 32 -198 77t-123.5 100.5t-63.5 119.5t-18 135q0 83 33 151t94 116.5t146 75t189 26.5q63 0 118 -10.5t105 -33t97.5 -58
t94.5 -84.5q17 -20 17.5 -37.5t-22.5 -37.5q-39 -32 -74.5 -63t-73.5 -69q-12 -10 -24 -12.5t-23 0.5t-21 10t-18 17q-35 39 -80 52.5t-84 13.5q-49 0 -78 -17t-27 -52q2 -26 19.5 -40.5t43 -23.5t54 -14.5t52.5 -12.5q90 -29 165 -63t130 -83.5t85.5 -118.5t30.5 -168
t-39.5 -177t-108.5 -131t-163.5 -81t-203.5 -28q-62 0 -126 11t-124 35.5t-114 63t-96 93.5q-11 14 -16.5 29.5t-5 30.5t6 27.5t17.5 21.5l129 129q24 20 42.5 14t47.5 -34z" />
    <glyph glyph-name="t" unicode="t" horiz-adv-x="859" 
d="M197 1468q0 31 20.5 46.5t58.5 29.5l227 79q5 1 9.5 1h8.5q37 0 49.5 -21.5t12.5 -56.5l-1 -315h167q32 0 52 -19t20 -57v-193q0 -42 -20 -61.5t-52 -19.5h-167l1 -804q0 -38 -22 -57.5t-61 -19.5h-226q-77 0 -77 77l-1 804h-73q-77 0 -77 81v193q0 76 77 76h73z" />
    <glyph glyph-name="u" unicode="u" horiz-adv-x="1445" 
d="M1299 17q-13 -11 -27.5 -14t-27.5 -3h-151q-18 0 -31 6.5t-22 17.5t-15 25t-10 29l-31 128q-15 -31 -43.5 -70.5t-72.5 -74t-105 -58t-140 -23.5q-114 0 -207 44t-158.5 120t-101.5 177.5t-36 216.5v655q0 38 16.5 57.5t52.5 19.5h231q43 0 59 -14.5t16 -56.5v-651
q0 -43 19.5 -81.5t51.5 -68t72.5 -46.5t82.5 -17q36 0 74.5 17t71 45.5t53.5 67t21 81.5v650q0 17 6.5 34t19.5 26q13 8 24.5 11t26.5 3h226q43 0 62 -21t19 -56v-1119q0 -19 -8.5 -35t-23.5 -25z" />
    <glyph glyph-name="v" unicode="v" horiz-adv-x="1276" 
d="M35 1171q-20 41 -7.5 70t59.5 29h256q26 0 45.5 -14t27.5 -40q17 -53 37.5 -119t43 -135.5t44.5 -138t40.5 -126t33 -100t21.5 -60.5l212 679q13 32 29.5 43t46.5 11h263q29 0 44 -7t20 -19t2 -27.5t-10 -32.5l-476 -1141q-11 -18 -26 -30.5t-45 -12.5h-119
q-40 0 -56.5 11.5t-24.5 31.5z" />
    <glyph glyph-name="w" unicode="w" horiz-adv-x="1926" 
d="M40 1171q-20 41 -7.5 70t59.5 29h256q26 0 45.5 -14t27.5 -40q17 -53 37.5 -118.5t43 -133.5t44.5 -135t40.5 -123.5t33 -98.5t21.5 -60l212 669q13 32 29.5 43t46.5 11h237q29 0 44 -7t20 -19t2 -27.5t-10 -32.5l-110 -269q7 -17 27 -57.5t45.5 -92t52 -108t44.5 -105.5
l245 664q13 32 26.5 43t40.5 11h221q48 0 66 -18t2 -68l-469 -1141q-9 -18 -27.5 -30.5t-53.5 -12.5h-105q-39 0 -57 12.5t-29 32.5l-186 454l-183 -456q-11 -18 -26 -30.5t-45 -12.5h-119q-40 0 -56.5 11.5t-24.5 31.5z" />
    <glyph glyph-name="x" unicode="x" horiz-adv-x="1362" 
d="M43 38q-3 14 5 27.5t14 22.5l398 561l-377 536q-10 13 -17 28t-5.5 27.5t13 21t38.5 8.5h314q17 0 29.5 -14.5t28.5 -37.5l191 -309q19 27 44 68.5t51.5 86t51 86.5t42.5 71q17 26 31.5 37.5t34.5 11.5h317q12 0 22.5 -5t16.5 -14t5 -21t-13 -26l-391 -552l389 -544
q12 -17 20.5 -36t7.5 -35t-14.5 -26.5t-45.5 -10.5h-324q-45 0 -67 52l-178 320l-180 -324q-11 -22 -28 -35t-33 -13h-348q-14 0 -24 6t-17 22z" />
    <glyph glyph-name="y" unicode="y" horiz-adv-x="1419" 
d="M43 1174q-16 40 -0.5 68.5t68.5 28.5h247q25 0 41 -15.5t24 -38.5l283 -805l277 805q11 32 28 43t47 11h257q28 0 44 -7.5t22.5 -20t4.5 -28t-8 -30.5q-38 -94 -83 -205.5t-93.5 -232t-98.5 -245t-97.5 -244.5t-91.5 -230.5t-80.5 -203t-63.5 -162.5t-41 -108l3 5
q-7 -27 -25 -43.5t-44 -16.5h-231q-45 0 -61.5 17.5t-16.5 51.5q0 13 3.5 20t5.5 9l157 408z" />
    <glyph glyph-name="z" unicode="z" horiz-adv-x="1201" 
d="M108 1197q0 35 21.5 56.5t58.5 21.5h842q32 0 56.5 -19.5t24.5 -58.5v-174q0 -9 -1.5 -21t-10.5 -24l-551 -654h494q36 0 57.5 -19.5t21.5 -61.5v-157q0 -15 -5.5 -30.5t-16 -28t-25 -20t-32.5 -7.5h-882q-16 0 -30.5 7.5t-26 19.5t-18 27.5t-6.5 31.5v138q0 14 2.5 27
t14.5 27q67 74 140.5 160.5t148.5 175.5t149 176t141 162h-487q-37 0 -58.5 20t-21.5 63v162z" />
    <glyph glyph-name="c" unicode="c" horiz-adv-x="1235" 
d="M933 391q14 10 26.5 12.5t19.5 2.5q17 0 31 -7t29 -30l112 -169q5 -8 9.5 -18t4.5 -16q0 -23 -14.5 -37.5t-31.5 -25.5q-82 -57 -179.5 -91.5t-206.5 -34.5q-90 0 -173.5 23t-155.5 65.5t-132 102t-102 132.5t-65.5 157.5t-23.5 176.5t23.5 177t65.5 157.5t102 132
t132 101.5t155.5 65t173.5 23q109 0 201.5 -29t173.5 -86l-3 3q22 -13 35 -30.5t13 -43.5q0 -18 -12 -37l-89 -151q-28 -49 -68 -49q-9 0 -22 4.5t-29 15.5q-44 29 -94.5 47.5t-107.5 18.5q-63 0 -116 -25.5t-90.5 -69.5t-58.5 -102t-21 -122q0 -66 21 -123.5t58.5 -99.5
t90.5 -66.5t116 -24.5q57 0 107 20t95 51z" />
    <glyph glyph-name="wacute" unicode="&#x1e83;" horiz-adv-x="1926" 
d="M40 1171q-20 41 -7.5 70t59.5 29h256q26 0 45.5 -14t27.5 -40q17 -53 37.5 -118.5t43 -133.5t44.5 -135t40.5 -123.5t33 -98.5t21.5 -60l212 669q13 32 29.5 43t46.5 11h237q29 0 44 -7t20 -19t2 -27.5t-10 -32.5l-110 -269q7 -17 27 -57.5t45.5 -92t52 -108t44.5 -105.5
l245 664q13 32 26.5 43t40.5 11h221q48 0 66 -18t2 -68l-469 -1141q-9 -18 -27.5 -30.5t-53.5 -12.5h-105q-39 0 -57 12.5t-29 32.5l-186 454l-183 -456q-11 -18 -26 -30.5t-45 -12.5h-119q-40 0 -56.5 11.5t-24.5 31.5zM951 1670q5 23 20.5 32.5t32.5 9.5h258q15 0 22.5 -6
t10 -15t0.5 -20.5t-7 -22.5l-98 -215q-12 -22 -23.5 -32t-30.5 -10h-219q-15 0 -20.5 8t-5.5 19t3 24t5 22z" />
    <glyph glyph-name="wgrave" unicode="&#x1e81;" horiz-adv-x="1926" 
d="M40 1171q-20 41 -7.5 70t59.5 29h256q26 0 45.5 -14t27.5 -40q17 -53 37.5 -118.5t43 -133.5t44.5 -135t40.5 -123.5t33 -98.5t21.5 -60l212 669q13 32 29.5 43t46.5 11h237q29 0 44 -7t20 -19t2 -27.5t-10 -32.5l-110 -269q7 -17 27 -57.5t45.5 -92t52 -108t44.5 -105.5
l245 664q13 32 26.5 43t40.5 11h221q48 0 66 -18t2 -68l-469 -1141q-9 -18 -27.5 -30.5t-53.5 -12.5h-105q-39 0 -57 12.5t-29 32.5l-186 454l-183 -456q-11 -18 -26 -30.5t-45 -12.5h-119q-40 0 -56.5 11.5t-24.5 31.5zM1107 1464q2 -9 5 -22t3 -24t-5.5 -19t-20.5 -8h-219
q-19 0 -30.5 10t-23.5 32l-98 215q-5 11 -7 22.5t0.5 20.5t10 15t22.5 6h258q17 0 32.5 -9.5t20.5 -32.5z" />
    <glyph glyph-name="lslash" unicode="&#x142;" horiz-adv-x="620" 
d="M597 1034q11 5 22 0t18 -20l43 -106q5 -14 0.5 -26.5t-18.5 -17.5l-625 -229q-30 -10 -44 22l-43 106q-9 31 22 44zM125 1571q0 32 16 54t55 22h245q10 0 21 -5.5t20.5 -15.5t16 -24t6.5 -31v-1494q0 -38 -21.5 -57.5t-55.5 -19.5h-232q-39 0 -55 19.5t-16 57.5v1494z
" />
    <glyph glyph-name="kcommaaccent" unicode="&#x137;" horiz-adv-x="1413" 
d="M120 1571q0 17 1 31t8.5 24t23.5 15.5t45 5.5h239q19 0 31.5 -6.5t20 -16.5t10 -21.5t2.5 -21.5v-740l360 400q26 29 62 29h307q55 0 55 -43q0 -11 -3.5 -18t-14.5 -20l-411 -434l517 -664h-2q13 -13 18.5 -26.5t5.5 -24.5q0 -23 -12.5 -31.5t-37.5 -8.5h-338
q-17 0 -32 13t-33 39l-327 463l-111 -115v-323q0 -8 -2.5 -21t-10 -25.5t-20.5 -21.5t-34 -9h-251q-18 0 -31 9.5t-20.5 21.5t-11 22.5t-3.5 12.5v1505zM493 -230q0 20 11 32t33 12h264q17 0 32 -12t15 -32v-287q0 -94 -49 -177.5t-140 -134.5q-3 -3 -14 -3q-14 0 -22.5 3.5
t-13.5 10.5l-69 57q-11 8 -14.5 16.5t-3.5 16.5q0 13 13.5 26t30 29.5t30 38t13.5 51.5v44q0 19 -18 21h-57q-41 2 -41 44v244z" />
    <glyph glyph-name="kgreenlandic" unicode="&#x138;" horiz-adv-x="1413" 
d="M120 1202q0 17 1 31t8.5 24t23.5 15.5t45 5.5h239q19 0 31.5 -6.5t20 -16.5t10 -21.5t2.5 -21.5v-371l360 400q26 29 62 29h307q55 0 55 -43q0 -11 -3.5 -18t-14.5 -20l-411 -434l517 -664h-2q13 -13 18.5 -26.5t5.5 -24.5q0 -23 -12.5 -31.5t-37.5 -8.5h-338
q-17 0 -32 13t-33 39l-327 463l-111 -115v-323q0 -8 -2.5 -21t-10 -25.5t-20.5 -21.5t-34 -9h-251q-18 0 -31 9.5t-20.5 21.5t-11 22.5t-3.5 12.5v1136z" />
    <glyph glyph-name="Gdotaccent" unicode="&#x120;" horiz-adv-x="1502" 
d="M1098 1066q-51 36 -109 56t-124 20q-83 0 -152 -31.5t-118.5 -85.5t-77.5 -126.5t-28 -154.5t28 -154t77.5 -125.5t118.5 -84.5t152 -31q35 0 69.5 5t73.5 13v262q0 19 11 31.5t33 12.5h272q15 0 32 -12t17 -32v-484q0 -27 -29 -44q-47 -32 -104 -55t-119 -38
t-125.5 -22.5t-123.5 -7.5q-106 0 -203.5 27t-182.5 77t-154.5 119.5t-119.5 154t-77 182t-27 203.5t27 203.5t77 183t119.5 155.5t154.5 119.5t182.5 77t203.5 27.5q120 0 226.5 -33.5t200.5 -96.5q17 -10 26 -26.5t-4 -37.5l-162 -234q-13 -16 -26 -21.5t-35 8.5z
M715 1886q0 42 42 42h196q14 0 27.5 -11t13.5 -31v-189q0 -18 -11.5 -33.5t-29.5 -15.5h-196q-42 0 -42 49v189z" />
    <glyph glyph-name="cyrbreve" horiz-adv-x="0" 
 />
    <glyph glyph-name="hungarumlaut" unicode="&#x2dd;" horiz-adv-x="1031" 
d="M197 1660q19 42 53 42h212q17 0 24.5 -6t8.5 -15t-2.5 -20.5t-8.5 -22.5l-88 -205q-12 -22 -23.5 -32t-30.5 -10h-219q-26 0 -26 22q0 8 1 17t8 20zM649 1660q19 42 53 42h212q17 0 24.5 -6t8.5 -15t-2.5 -20.5t-8.5 -22.5l-88 -205q-12 -22 -23.5 -32t-30.5 -10h-219
q-26 0 -26 22q0 8 1 17t8 20z" />
    <glyph glyph-name="ring" unicode="&#x2da;" horiz-adv-x="767" 
d="M374 1782q43 0 81.5 -16.5t67.5 -45.5t45.5 -67.5t16.5 -81.5q0 -44 -16.5 -82t-45.5 -66.5t-67.5 -44.5t-81.5 -16q-44 0 -82 16t-66.5 44.5t-44.5 66.5t-16 82q0 43 16 81.5t44.5 67.5t66.5 45.5t82 16.5zM375 1632q-26 0 -42 -17t-16 -43t16 -42t42 -16t43 16t17 42
t-17 43t-43 17z" />
    <glyph glyph-name="OE" unicode="&#x152;" horiz-adv-x="2428" 
d="M82 745q0 106 27 203.5t77 183t119.5 155.5t154.5 119.5t182.5 77t203.5 27.5q105 0 200.5 -26.5t180.5 -75.5v34q0 21 11.5 33.5t32.5 12.5h993q22 0 34 -13t12 -35v-248q0 -17 -12 -32.5t-35 -15.5h-648v-247h500q19 0 31.5 -9t12.5 -30v-216q0 -14 -11 -27t-32 -13
h-501v-255h672q45 0 45 -46v-252q0 -10 -8 -18q-4 -28 -41 -28h-1012q-20 0 -32 10.5t-12 32.5v36q-85 -49 -180.5 -75t-200.5 -26q-106 0 -203.5 27t-182.5 77t-154.5 119.5t-119.5 154t-77 182t-27 203.5zM468 746q0 -83 28 -155t78.5 -125.5t119.5 -84t152 -30.5
t152.5 30.5t120 84t78.5 125.5t28 155q0 82 -28 154.5t-78.5 126.5t-120 85t-152.5 31t-152 -31t-119.5 -85t-78.5 -126.5t-28 -154.5z" />
    <glyph glyph-name="Hbar" unicode="&#x126;" horiz-adv-x="1602" 
d="M165 1441q1 17 12.5 30.5t30.5 13.5h297q15 0 31 -12.5t16 -31.5v-207h497v207q0 18 12.5 31t32.5 13h293q20 0 35 -10t15 -32v-1399q0 -22 -13 -33t-34 -11h-296q-20 0 -32.5 11t-12.5 33v498h-497v-498q0 -21 -13.5 -32.5t-36.5 -11.5h-294q-42 0 -43 39v1402z
M1049 837v130h-497v-130h497z" />
    <glyph glyph-name="AE" unicode="&#xc6;" horiz-adv-x="2180" 
d="M840 1446q8 13 25.5 26t37.5 13h1097q23 0 34.5 -13t11.5 -35v-248q0 -17 -12 -32.5t-35 -15.5h-707l47 -252h271.5t271.5 1q19 0 31.5 -10t12.5 -30v-216q0 -14 -11 -27t-32 -13h-494l46 -250h604q24 0 34.5 -11.5t10.5 -34.5v-252q0 -20 -14 -33t-34 -13h-885
q-41 0 -48 37q-9 51 -17.5 101.5t-16.5 101.5h-520l-114 -203q-22 -37 -59 -37h-315q-32 0 -32 21q0 6 5 19q121 216 322.5 567t483.5 839zM727 561h296l-70 398z" />
    <glyph glyph-name="Eth" unicode="&#xd0;" horiz-adv-x="1547" 
d="M1454 741q0 -106 -27 -201.5t-77 -178t-119.5 -149.5t-154 -114t-182.5 -72.5t-203 -25.5h-493q-18 0 -32 8t-14 34v1397q0 21 11.5 34t34.5 13h493q105 0 202.5 -26t182 -74t154.5 -115t119.5 -150t77 -179t27.5 -201zM539 1127v-769h84q23 0 45 1.5t44 3.5
q75 6 140 36.5t113.5 80t76 116.5t27.5 146q0 84 -31.5 154.5t-85.5 122t-126.5 80t-154.5 28.5h-132zM41.3096 839.581q0 39.6729 38.2852 39.6729h593.42q15.6621 0 26.9736 -10.3691t11.3115 -29.3037v-183.04q0 -13.5254 -10.4414 -28.4023
q-10.4414 -14.8779 -27.8438 -14.8779h-593.42q-38.2852 0 -38.2852 43.2803v183.04z" />
    <glyph glyph-name="exclam" unicode="!" horiz-adv-x="681" 
d="M163 1602q0 44 49 44h260q44 0 44 -44v-1078q0 -19 -11 -31.5t-33 -12.5h-260q-15 0 -32 12t-17 32v1078zM163 287q0 20 11.5 32t32.5 12h264q17 0 31.5 -12t14.5 -32v-242q0 -18 -12 -32t-34 -14h-264q-44 0 -44 46v242z" />
    <glyph glyph-name="quotedbl" unicode="&#x22;" horiz-adv-x="760" 
d="M95 1442q0 44 44 44h149q44 0 44 -44v-390q0 -44 -44 -44h-149q-44 0 -44 44v390zM425 1442q0 44 44 44h149q44 0 44 -44v-390q0 -44 -44 -44h-149q-44 0 -44 44v390z" />
    <glyph glyph-name="numbersign" unicode="#" horiz-adv-x="1261" 
d="M1113 1131q18 0 31 -11.5t13 -32.5v-181q0 -7 -3 -15.5t-9 -15.5t-14 -12t-18 -5h-143v-233h143q18 0 31 -11.5t13 -32.5v-181q0 -7 -3 -15.5t-9 -15.5t-14 -12t-18 -5h-143v-308q0 -44 -48 -44h-181q-44 0 -44 44v308h-145v-308q0 -44 -48 -44h-181q-44 0 -44 44v308
h-123q-44 0 -44 48v181q0 44 44 44h123v233h-123q-44 0 -44 48v181q0 44 44 44h123v310q0 18 11.5 31t32.5 13h181q15 0 31.5 -12t16.5 -32v-310h145v310q0 18 11.5 31t32.5 13h181q15 0 31.5 -12t16.5 -32v-310h143zM552 625h145v233h-145v-233z" />
    <glyph glyph-name="dollar" unicode="$" horiz-adv-x="1287" 
d="M338 479q17 -14 43.5 -37.5t60.5 -46.5q51 -34 101 -53t105 -19q51 0 85.5 11.5t54.5 30.5t28.5 44t8.5 53q0 31 -23.5 55.5t-57.5 43.5t-71 32.5t-64 22.5q-120 42 -210 90.5t-150 108t-90 131t-30 159.5q0 77 26 142t74 116t117.5 86.5t156.5 52.5v139q0 18 11 31
t33 13h188q15 0 31.5 -12t16.5 -32v-134q56 -10 109.5 -28.5t106.5 -47.5q34 -20 64.5 -41.5t53.5 -41.5t36.5 -38t13.5 -31t-6.5 -24t-19.5 -25l-153 -163q-17 -17 -34 -17q-14 0 -25.5 8t-25.5 20l-9 8q-20 17 -44.5 35t-52.5 32.5t-59 24t-63 9.5q-33 0 -62 -5.5
t-51 -17.5t-35 -31.5t-13 -47.5t14 -48.5t42 -38t69.5 -33t96.5 -33.5q106 -35 195.5 -73.5t154.5 -91t101.5 -125.5t36.5 -177q0 -94 -33 -172.5t-92 -139.5t-139.5 -101.5t-176.5 -57.5v-143q0 -44 -48 -44h-188q-44 0 -44 44v146q-79 17 -153 52t-140 83q-40 29 -67.5 57
t-43.5 45l-3 3q-1 2 -2 2.5t-2 1.5q-1 2 -2 2.5t-2 1.5q-23 25 -23 40q0 17 23 38l173 165q21 15 34 15q9 0 19 -6t24 -18z" />
    <glyph glyph-name="ampersand" unicode="&#x26;" horiz-adv-x="1795" 
d="M1303 719q3 -1 12 -1q29 0 54 16t37 45q8 6 11.5 15.5t3.5 17.5q5 18 14.5 28.5t23.5 10.5q7 0 9 -1l223 -44q14 0 25.5 -16t11.5 -31q0 -8 -1 -11q-13 -78 -49 -141.5t-88 -108.5t-117 -70t-135 -25q-32 0 -65 6l-66 12q-7 -94 -33.5 -163t-68 -118t-95 -79.5
t-114 -47.5t-125.5 -23.5t-129 -6.5q-108 0 -205.5 35t-171 98t-116.5 149.5t-43 189.5q0 75 14.5 132.5t41.5 103t64.5 81.5t83.5 68q-46 48 -75.5 114t-29.5 144q0 86 35.5 160t94.5 128.5t136 85.5t160 31t160 -22t136 -71t94 -127.5t35 -192.5q0 -23 -13.5 -35
t-31.5 -12q-51 0 -102.5 -0.5t-102.5 -0.5q-43 0 -43 38q0 25 -5.5 45.5t-18.5 35.5t-34.5 23.5t-53.5 8.5q-36 0 -58.5 -12.5t-35 -31t-17 -40t-4.5 -39.5q0 -10 5.5 -31t18 -43.5t33.5 -41.5t52 -25q35 -6 35 -40q0 -8 -1 -11l-39 -188q-2 -19 -13.5 -26.5t-24.5 -7.5
q-8 0 -15 1t-14 1q-32 0 -52.5 -17t-32.5 -40t-16.5 -47.5t-4.5 -40.5q0 -30 8.5 -65.5t30.5 -66t60.5 -51t97.5 -20.5q39 0 75 11.5t64 34t45.5 55.5t19.5 77l-59 12q-14 3 -22.5 14.5t-8.5 25.5q0 8 1 10q10 55 21 109t22 111q3 16 13.5 25t24.5 9q7 0 9 -1z" />
    <glyph glyph-name="quotesingle" unicode="'" horiz-adv-x="611" 
d="M147 1441q0 44 44 44h196q44 0 44 -44v-387q0 -44 -44 -44h-196q-44 0 -44 44v387z" />
    <glyph glyph-name="parenleft" unicode="(" horiz-adv-x="805" 
d="M407 -253q-138 218 -211 467.5t-73 524.5t73 524.5t211 467.5q10 17 26 20t31 -9l238 -148q16 -11 18 -27t-8 -29q-115 -183 -171 -382.5t-56 -416.5q0 -219 55 -417q59 -201 172 -381q10 -14 8 -30t-18 -27l-238 -148q-15 -11 -31 -8.5t-26 19.5z" />
    <glyph glyph-name="parenright" unicode=")" horiz-adv-x="807" 
d="M391 -253q-10 -17 -26 -19.5t-31 8.5l-238 148q-16 11 -18 27t8 30q113 180 172 381q55 198 55 417q0 217 -56 416.5t-171 382.5q-10 13 -8 29t18 27l238 148q15 12 31 9t26 -20q138 -218 211 -467.5t73 -524.5t-73 -524.5t-211 -467.5z" />
    <glyph glyph-name="asterisk" unicode="*" horiz-adv-x="983" 
d="M199 831q-3 4 -5 11t-2 12q3 25 27 42l160 92q9 6 24 6q8 0 18 -6t18 -19l54 -141l54 141q8 23 37 23q11 0 23 -4l159 -95q24 -12 24 -45q-3 -5 -3 -17l-109 -123l162 32q17 0 31 -12t14 -33v-184q0 -16 -12.5 -32.5t-32.5 -16.5l-162 31l109 -123q2 -5 4.5 -11.5
t2.5 -14.5q0 -24 -23 -37l-160 -92q-7 -7 -24 -7q-30 0 -40 22l-54 140l-54 -140q-5 -11 -15.5 -16.5t-21.5 -5.5q-15 0 -28 7l-159 94q-24 13 -24 35q0 8 1.5 14.5t6.5 11.5l107 123l-160 -31q-45 0 -45 49v184q0 21 11 33t34 12l160 -32z" />
    <glyph glyph-name="plus" unicode="+" horiz-adv-x="900" 
d="M62 706q0 44 44 44h183v193q0 44 48 44h224q44 0 44 -44v-193h183q18 0 31 -11.5t13 -32.5v-203q0 -15 -12 -31.5t-32 -16.5h-183v-194q0 -18 -11 -31t-33 -13h-224q-15 0 -31.5 12t-16.5 32v194h-183q-44 0 -44 48v203z" />
    <glyph glyph-name="comma" unicode="," horiz-adv-x="611" 
d="M136 288q0 20 11 32t33 12h264q17 0 32 -12t15 -32v-287q0 -94 -49 -177.5t-140 -134.5q-3 -3 -14 -3q-14 0 -22.5 3.5t-13.5 10.5l-69 57q-11 8 -14.5 16.5t-3.5 16.5q0 13 13.5 26t30 29.5t30 38t13.5 51.5v44q0 19 -18 21h-57q-41 2 -41 44v244z" />
    <glyph glyph-name="hyphen" unicode="-" horiz-adv-x="1100" 
d="M167 706q0 44 44 44h682q18 0 31 -11.5t13 -32.5v-203q0 -15 -12 -31.5t-32 -16.5h-682q-44 0 -44 48v203z" />
    <glyph glyph-name="period" unicode="." horiz-adv-x="611" 
d="M136 288q0 20 11 32t33 12h264q17 0 31.5 -12t14.5 -32v-242q0 -18 -11.5 -32t-34.5 -14h-264q-44 0 -44 46v242z" />
    <glyph glyph-name="slash" unicode="/" horiz-adv-x="1104" 
d="M664 1441q8 18 23.5 31t40.5 13h277q20 0 35.5 -8t15.5 -23q0 -11 -2 -13l-632 -1397q-11 -25 -21 -34.5t-31 -9.5h-300q-41 0 -41 26q0 2 1 4l3 14z" />
    <glyph glyph-name="zero" unicode="0" horiz-adv-x="1728" 
d="M480 742q0 -84 29.5 -156.5t81.5 -126.5t122.5 -85t153.5 -31q82 0 153.5 31t123.5 85t82 126.5t30 156.5q0 83 -30 156.5t-82 128t-123.5 86t-153.5 31.5q-83 0 -153.5 -31.5t-122.5 -86t-81.5 -128t-29.5 -156.5zM102 741q0 105 27 203t77 183t119.5 155t154.5 119.5
t182.5 77t203.5 27.5q105 0 203 -27.5t183 -77t154.5 -119.5t119 -155t77 -183t27.5 -203q0 -106 -27.5 -203.5t-77 -182t-119 -154t-154.5 -119.5t-183 -77t-203 -27q-106 0 -203.5 27t-182.5 77t-154.5 119.5t-119.5 154t-77 182t-27 203.5z" />
    <glyph glyph-name="one" unicode="1" horiz-adv-x="751" 
d="M55 1333q0 38 44 62l136 67q26 17 51 20t64 3h226q20 0 34 -12t14 -32v-1397q0 -44 -47 -44h-284q-25 0 -34.5 13.5t-9.5 28.5v1102l-137 -68q-5 -2 -10 -1.5t-7 -3.5q-19 0 -29.5 14t-10.5 33v215z" />
    <glyph glyph-name="two" unicode="2" horiz-adv-x="1291" 
d="M655 329h450q20 0 33 -11t13 -34v-233q0 -19 -13.5 -35t-33.5 -16h-921q-19 0 -35 15.5t-16 35.5v149q0 14 7 27l607 725q27 31 34 53t7 49q0 34 -13 60t-34 43.5t-47 26.5t-53 9q-30 0 -56.5 -12t-46.5 -32.5t-32 -47t-12 -54.5v-55q0 -16 -13 -32t-37 -16h-256
q-25 0 -34.5 13.5t-9.5 28.5v52q0 105 39 192.5t106 150.5t156 98t190 35q103 0 197 -32.5t165.5 -92t114 -144t42.5 -189.5q0 -54 -13 -101.5t-34.5 -89.5t-49 -78.5t-57.5 -69.5z" />
    <glyph glyph-name="seven" unicode="7" horiz-adv-x="1312" 
d="M1241 1486q28 0 41.5 -17t13.5 -39q0 -26 -18 -51l-712 -1345q-8 -16 -23 -25t-32 -9h-356q-36 0 -36 26q0 10 4 18l567 1088h-541q-20 0 -33.5 11t-13.5 35v262q0 20 14 33t33 13h1092z" />
    <glyph glyph-name="eight" unicode="8" horiz-adv-x="1240" 
d="M516 1077q0 -45 30.5 -75.5t75.5 -30.5q22 0 41.5 8t34 22.5t23 33.5t8.5 42q0 22 -8.5 41t-23 33.5t-34 23t-41.5 8.5q-23 0 -42 -8.5t-33.5 -23t-22.5 -33.5t-8 -41zM450 492q0 -36 12.5 -68t35.5 -56t54 -37.5t69 -13.5q36 0 66 13.5t52 37.5t34 56t12 69
q0 36 -11.5 68.5t-32.5 57t-51.5 39t-68.5 14.5q-39 0 -70.5 -14.5t-54 -39.5t-34.5 -57.5t-12 -68.5zM86 488q0 58 14 110.5t38.5 98.5t59 85t76.5 71q-34 49 -55 112t-21 126q0 84 33.5 158.5t91 131t134 89.5t163.5 33q85 0 162.5 -33t135.5 -89.5t92.5 -131t34.5 -158.5
q0 -63 -22 -126.5t-59 -111.5q88 -69 137 -161.5t49 -207.5q0 -107 -38.5 -198.5t-108.5 -159t-167.5 -106t-215.5 -38.5q-119 0 -217 38t-168.5 105.5t-109.5 160t-39 202.5z" />
    <glyph glyph-name="nine" unicode="9" horiz-adv-x="1247" 
d="M1142 1057q2 -17 3.5 -33t1.5 -32q-1 -66 -16.5 -128.5t-47.5 -119.5l-394 -700q-11 -21 -26 -32.5t-40 -11.5h-284q-39 0 -39 22q0 4 2 14t4 12q35 61 62 108t48 84.5t38 68.5t33.5 60t33.5 59.5t38 66.5q-97 10 -181 53t-146 110t-97.5 154t-35.5 185q0 106 41 198.5
t112 161t166.5 108t204.5 39.5q101 0 190.5 -32.5t159 -92t114 -141.5t55.5 -181zM792 1000q0 40 -12 74t-34 59t-53.5 39t-70.5 14t-70 -14t-53 -39t-34 -59t-12 -74q0 -39 12 -73t34 -59.5t53 -40.5t70 -15t70.5 15t53.5 40.5t34 59.5t12 73z" />
    <glyph glyph-name="colon" unicode=":" horiz-adv-x="611" 
d="M136 1083q0 20 11 32t33 12h264q17 0 31.5 -12t14.5 -32v-242q0 -18 -11.5 -32t-34.5 -14h-264q-44 0 -44 46v242zM136 288q0 20 11 32t33 12h264q17 0 31.5 -12t14.5 -32v-242q0 -18 -11.5 -32t-34.5 -14h-264q-44 0 -44 46v242z" />
    <glyph glyph-name="semicolon" unicode=";" horiz-adv-x="611" 
d="M130 288q0 20 11 32t33 12h264q17 0 32 -12t15 -32v-287q0 -94 -49 -177.5t-140 -134.5q-3 -3 -14 -3q-14 0 -22.5 3.5t-13.5 10.5l-69 57q-11 8 -14.5 16.5t-3.5 16.5q0 13 13.5 26t30 29.5t30 38t13.5 51.5v44q0 19 -18 21h-57q-41 2 -41 44v244zM136 1083q0 20 11 32
t33 12h264q17 0 31.5 -12t14.5 -32v-242q0 -18 -11.5 -32t-34.5 -14h-264q-44 0 -44 46v242z" />
    <glyph glyph-name="less" unicode="&#x3c;" horiz-adv-x="891" 
d="M594 1188q11 11 30 11q20 0 33 -13l160 -160q7 -7 10 -15t5 -16q-2 -7 -4.5 -15t-8.5 -16l-327 -329l327 -329q13 -17 13 -31q0 -19 -16 -35l-164 -160q-12 -14 -28 -14q-17 0 -31 14l-523 525q-15 15 -15 29q0 16 15 31z" />
    <glyph glyph-name="equal" unicode="=" horiz-adv-x="1100" 
d="M167 493q0 44 44 44h682q18 0 31 -11.5t13 -32.5v-203q0 -15 -12 -31.5t-32 -16.5h-682q-44 0 -44 48v203zM167 911q0 44 44 44h682q18 0 31 -11.5t13 -32.5v-203q0 -15 -12 -31.5t-32 -16.5h-682q-44 0 -44 48v203z" />
    <glyph glyph-name="greater" unicode="&#x3e;" horiz-adv-x="891" 
d="M229 1166q11 11 23 21t32 10q14 0 26 -11t23 -21l502 -501q15 -15 15 -31q0 -14 -15 -29l-523 -525q-14 -14 -31 -14t-28 14l-164 160q-17 17 -17 35q0 15 13 31l328 329l-328 329q-11 17 -12 31q1 17 15 31z" />
    <glyph glyph-name="question" unicode="?" horiz-adv-x="1137" 
d="M739 655q0 -39 -2.5 -62t-10 -34.5t-22 -14.5t-38.5 -3h-234q-22 0 -34 15t-12 34q0 53 1.5 87t4.5 56t8 36t13 27q28 45 63 78t71 60t70 51t61 51.5t43 62t16 81.5q0 32 -14 62t-37.5 53t-55 36.5t-65.5 13.5t-65 -14t-55 -38t-38 -55t-14 -64v-23q0 -17 -12 -24.5
t-30 -9.5t-38.5 -1t-36.5 1h-173q-25 0 -34.5 13.5t-9.5 27.5v33q0 105 41.5 192.5t111 150.5t161 98t191.5 35q103 0 194 -37t159.5 -102.5t108 -155t39.5 -194.5q0 -95 -24 -158.5t-60.5 -106.5t-78.5 -71.5t-78.5 -55t-60.5 -56.5t-24 -75zM388 288q0 20 11 32t33 12h264
q17 0 31.5 -12t14.5 -32v-242q0 -18 -11.5 -32t-34.5 -14h-264q-44 0 -44 46v242z" />
    <glyph glyph-name="percent" unicode="%" horiz-adv-x="1863" 
d="M46 1142q0 80 30 150t82 122.5t122.5 82.5t150.5 30t150 -30t122.5 -82.5t82.5 -122.5t30 -150t-30 -150.5t-82.5 -122.5t-122.5 -82t-150 -30t-150.5 30t-122.5 82t-82 122.5t-30 150.5zM1086 1441q8 18 23.5 31t40.5 13h217q20 0 35.5 -8t15.5 -23q0 -11 -2 -13
l-632 -1397q-11 -25 -21 -34.5t-32 -9.5h-239q-42 0 -42 26l2 4l3 14zM314 1142q0 -51 33 -84t84 -33q24 0 45.5 9t37 24.5t24.5 37t9 46.5t-9 46t-24.5 36.5t-37 24.5t-45.5 9q-26 0 -47 -8.5t-37 -24t-24.5 -37t-8.5 -46.5zM1046 365q0 80 30 150t82 122.5t122.5 82.5
t150.5 30t150 -30t122.5 -82.5t82.5 -122.5t30 -150t-30 -150.5t-82.5 -122.5t-122.5 -82t-150 -30t-150.5 30t-122.5 82t-82 122.5t-30 150.5zM1314 365q0 -51 33 -84t84 -33q24 0 45.5 9t37 24.5t24.5 37t9 46.5t-9 46t-24.5 36.5t-37 24.5t-45.5 9q-26 0 -47 -8.5
t-37 -24t-24.5 -37t-8.5 -46.5z" />
    <glyph glyph-name="section" unicode="&#xa7;" horiz-adv-x="1088" 
d="M763 1209q-24 23 -52 40.5t-55 29t-51.5 17t-41.5 5.5q-30 0 -61.5 -8.5t-58 -25t-43 -42t-16.5 -58.5q0 -26 19 -42t51 -28t75 -23.5t91 -28.5h-1q89 -26 153 -57t105 -69t60.5 -84t19.5 -102q0 -139 -106 -221q48 -36 77 -85t29 -121q0 -79 -33 -144.5t-90.5 -113
t-135.5 -73.5t-167 -26q-176 0 -307 101q-27 21 -48 42.5t-35.5 40.5t-22 34t-7.5 23q0 19 18 40t42.5 38t50 28.5t40.5 11.5q12 0 19 -2.5t14 -8.5t16.5 -16t25.5 -25q24 -23 51.5 -40t54 -28t50.5 -16.5t42 -5.5q30 0 62.5 8.5t58.5 25t43 41.5t17 58q0 21 -14.5 37
t-40 28.5t-60.5 23.5t-75 23h1l-46 12q-89 28 -153 58.5t-105.5 67.5t-61.5 82t-20 102q0 72 24.5 124.5t78.5 94.5q-48 38 -75.5 88t-27.5 119q0 79 33 145t90.5 113t135.5 73t167 26q88 0 163.5 -23.5t144.5 -75.5q26 -20 46.5 -42t34.5 -41.5t21.5 -34.5t7.5 -22
q0 -33 -33 -58l-72 -49q-11 -4 -19.5 -8t-20.5 -4q-13 0 -20.5 2t-14 7t-16 15t-26.5 27zM531 834q-38 0 -65.5 -8.5t-45.5 -22.5t-27 -31t-9 -35q0 -7 4.5 -22t22 -31t52.5 -30.5t97 -20.5h7q37 0 64.5 8.5t44.5 22.5t25.5 31t8.5 35q0 11 -0.5 22t-5.5 19q-9 14 -27 25.5
t-41 20t-50.5 13t-54.5 4.5z" />
    <glyph glyph-name="macron" unicode="&#xaf;" horiz-adv-x="1015" 
d="M78 1665q0 35 35 35h779q15 0 25 -8.5t10 -26.5v-154q0 -12 -9 -26t-26 -14h-779q-35 0 -35 40v154z" />
    <glyph glyph-name="eth" unicode="&#xf0;" horiz-adv-x="1267" 
d="M658 1199q-29 12 -58 12.5t-56.5 -6t-53.5 -17.5t-48 -21l-1 2q-20 -5 -26 -5q-13 0 -20 7t-12 21l-81 144q-9 16 -9.5 25.5t3 15t7.5 8t4 4.5q0 14 7.5 22t25.5 12q21 16 54.5 28.5t71 21t75 13t66.5 4.5q25 0 58.5 -2.5t66 -8t60 -15t42.5 -22.5q17 -17 35.5 -29.5
t36.5 -20.5l103 81q11 11 23.5 11t20.5 -13l81 -114q10 -10 9.5 -24t-11.5 -25l-98 -77q54 -112 78 -262.5t24 -343.5q0 -17 -0.5 -34t-0.5 -34q-3 -138 -42 -245.5t-107.5 -180.5t-163 -111t-209.5 -38q-107 0 -200.5 38.5t-163 105.5t-109.5 157.5t-40 194.5t40.5 194.5
t110 157t163 105t200.5 38.5q29 0 59 -7.5t58.5 -20t54 -29t45.5 -33.5q-1 16 -4.5 36t-9 41t-11.5 41.5t-13 38.5l-50 -40q-14 -10 -26.5 -7t-22.5 16l-83 112q-19 24 6 46zM821 475q0 45 -16 85t-44.5 69.5t-66.5 46.5t-83 17t-83.5 -17t-67 -46.5t-45 -69.5t-16.5 -85
t16.5 -84.5t45 -69t67 -46t83.5 -16.5t83 16.5t66.5 46t44.5 69t16 84.5z" />
    <glyph glyph-name="foursuperior" unicode="&#x2074;" horiz-adv-x="746" 
d="M85 759q-28 0 -39 16t-11 35q0 10 3.5 18.5t8.5 16.5l361 618q11 17 19 21.5t19 4.5h101q19 0 30 -15.5t11 -29.5v-497h60q19 0 34 -9.5t15 -32.5v-102q0 -17 -15 -30.5t-34 -13.5h-60v-77q0 -22 -10 -32.5t-36 -10.5h-96q-43 0 -43 43v77h-318zM403 947v172l-98 -172h98
z" />
    <glyph glyph-name="paragraph" unicode="&#xb6;" horiz-adv-x="1527" 
d="M1343 1483q18 0 28.5 -7.5t15.5 -18t6.5 -22.5t1.5 -20v-97q0 -24 -4 -37.5t-11 -20.5t-17.5 -9t-22.5 -2h-140v-1177q0 -36 -6 -67q-15 -2 -31.5 -3.5t-34.5 -1.5h-101q-17 0 -33.5 1.5t-31.5 3.5q-3 16 -4 32.5t-1 34.5v1177h-216v-1177q0 -18 -1 -34.5t-4 -32.5
q-15 -2 -32 -3.5t-34 -1.5h-101q-17 0 -33.5 1.5t-31.5 3.5q-3 15 -4 31t-1 34v601q-86 0 -163 31.5t-134.5 86t-91 128.5t-33.5 158t32 158.5t87 130t128.5 87.5t157.5 32h861z" />
    <glyph glyph-name="scedilla" unicode="&#x15f;" horiz-adv-x="1158" 
d="M310 395q27 -27 58.5 -45.5t60.5 -30t51 -16.5t30 -5q19 0 48.5 1.5t56.5 9t46.5 24.5t19.5 48q0 28 -11 44.5t-32 28t-51.5 20.5t-68.5 21q-120 32 -198 77t-123.5 100.5t-63.5 119.5t-18 135q0 83 33 151t94 116.5t146 75t189 26.5q63 0 118 -10.5t105 -33t97.5 -58
t94.5 -84.5q17 -20 17.5 -37.5t-22.5 -37.5q-39 -32 -74.5 -63t-73.5 -69q-12 -10 -24 -12.5t-23 0.5t-21 10t-18 17q-35 39 -80 52.5t-84 13.5q-49 0 -78 -17t-27 -52q2 -26 19.5 -40.5t43 -23.5t54 -14.5t52.5 -12.5q90 -29 165 -63t130 -83.5t85.5 -118.5t30.5 -168
t-39.5 -177t-108.5 -131t-163.5 -81t-203.5 -28q-62 0 -126 11t-124 35.5t-114 63t-96 93.5q-11 14 -16.5 29.5t-5 30.5t6 27.5t17.5 21.5l129 129q24 20 42.5 14t47.5 -34zM690 10q-22 -15 -22 -35q0 -16 15.5 -29.5t38 -28t49.5 -31t49.5 -38t38 -49t15.5 -64.5
q0 -36 -24.5 -77t-69 -81t-106.5 -74.5t-138 -57.5h-5q-15 0 -33 22t-34 50t-27 54.5t-11 35.5q0 16 11 22q171 43 171 106q0 22 -15 39t-37.5 32.5t-48.5 31t-48.5 33.5t-37.5 40t-15 51q0 11 3 22.5t17 25.5h264z" />
    <glyph glyph-name="thorn" unicode="&#xfe;" horiz-adv-x="1546" 
d="M120 1441q0 18 11 31t33 13h245q17 0 32 -12t15 -32v-464h291q67 0 127.5 -19t112 -52.5t92.5 -79t70 -99.5t44.5 -114t15.5 -122q0 -91 -34 -177t-94.5 -153t-144 -108.5t-183.5 -42.5h-297v-354q0 -44 -46 -44h-246q-44 0 -44 44v1785zM888 493q0 39 -14 76.5t-39.5 67
t-61.5 47t-80 17.5h-237v-416q49 1 97 1h96h46q42 0 77.5 17t61 45.5t40 66t14.5 78.5z" />
    <glyph glyph-name="Thorn" unicode="&#xde;" horiz-adv-x="1319" 
d="M146 1441q0 18 11 31t33 13h245q17 0 32 -12t15 -32v-206h291q67 0 127.5 -19t112 -52.5t92.5 -79t70 -99.5t44.5 -114t15.5 -122q0 -91 -34 -177t-94.5 -153t-144 -108.5t-183.5 -42.5h-297v-224q0 -44 -46 -44h-246q-44 0 -44 44v1397zM914 751q0 39 -14 76.5t-39.5 67
t-61.5 47t-80 17.5h-237v-416q49 1 97 1h96h46q42 0 77.5 17t61 45.5t40 66t14.5 78.5z" />
    <glyph glyph-name="hyphen.cap" horiz-adv-x="1100" 
d="M167 686q0 44 44 44h682q18 0 31 -11.5t13 -32.5v-203q0 -15 -12 -31.5t-32 -16.5h-682q-44 0 -44 48v203z" />
    <glyph glyph-name="lessequal" unicode="&#x2264;" horiz-adv-x="822" 
d="M572 393q-128 128 -251.5 252.5t-250.5 252.5q-14 14 -14 29q0 16 15 31l489 488q8 8 20 16t24 8q19 0 32 -13l94 -93q15 -16 32 -35t17 -36q0 -15 -9 -27t-20 -25q-78 -78 -156.5 -156t-156.5 -157l313 -314l26 -29l5 -17v-5q0 -8 -5 -17.5t-13 -19.5t-17.5 -20
t-17.5 -18l-96 -95q-12 -12 -27 -12q-8 0 -17.5 3t-15.5 9zM705 235q18 0 31 -11.5t13 -32.5v-142q0 -17 -12 -32t-32 -15h-612q-45 0 -45 47v142q0 44 45 44h612z" />
    <glyph glyph-name="greaterequal" unicode="&#x2265;" horiz-adv-x="787" 
d="M257 393q-6 -6 -15.5 -9t-17.5 -3q-15 0 -27 12l-96 95q-8 8 -17.5 18t-17.5 20t-13 19.5t-5 17.5v5l5 17l26 29l313 314q-78 79 -156.5 157t-156.5 156q-11 13 -20 25t-9 27q0 17 17 36t32 35l94 93q13 13 32 13q12 0 24 -8t20 -16l489 -488q15 -15 15 -31
q0 -15 -14 -29q-127 -128 -250.5 -252.5t-251.5 -252.5zM736 235q45 0 45 -44v-142q0 -47 -45 -47h-612q-20 0 -32 15t-12 32v142q0 21 13 32.5t31 11.5h612z" />
    <glyph glyph-name="Iota" unicode="&#x399;" 
d="M165 1441q0 18 11 31t33 13h294q15 0 32 -12t17 -32v-1397q0 -44 -49 -44h-294q-44 0 -44 44v1397z" />
    <glyph glyph-name="summation" unicode="&#x2211;" horiz-adv-x="1223" 
d="M516 278h602q20 0 33 -11t13 -36v-183q0 -18 -13 -33t-33 -15h-1005q-20 0 -34.5 14t-14.5 34v128q0 12 7 27l462 538l-462 541q-7 15 -7 27v128q0 20 14.5 34t34.5 14h983q20 0 33 -15t13 -33v-180q0 -25 -13 -34.5t-33 -12.5h-584l404 -469z" />
    <glyph glyph-name="uni2215" unicode="&#x2215;" horiz-adv-x="1137" 
d="M790 1441q8 18 23.5 31t40.5 13h189q20 0 35 -8t15 -23q0 -11 -2 -13l-763 -1397q-12 -25 -21.5 -34.5t-31.5 -9.5h-211q-42 0 -42 26q0 -2 4 18z" />
    <glyph glyph-name="radical" unicode="&#x221a;" horiz-adv-x="1375" 
d="M433 883q39 0 53 -37q5 -16 15.5 -53t24.5 -86t30.5 -106.5t32 -115t29.5 -111t24 -94.5q12 31 32 89t44.5 134t53 165t58 181.5t58.5 183.5t54.5 170.5t47 143t35.5 101.5q14 37 53 37h195q47 0 47 -35q0 -4 -1 -8t-2 -9l-2 -10l-572 -1672q-2 -5 -4.5 -11.5t-8 -12
t-15 -9.5t-25.5 -4h-111q-15 0 -24.5 4t-15 9.5t-8 12t-4.5 11.5l-269 869h-144q-46 0 -46 46v173q0 44 46 44h319z" />
    <glyph glyph-name="infinity" unicode="&#x221e;" horiz-adv-x="1291" 
d="M103 524q0 61 27.5 116t72 96t101.5 65t116 24q54 0 88 -11t58 -27.5t42 -36.5t39 -37q22 17 41.5 37t43.5 36.5t57.5 27.5t83.5 11q60 0 117.5 -24t101.5 -65t71 -96t27 -116q0 -62 -27 -117t-71 -96t-101.5 -65t-117.5 -24q-53 0 -86.5 11t-57 28t-42 37.5t-40.5 38.5
q-21 -18 -38 -38.5t-40 -37.5t-57.5 -28t-91.5 -11q-59 0 -116 24t-101.5 65t-72 96t-27.5 117zM284 524q0 -29 10.5 -53.5t29.5 -42.5t44 -28.5t54 -10.5t54.5 10.5t44 28.5t29.5 42.5t11 53.5q0 28 -11 52.5t-29.5 43t-44 29.5t-54.5 11t-54 -11t-44 -29.5t-29.5 -43
t-10.5 -52.5zM733 524q0 -29 10.5 -53.5t29.5 -42.5t44 -28.5t54 -10.5t54.5 10.5t44 28.5t29.5 42.5t11 53.5q0 28 -11 52.5t-29.5 43t-44 29.5t-54.5 11t-54 -11t-44 -29.5t-29.5 -43t-10.5 -52.5z" />
    <glyph glyph-name="Pi" unicode="&#x3a0;" horiz-adv-x="1440" 
d="M913 1131h-369v-1089q0 -42 -47 -42h-303q-44 0 -44 42v1397q0 46 44 46h1066q17 0 32 -12t15 -32v-1397q0 -44 -47 -44h-303q-44 0 -44 44v1087z" />
    <glyph glyph-name="Omicrontonos" unicode="&#x38c;" horiz-adv-x="1791" 
d="M542 742q0 -83 28 -155t78.5 -125.5t119.5 -84t152 -30.5t152.5 30.5t120 84t78.5 125.5t28 155q0 82 -28 154.5t-78.5 126.5t-120 85t-152.5 31t-152 -31t-119.5 -85t-78.5 -126.5t-28 -154.5zM156 741q0 106 27 203.5t77 183t119.5 155.5t154.5 119.5t182.5 77
t203.5 27.5q105 0 203 -27.5t183 -77t155 -119.5t119.5 -155.5t77 -183t27.5 -203.5t-27.5 -203.5t-77 -182t-119.5 -154t-155 -119.5t-183 -77t-203 -27q-106 0 -203.5 27t-182.5 77t-154.5 119.5t-119.5 154t-77 182t-27 203.5zM32 1115q-20 2 -33 12.5t-13 31.5l-33 295
q-2 15 8 25t27 10h221q18 0 29.5 -11.5t7.5 -30.5l-30 -288q-2 -17 -14.5 -30.5t-29.5 -13.5h-140v0z" />
    <glyph glyph-name="Omicron" unicode="&#x39f;" horiz-adv-x="1705" 
d="M478 742q0 -83 28 -155t78.5 -125.5t119.5 -84t152 -30.5t152.5 30.5t120 84t78.5 125.5t28 155q0 82 -28 154.5t-78.5 126.5t-120 85t-152.5 31t-152 -31t-119.5 -85t-78.5 -126.5t-28 -154.5zM92 741q0 106 27 203.5t77 183t119.5 155.5t154.5 119.5t182.5 77
t203.5 27.5q105 0 203 -27.5t183 -77t155 -119.5t119.5 -155.5t77 -183t27.5 -203.5t-27.5 -203.5t-77 -182t-119.5 -154t-155 -119.5t-183 -77t-203 -27q-106 0 -203.5 27t-182.5 77t-154.5 119.5t-119.5 154t-77 182t-27 203.5z" />
    <glyph glyph-name="Xi" unicode="&#x39e;" horiz-adv-x="1335" 
d="M1177 1485q44 0 44 -44v-263q0 -47 -46 -47h-1026q-46 0 -46 47v263q0 44 44 44h1030zM147 0q-44 0 -44 44v263q0 47 46 47h1026q46 0 46 -47v-263q0 -44 -44 -44h-1030zM294 859q0 25 13 35.5t31 10.5h648q18 0 31 -10.5t13 -35.5v-233q0 -25 -13 -35.5t-31 -10.5h-648
q-18 0 -31 10.5t-13 35.5v233z" />
    <glyph glyph-name="Nu" unicode="&#x39d;" horiz-adv-x="1639" 
d="M165 1441q0 18 11 31t33 13h327q14 0 29 -7t26 -24q127 -205 252 -404t253 -404v801q4 18 16 28t28 10h285q21 0 35 -11.5t14 -32.5v-1402q0 -20 -12 -29.5t-33 -9.5h-319q-13 0 -23 9t-21 24q-133 220 -263 435t-264 435v-859q0 -22 -10 -33t-36 -11h-284
q-23 0 -33.5 12.5t-10.5 30.5v1398z" />
    <glyph glyph-name="Mu" unicode="&#x39c;" horiz-adv-x="1844" 
d="M218 1441q2 18 14 31t34 13h346q37 0 48 -38l272 -908l274 908q14 38 51 38h342q18 0 32.5 -12.5t16.5 -31.5q35 -352 71.5 -698.5t71.5 -698.5v-5q0 -39 -44 -39h-283q-46 0 -48 44l-87 773l-225 -778q-2 -10 -14.5 -24t-24.5 -14h-263q-12 0 -25.5 13.5t-14.5 24.5
l-225 776l-87 -771q-2 -44 -49 -44h-283q-43 0 -43 44z" />
    <glyph glyph-name="Lambda" unicode="&#x39b;" horiz-adv-x="1531" 
d="M921.035 1464q10.999 -17.999 19.498 -36.9971q8.5 -18.999 16.499 -38.998l512.969 -1342.92q0 -5 1.5 -8.99902q1.5 -4 1.5 -8q0 -27.998 -36.998 -27.998h-321.979q-37.998 0 -51.9971 37.9971l-304.981 909.945q-40.998 -113.993 -78.4951 -227.486
q-37.498 -113.493 -73.9961 -227.486q-36.4971 -113.993 -73.9951 -227.486t-78.4951 -227.486q-13.999 -37.9971 -54.9971 -37.9971h-314.98q-22.998 0 -32.498 8.49902q-9.49902 8.5 -9.49902 22.499q0 7.99902 1 10.999v3l515.968 1342.92q5 13.999 12 30.998
q6.99902 16.999 15.999 31.498q8.99902 14.499 20.998 24.499q12 9.99902 26.999 9.99902h246.984q30.998 0 40.998 -20.999z" />
    <glyph glyph-name="Kappa" unicode="&#x39a;" horiz-adv-x="1529" 
d="M159 1441q0 18 11.5 31t32.5 13h296q15 0 31.5 -12t16.5 -32v-545q109 140 214 276t213 276q11 17 28.5 27.5t34.5 10.5h380q24 0 24 -15q0 -10 -11 -24l-471 -621l521 -784q11 -17 11 -27q0 -15 -22 -15h-378q-17 0 -33.5 10t-27.5 27q-53 72 -96.5 138t-84.5 131.5
t-83 132.5t-92 141l-127 -146v-390q0 -44 -48 -44h-295q-45 0 -45 44v1397z" />
    <glyph glyph-name="Iotadieresis" unicode="&#x3aa;" 
d="M165 1441q0 18 11 31t33 13h294q15 0 32 -12t17 -32v-1397q0 -44 -49 -44h-294q-44 0 -44 44v1397zM-19 2192q0 42 42 42h196q14 0 27.5 -11t13.5 -31v-189q0 -18 -11.5 -33.5t-29.5 -15.5h-196q-42 0 -42 49v189zM417 2192q0 42 44 42h193q42 0 42 -42v-189
q0 -18 -11 -33.5t-31 -15.5h-193q-44 0 -44 49v189z" />
    <glyph glyph-name="Theta" unicode="&#x398;" horiz-adv-x="1718" 
d="M458 878q-46 0 -46 -44v-184q0 -48 46 -48h819q20 0 32 15t12 33v184q0 21 -13 32.5t-31 11.5h-819zM478 742q0 82 28 154.5t78.5 126.5t119.5 85t152 31t152.5 -31t120 -85t78.5 -126.5t28 -154.5q0 -83 -28 -155t-78.5 -125.5t-120 -84t-152.5 -30.5t-152 30.5
t-119.5 84t-78.5 125.5t-28 155zM92 741q0 106 27 203.5t77 183t119.5 155.5t154.5 119.5t182.5 77t203.5 27.5q105 0 203 -27.5t183 -77t155 -119.5t119.5 -155.5t77 -183t27.5 -203.5t-27.5 -203.5t-77 -182t-119.5 -154t-155 -119.5t-183 -77t-203 -27q-106 0 -203.5 27
t-182.5 77t-154.5 119.5t-119.5 154t-77 182t-27 203.5z" />
    <glyph glyph-name="Etatonos" unicode="&#x389;" horiz-adv-x="1785" 
d="M348 1441q1 17 12.5 30.5t30.5 13.5h297q15 0 31 -12.5t16 -31.5v-474h497v474q0 18 12.5 31t32.5 13h293q20 0 35 -10t15 -32v-1399q0 -22 -13 -33t-34 -11h-296q-20 0 -32.5 11t-12.5 33v568h-497v-568q0 -21 -13.5 -32.5t-36.5 -11.5h-294q-42 0 -43 39v1402zM49 1115
q-20 2 -33 12.5t-13 31.5l-33 295q-2 15 8 25t27 10h221q18 0 29.5 -11.5t7.5 -30.5l-30 -288q-2 -17 -14.5 -30.5t-29.5 -13.5h-140v0z" />
    <glyph glyph-name="Eta" unicode="&#x397;" horiz-adv-x="1602" 
d="M165 1441q1 17 12.5 30.5t30.5 13.5h297q15 0 31 -12.5t16 -31.5v-474h497v474q0 18 12.5 31t32.5 13h293q20 0 35 -10t15 -32v-1399q0 -22 -13 -33t-34 -11h-296q-20 0 -32.5 11t-12.5 33v568h-497v-568q0 -21 -13.5 -32.5t-36.5 -11.5h-294q-42 0 -43 39v1402z" />
    <glyph glyph-name="Zeta" unicode="&#x396;" horiz-adv-x="1452" 
d="M108 1441q0 20 12.5 32t34.5 12h1161q19 0 32.5 -11t13.5 -33v-202q0 -8 -0.5 -15t-5.5 -18l-724 -863h687q19 0 32 -11t13 -34v-249q0 -17 -12.5 -33t-32.5 -16h-1161q-20 0 -33.5 13t-13.5 36v215q0 16 7 26l722 851h-685q-22 0 -34.5 11.5t-12.5 37.5v251z" />
    <glyph glyph-name="Epsilontonos" unicode="&#x388;" horiz-adv-x="1603" 
d="M411 1439q0 21 11.5 33.5t32.5 12.5h993q22 0 34 -13t12 -35v-248q0 -17 -12 -32.5t-35 -15.5h-648v-247h500q19 0 31.5 -9t12.5 -30v-216q0 -14 -11 -27t-32 -13h-501v-255h672q45 0 45 -46v-252q0 -10 -8 -18q-4 -28 -41 -28h-1012q-20 0 -32 10.5t-12 32.5v1396z
M86 1113q-20 2 -33 12.5t-13 31.5l-33 295q-2 15 8 25t27 10h221q18 0 29.5 -11.5t7.5 -30.5l-30 -288q-2 -17 -14.5 -30.5t-29.5 -13.5h-140v0z" />
    <glyph glyph-name="Epsilon" unicode="&#x395;" horiz-adv-x="1350" 
d="M161 1439q0 21 11.5 33.5t32.5 12.5h993q22 0 34 -13t12 -35v-248q0 -17 -12 -32.5t-35 -15.5h-648v-247h500q19 0 31.5 -9t12.5 -30v-216q0 -14 -11 -27t-32 -13h-501v-255h672q45 0 45 -46v-252q0 -10 -8 -18q-4 -28 -41 -28h-1012q-20 0 -32 10.5t-12 32.5v1396z" />
    <glyph glyph-name="Delta" unicode="&#x394;" horiz-adv-x="1531" 
d="M592 1464q10 21 41 21h247q15 0 27 -10t21 -24.5t16 -31.5t12 -31l516 -1343v-3q1 -3 1 -11q0 -14 -9.5 -22.5t-32.5 -8.5h-1354q-37 0 -37 28q0 4 1.5 8t1.5 9l513 1343q8 20 16.5 39t19.5 37zM530 313h450q-57 171 -110 337.5t-114 337.5z" />
    <glyph glyph-name="Gamma" unicode="&#x393;" horiz-adv-x="1179" 
d="M126 44.0879q0 -17.999 12 -30.998t33 -12.999h296q17 0 31 11.999t15 31.998v1087.93h550q18 0 31 11.999q13 12 13 32.998v262.984q0 16.999 -11.5 30.998t-32.5 14.999h-893q-44 0 -44 -43.9971v-1397.92z" />
    <glyph glyph-name="Beta" unicode="&#x392;" horiz-adv-x="1410" 
d="M160 1439q0 21 11.5 33.5t32.5 12.5h664q88 0 166 -33.5t136.5 -92t92.5 -137t34 -168.5q0 -75 -23.5 -139.5t-66.5 -115.5q72 -66 114 -157t42 -193q0 -91 -35 -172.5t-94.5 -143t-139 -97.5t-167.5 -36h-723q-20 0 -32 10.5t-12 32.5v1396zM966 464q0 30 -11.5 60
t-32 53.5t-49 38.5t-61.5 15h-264v-334h264q33 0 61 14t49 37.5t32.5 53.5t11.5 62zM913 1045q0 30 -11 56t-31 46t-48 31.5t-61 11.5h-214v-290h211q34 0 62.5 10.5t48.5 30t31.5 46t11.5 58.5z" />
    <glyph glyph-name="Alphatonos" unicode="&#x386;" horiz-adv-x="1533" 
d="M586 1446q1 6 6.5 13t13.5 13t17 9.5t17 3.5h256q17 0 29 -10.5t18 -18.5l25 -57l525 -1354q8 -20 -3 -32.5t-38 -12.5h-287q-23 0 -35.5 8.5t-19.5 28.5q-20 51 -39 101.5t-38 101.5h-531q-19 -51 -38.5 -101.5t-38.5 -101.5q-13 -37 -51 -37h-295q-19 0 -31.5 10
t-4.5 30zM768 1018q-19 -51 -38.5 -110t-38.5 -119t-38.5 -118.5t-38.5 -109.5h307zM171 1115q-20 2 -33 12.5t-13 31.5l-33 295q-2 15 8 25t27 10h221q18 0 29.5 -11.5t7.5 -30.5l-30 -288q-2 -17 -14.5 -30.5t-29.5 -13.5h-140v0z" />
    <glyph glyph-name="Alpha" unicode="&#x391;" horiz-adv-x="1531" 
d="M586 1446q1 6 6.5 13t13.5 13t17 9.5t17 3.5h256q17 0 29 -10.5t18 -18.5l25 -57l525 -1354q8 -20 -3 -32.5t-38 -12.5h-287q-23 0 -35.5 8.5t-19.5 28.5q-20 51 -39 101.5t-38 101.5h-531q-19 -51 -38.5 -101.5t-38.5 -101.5q-13 -37 -51 -37h-295q-19 0 -31.5 10
t-4.5 30zM768 1018q-19 -51 -38.5 -110t-38.5 -119t-38.5 -118.5t-38.5 -109.5h307z" />
    <glyph glyph-name="anoteleia" unicode="&#x387;" horiz-adv-x="455" 
 />
    <glyph glyph-name="dieresistonos" unicode="&#x385;" horiz-adv-x="860" 
 />
    <glyph glyph-name="tonos" unicode="&#x384;" horiz-adv-x="517" 
d="M193 1113q-20 2 -33 12.5t-13 31.5l-33 295q-2 15 8 25t27 10h221q18 0 29.5 -11.5t7.5 -30.5l-30 -288q-2 -17 -14.5 -30.5t-29.5 -13.5h-140v0z" />
    <glyph glyph-name="litre" unicode="&#x2113;" horiz-adv-x="843" 
d="M759 984q0 -48 -12.5 -89t-39.5 -84t-69 -93.5t-101 -117.5l-89 -105q-29 -34 -38 -58t-9 -44q0 -60 11 -95t45 -41h5q43 0 69.5 -23t26.5 -65v-102q0 -79 -97 -88q-68 7 -131 35t-111.5 73.5t-77.5 108.5t-29 140v585q0 89 20 160.5t61 122t104 77.5t150 27
q72 0 130 -26.5t98.5 -71.5t62 -103.5t21.5 -122.5zM474 988q0 20 -9.5 33t-25.5 18q-42 -9 -42 -64v-123l3 2q21 24 35 41.5t23 32.5t12.5 29t3.5 31z" />
    <glyph glyph-name="uni037E" unicode="&#x37e;" horiz-adv-x="528" 
 />
    <glyph glyph-name="uni021B" unicode="&#x21b;" horiz-adv-x="859" 
d="M197 1468q0 31 20.5 46.5t58.5 29.5l227 79q5 1 9.5 1h8.5q37 0 49.5 -21.5t12.5 -56.5l-1 -315h167q32 0 52 -19t20 -57v-193q0 -42 -20 -61.5t-52 -19.5h-167l1 -804q0 -38 -22 -57.5t-61 -19.5h-226q-77 0 -77 77l-1 804h-73q-77 0 -77 81v193q0 76 77 76h73z" />
    <glyph glyph-name="uni02C9" unicode="&#x2c9;" horiz-adv-x="981" 
 />
    <glyph glyph-name="uni021A" unicode="&#x21a;" horiz-adv-x="1267" 
d="M67 1441q0 20 13.5 32t33.5 12h1077q18 0 32 -11t16 -33v-249q0 -18 -12.5 -34.5t-35.5 -16.5h-345v-1094q0 -18 -13 -32.5t-34 -14.5h-294q-17 0 -32 13.5t-15 33.5v1094h-344q-20 0 -33.5 13t-13.5 38v249z" />
    <glyph glyph-name="Rho" unicode="&#x3a1;" horiz-adv-x="1330" 
d="M142 1439q0 21 11 33.5t33 12.5h639q69 0 130 -19t112 -52.5t92 -80t69.5 -100.5t43.5 -113.5t15 -120.5q0 -90 -32.5 -176t-92.5 -153t-144 -108.5t-186 -42.5h-303v-476q0 -43 -46 -43h-297q-20 0 -32 10.5t-12 32.5v1396zM895 1001q0 30 -10.5 60t-30.5 53.5
t-48.5 38.5t-64.5 15h-212v-334h212q36 0 65 14.5t48.5 37.5t30 53t10.5 62z" />
    <glyph glyph-name="Sigma" unicode="&#x3a3;" horiz-adv-x="1280" 
d="M81 1211v228q0 21 11.5 33.5t32.5 12.5h993q22 0 34 -13t12 -35v-248q0 -17 -12 -32.5t-35 -15.5h-578l317 -398l-317 -399h602q45 0 45 -46v-252q0 -10 -8 -18q-4 -28 -41 -28h-1012q-20 0 -32 10.5t-12 32.5v237l378 461z" />
    <glyph glyph-name="Tau" unicode="&#x3a4;" horiz-adv-x="1332" 
d="M80 1441q0 20 13.5 32t33.5 12h1077q18 0 32 -11t16 -33v-249q0 -18 -12.5 -34.5t-35.5 -16.5h-345v-1094q0 -18 -13 -32.5t-34 -14.5h-294q-17 0 -32 13.5t-15 33.5v1094h-344q-20 0 -33.5 13t-13.5 38v249z" />
    <glyph glyph-name="Upsilon" unicode="&#x3a5;" horiz-adv-x="1410" 
d="M706 937l242 517q6 12 10 17.5t8 8t8.5 3t10.5 2.5h385q7 0 11.5 -4.5t4.5 -10.5q0 -11 -14 -25l-474 -839v-559q0 -47 -46 -47h-300q-20 0 -31 12.5t-11 34.5v561l-473 837q-13 13 -13 25q0 6 4 10.5t11 4.5h385q7 -2 11 -2.5t8 -3t8 -8t11 -17.5z" />
    <glyph glyph-name="Upsilondieresis" unicode="&#x3ab;" horiz-adv-x="1410" 
d="M706 937l242 517q6 12 10 17.5t8 8t8.5 3t10.5 2.5h385q7 0 11.5 -4.5t4.5 -10.5q0 -11 -14 -25l-474 -839v-559q0 -47 -46 -47h-300q-20 0 -31 12.5t-11 34.5v561l-473 837q-13 13 -13 25q0 6 4 10.5t11 4.5h385q7 -2 11 -2.5t8 -3t8 -8t11 -17.5zM333 2191q0 42 42 42
h196q14 0 27.5 -11t13.5 -31v-189q0 -18 -11.5 -33.5t-29.5 -15.5h-196q-42 0 -42 49v189zM769 2191q0 42 44 42h193q42 0 42 -42v-189q0 -18 -11 -33.5t-31 -15.5h-193q-44 0 -44 49v189z" />
    <glyph glyph-name="Upsilontonos" unicode="&#x38e;" horiz-adv-x="1410" 
d="M706 937l242 517q6 12 10 17.5t8 8t8.5 3t10.5 2.5h385q7 0 11.5 -4.5t4.5 -10.5q0 -11 -14 -25l-474 -839v-559q0 -47 -46 -47h-300q-20 0 -31 12.5t-11 34.5v561l-473 837q-13 13 -13 25q0 6 4 10.5t11 4.5h385q7 -2 11 -2.5t8 -3t8 -8t11 -17.5zM591 1621
q-20 2 -33 12.5t-13 31.5l-33 295q-2 15 8 25t27 10h221q18 0 29.5 -11.5t7.5 -30.5l-30 -288q-2 -17 -14.5 -30.5t-29.5 -13.5h-140v0z" />
    <glyph glyph-name="Phi" unicode="&#x3a6;" horiz-adv-x="1692" 
d="M658 106q-113 25 -213 82.5t-174.5 138.5t-117.5 181t-43 210q0 115 40 218t112 184.5t173 136.5t223 75v20q0 35 23.5 60.5t74.5 25.5h92q19 0 37.5 -6.5t32 -18t22 -27t8.5 -34.5v-20q116 -25 217 -82.5t175.5 -138.5t117 -182t42.5 -213q0 -116 -40 -219.5
t-112.5 -184.5t-174 -135.5t-225.5 -72.5v-18q0 -86 -100 -86h-92q-51 0 -74.5 20.5t-23.5 65.5v20zM1206 718q0 62 -18.5 116t-52 97.5t-81.5 75.5t-106 49v-674q59 17 107 48t81.5 73.5t51.5 96.5t18 118zM402 718q0 -127 67.5 -214t188.5 -122v670q-55 -18 -101.5 -50
t-81 -75.5t-54 -96.5t-19.5 -112z" />
    <glyph glyph-name="Chi" unicode="&#x3a7;" horiz-adv-x="1342" 
d="M16 26q8 15 16.5 30.5t19.5 31.5l450 672q-115 173 -227.5 342t-227.5 342q-6 8 -9.5 15t-4.5 15q2 8 11.5 7.5t19.5 4.5h348q37 0 58 -38l245 -368l248 368q21 38 58 38h314h19t20.5 -0.5t16.5 -3.5t7 -9q0 -12 -11 -26l-460 -687l469 -700q10 -14 15.5 -25.5t4.5 -19.5
q0 -15 -18 -15h-358q-17 0 -31 10t-22 27l-272 403l-269 -403q-8 -17 -22 -27t-31 -10h-341h-18q-8 0 -14 4.5t-6 12.5q0 5 2 9z" />
    <glyph glyph-name="alpha" unicode="&#x3b1;" horiz-adv-x="1569" 
d="M1449 74q0 -17 -6 -32.5t-20 -24.5q-11 -11 -26 -14t-26 -3h-197q-21 0 -34 5.5t-21 15.5t-13.5 24.5t-11.5 31.5l-29 75q-27 -27 -59 -57.5t-70.5 -56.5t-83.5 -43.5t-96 -17.5q-91 0 -174.5 23t-156 65.5t-131.5 102t-101.5 132.5t-65.5 157.5t-23 176.5
q0 139 51 258.5t139 208t207 139t255 50.5q62 0 114 -18.5t94.5 -48.5t77 -68t61.5 -77l39 121q10 25 16.5 40.5t14 23t18.5 10t31 2.5h149q11 0 26 -3t26 -14q14 -11 20 -25t6 -32v-1127zM464 634q0 -66 20.5 -123.5t58.5 -99.5t91.5 -66.5t118.5 -24.5q67 0 124.5 24.5
t100 66.5t66.5 99.5t24 123.5q0 64 -24 122t-66.5 102t-100 69.5t-124.5 25.5q-65 0 -118.5 -25.5t-91.5 -69.5t-58.5 -102t-20.5 -122z" />
    <glyph glyph-name="alphatonos" unicode="&#x3ac;" horiz-adv-x="1569" 
d="M1449 74q0 -17 -6 -32.5t-20 -24.5q-11 -11 -26 -14t-26 -3h-197q-21 0 -34 5.5t-21 15.5t-13.5 24.5t-11.5 31.5l-29 75q-27 -27 -59 -57.5t-70.5 -56.5t-83.5 -43.5t-96 -17.5q-91 0 -174.5 23t-156 65.5t-131.5 102t-101.5 132.5t-65.5 157.5t-23 176.5
q0 139 51 258.5t139 208t207 139t255 50.5q62 0 114 -18.5t94.5 -48.5t77 -68t61.5 -77l39 121q10 25 16.5 40.5t14 23t18.5 10t31 2.5h149q11 0 26 -3t26 -14q14 -11 20 -25t6 -32v-1127zM464 634q0 -66 20.5 -123.5t58.5 -99.5t91.5 -66.5t118.5 -24.5q67 0 124.5 24.5
t100 66.5t66.5 99.5t24 123.5q0 64 -24 122t-66.5 102t-100 69.5t-124.5 25.5q-65 0 -118.5 -25.5t-91.5 -69.5t-58.5 -102t-20.5 -122zM532 1113q-20 2 -33 12.5t-13 31.5l-33 295q-2 15 8 25t27 10h221q18 0 29.5 -11.5t7.5 -30.5l-30 -288q-2 -17 -14.5 -30.5
t-29.5 -13.5h-140v0z" />
    <glyph glyph-name="Iotatonos" unicode="&#x38a;" 
d="M165 1441q0 18 11 31t33 13h294q15 0 32 -12t17 -32v-1397q0 -44 -49 -44h-294q-44 0 -44 44v1397zM287 1680q-20 2 -33 12.5t-13 31.5l-33 295q-2 15 8 25t27 10h221q18 0 29.5 -11.5t7.5 -30.5l-30 -288q-2 -17 -14.5 -30.5t-29.5 -13.5h-140v0z" />
    <glyph glyph-name="partialdiff" unicode="&#x2202;" horiz-adv-x="1120" 
 />
    <glyph glyph-name="Nacute" unicode="&#x143;" horiz-adv-x="1639" 
d="M165 1441q0 18 11 31t33 13h327q14 0 29 -7t26 -24q127 -205 252 -404t253 -404v801q4 18 16 28t28 10h285q21 0 35 -11.5t14 -32.5v-1402q0 -20 -12 -29.5t-33 -9.5h-319q-13 0 -23 9t-21 24q-133 220 -263 435t-264 435v-859q0 -22 -10 -33t-36 -11h-284
q-23 0 -33.5 12.5t-10.5 30.5v1398zM725 1886q5 23 20.5 32.5t32.5 9.5h258q15 0 22.5 -6t10 -15t0.5 -20.5t-7 -22.5l-98 -215q-12 -22 -23.5 -32t-30.5 -10h-219q-15 0 -20.5 8t-5.5 19t3 24t5 22z" />
    <glyph glyph-name="Sacute" unicode="&#x15a;" horiz-adv-x="1312" 
d="M348 479q17 -14 43.5 -37.5t60.5 -46.5q51 -34 101 -53t105 -19q51 0 85.5 11.5t54.5 30.5t28.5 44t8.5 53q0 31 -23.5 55.5t-57.5 43.5t-71 32.5t-64 22.5q-120 42 -210 90.5t-150 108t-90 131t-30 159.5q0 93 37.5 169t107 130t167.5 83.5t219 29.5q91 0 174.5 -20.5
t164.5 -65.5q34 -20 64.5 -41.5t53.5 -41.5t36.5 -38t13.5 -31t-6.5 -24t-19.5 -25l-153 -163q-17 -17 -34 -17q-14 0 -25.5 8t-25.5 20l-9 8q-20 17 -44.5 35t-52.5 32.5t-59 24t-63 9.5q-33 0 -62 -5.5t-51 -17.5t-35 -31.5t-13 -47.5t14 -48.5t42 -38t69.5 -33
t96.5 -33.5q106 -35 195.5 -73.5t154.5 -91t101.5 -125.5t36.5 -177q0 -110 -45 -199.5t-123.5 -152.5t-184.5 -97.5t-228 -34.5q-115 0 -226 41t-207 110q-40 29 -67.5 57t-43.5 45l-3 3q-1 2 -2 2.5t-2 1.5q-1 2 -2 2.5t-2 1.5q-23 25 -23 40q0 17 23 38l173 165
q21 15 34 15q9 0 19 -6t24 -18zM619 1886q5 23 20.5 32.5t32.5 9.5h258q15 0 22.5 -6t10 -15t0.5 -20.5t-7 -22.5l-98 -215q-12 -22 -23.5 -32t-30.5 -10h-219q-15 0 -20.5 8t-5.5 19t3 24t5 22z" />
    <glyph glyph-name="wcircumflex" unicode="&#x175;" horiz-adv-x="1926" 
d="M40 1171q-20 41 -7.5 70t59.5 29h256q26 0 45.5 -14t27.5 -40q17 -53 37.5 -118.5t43 -133.5t44.5 -135t40.5 -123.5t33 -98.5t21.5 -60l212 669q13 32 29.5 43t46.5 11h237q29 0 44 -7t20 -19t2 -27.5t-10 -32.5l-110 -269q7 -17 27 -57.5t45.5 -92t52 -108t44.5 -105.5
l245 664q13 32 26.5 43t40.5 11h221q48 0 66 -18t2 -68l-469 -1141q-9 -18 -27.5 -30.5t-53.5 -12.5h-105q-39 0 -57 12.5t-29 32.5l-186 454l-183 -456q-11 -18 -26 -30.5t-45 -12.5h-119q-40 0 -56.5 11.5t-24.5 31.5zM947 1764q7 5 11 7t11 2q8 0 20 -9l257 -256
q8 -6 8 -23q0 -9 -9 -19l-88 -90q-11 -11 -27 -11q-13 0 -22 9l-139 142l-142 -143q-11 -11 -23.5 -8t-20.5 11l-90 87q-5 5 -6.5 10.5t-2.5 11.5q0 8 2.5 13t6.5 9z" />
    <glyph glyph-name="wdieresis" unicode="&#x1e85;" horiz-adv-x="1926" 
d="M40 1171q-20 41 -7.5 70t59.5 29h256q26 0 45.5 -14t27.5 -40q17 -53 37.5 -118.5t43 -133.5t44.5 -135t40.5 -123.5t33 -98.5t21.5 -60l212 669q13 32 29.5 43t46.5 11h237q29 0 44 -7t20 -19t2 -27.5t-10 -32.5l-110 -269q7 -17 27 -57.5t45.5 -92t52 -108t44.5 -105.5
l245 664q13 32 26.5 43t40.5 11h221q48 0 66 -18t2 -68l-469 -1141q-9 -18 -27.5 -30.5t-53.5 -12.5h-105q-39 0 -57 12.5t-29 32.5l-186 454l-183 -456q-11 -18 -26 -30.5t-45 -12.5h-119q-40 0 -56.5 11.5t-24.5 31.5zM604 1672q0 42 42 42h196q14 0 27.5 -11t13.5 -31
v-189q0 -18 -11.5 -33.5t-29.5 -15.5h-196q-42 0 -42 49v189zM1040 1672q0 42 44 42h193q42 0 42 -42v-189q0 -18 -11 -33.5t-31 -15.5h-193q-44 0 -44 49v189z" />
    <glyph glyph-name="lcaron" unicode="&#x13e;" horiz-adv-x="881" 
d="M141 1571q0 32 16 54t55 22h245q10 0 21 -5.5t20.5 -15.5t16 -24t6.5 -31v-1494q0 -38 -21.5 -57.5t-55.5 -19.5h-232q-39 0 -55 19.5t-16 57.5v1494zM601.088 1672.31q0 17.9385 9.875 28.7012t29.624 10.7627h236.994q15.2607 0 28.7266 -10.7627t13.4658 -28.7012
v-257.414q0 -84.3096 -43.9883 -159.201q-43.9873 -74.8926 -125.678 -120.635q-2.69336 -2.69043 -12.5684 -2.69043q-12.5684 0 -20.1982 3.13867q-7.63086 3.13965 -12.1191 9.41797l-61.9414 51.124q-9.875 7.1748 -13.0166 14.7988q-3.14258 7.62402 -3.14258 14.7988
q0 11.6602 12.1191 23.3203q12.1191 11.6592 26.9316 26.458q14.8115 14.7998 26.9307 34.083t12.1191 46.1914v39.4639q0 17.041 -16.1592 18.835h-51.1689q-36.8057 1.79395 -36.8057 39.4639v218.847z" />
    <glyph glyph-name="lcommaaccent" unicode="&#x13c;" horiz-adv-x="620" 
d="M125 1571q0 32 16 54t55 22h245q10 0 21 -5.5t20.5 -15.5t16 -24t6.5 -31v-1494q0 -38 -21.5 -57.5t-55.5 -19.5h-232q-39 0 -55 19.5t-16 57.5v1494zM152 -225q0 17 10.5 28t29.5 11h236q15 0 28.5 -10.5t13.5 -28.5v-257q0 -85 -43.5 -159t-125.5 -122q-1 -1 -12 -1
q-13 0 -20 3t-13 8l-61 52q-10 8 -13.5 15t-3.5 15q0 12 12 23t27 25.5t27 34t12 47.5v39q0 15 -16 19h-51q-37 1 -37 39v219z" />
    <glyph glyph-name="commaaccent" horiz-adv-x="578" 
d="M127 -253q0 17 10.5 28t29.5 11h236q15 0 28.5 -10.5t13.5 -28.5v-257q0 -85 -43.5 -159t-125.5 -122q-1 -1 -12 -1q-13 0 -20 3t-13 8l-61 52q-10 8 -13.5 15t-3.5 15q0 12 12 23t27 25.5t27 34t12 47.5v39q0 15 -16 19h-51q-37 1 -37 39v219z" />
    <glyph glyph-name="undercommaaccent" horiz-adv-x="265" 
d="M109 57q0 20 11.5 32t32.5 12h264q17 0 32 -12t15 -32v-287q0 -47 -12.5 -92t-36.5 -85.5t-59.5 -75t-80.5 -59.5q-2 -3 -14 -3q-14 0 -22 3.5t-14 10.5l-68 57q-11 8 -15 16.5t-4 16.5q0 13 13.5 26t30 29.5t30 38t13.5 51.5v44q0 18 -18 21h-57q-41 2 -41 44v244z" />
    <glyph glyph-name="rcommaaccent" unicode="&#x157;" horiz-adv-x="1151" 
d="M117 1196q0 17 7.5 32.5t18.5 24.5q26 17 54 17h151q19 0 30 -7t18.5 -18t13 -25t13.5 -28q2 -4 8 -19.5t13 -34t13.5 -35t8.5 -21.5q30 33 57.5 69.5t58.5 67.5t69 51t90 20q54 0 96.5 -8t80.5 -23.5t75.5 -39.5t81.5 -56q69 -37 26 -110l-91 -155q-20 -30 -49 -37
t-63 9q-43 42 -87.5 62.5t-101.5 20.5q-39 0 -68.5 -11t-53.5 -31t-45 -48t-42 -62v-724q0 -38 -18.5 -57.5t-61.5 -19.5h-225q-78 0 -78 77v1119zM129 -225q0 17 10.5 28t29.5 11h236q15 0 28.5 -10.5t13.5 -28.5v-257q0 -85 -43.5 -159t-125.5 -122q-1 -1 -12 -1
q-13 0 -20 3t-13 8l-61 52q-10 8 -13.5 15t-3.5 15q0 12 12 23t27 25.5t27 34t12 47.5v39q0 15 -16 19h-51q-37 1 -37 39v219z" />
    <glyph glyph-name="tcommaaccent" unicode="&#x163;" horiz-adv-x="846" 
d="M197 1468q0 31 20.5 46.5t58.5 29.5l227 79q5 1 9.5 1h8.5q37 0 49.5 -21.5t12.5 -56.5l-1 -315h167q32 0 52 -19t20 -57v-193q0 -42 -20 -61.5t-52 -19.5h-167l1 -804q0 -38 -22 -57.5t-61 -19.5h-226q-77 0 -77 77l-1 804h-73q-77 0 -77 81v193q0 76 77 76h73z
M227 -225q0 17 10.5 28t29.5 11h236q15 0 28.5 -10.5t13.5 -28.5v-257q0 -85 -43.5 -159t-125.5 -122q-1 -1 -12 -1q-13 0 -20 3t-13 8l-61 52q-10 8 -13.5 15t-3.5 15q0 12 12 23t27 25.5t27 34t12 47.5v39q0 15 -16 19h-51q-37 1 -37 39v219z" />
    <glyph glyph-name="Tcommaaccent" unicode="&#x162;" horiz-adv-x="1332" 
d="M80 1441q0 20 13.5 32t33.5 12h1077q18 0 32 -11t16 -33v-249q0 -18 -12.5 -34.5t-35.5 -16.5h-345v-1094q0 -18 -13 -32.5t-34 -14.5h-294q-17 0 -32 13.5t-15 33.5v1094h-344q-20 0 -33.5 13t-13.5 38v249zM511 -253q0 17 10.5 28t29.5 11h236q15 0 28.5 -10.5
t13.5 -28.5v-257q0 -85 -43.5 -159t-125.5 -122q-1 -1 -12 -1q-13 0 -20 3t-13 8l-61 52q-10 8 -13.5 15t-3.5 15q0 12 12 23t27 25.5t27 34t12 47.5v39q0 15 -16 19h-51q-37 1 -37 39v219z" />
    <glyph glyph-name="Kcommaaccent" unicode="&#x136;" horiz-adv-x="1505" 
d="M159 1441q0 18 11.5 31t32.5 13h296q15 0 31.5 -12t16.5 -32v-545q109 140 214 276t213 276q11 17 28.5 27.5t34.5 10.5h380q24 0 24 -15q0 -10 -11 -24l-471 -621l521 -784q11 -17 11 -27q0 -15 -22 -15h-378q-17 0 -33.5 10t-27.5 27q-53 72 -96.5 138t-84.5 131.5
t-83 132.5t-92 141l-127 -146v-390q0 -44 -48 -44h-295q-45 0 -45 44v1397zM567 -253q0 17 10.5 28t29.5 11h236q15 0 28.5 -10.5t13.5 -28.5v-257q0 -85 -43.5 -159t-125.5 -122q-1 -1 -12 -1q-13 0 -20 3t-13 8l-61 52q-10 8 -13.5 15t-3.5 15q0 12 12 23t27 25.5t27 34
t12 47.5v39q0 15 -16 19h-51q-37 1 -37 39v219z" />
    <glyph glyph-name="scommaaccent" unicode="&#x219;" horiz-adv-x="1158" 
d="M310 395q27 -27 58.5 -45.5t60.5 -30t51 -16.5t30 -5q19 0 48.5 1.5t56.5 9t46.5 24.5t19.5 48q0 28 -11 44.5t-32 28t-51.5 20.5t-68.5 21q-120 32 -198 77t-123.5 100.5t-63.5 119.5t-18 135q0 83 33 151t94 116.5t146 75t189 26.5q63 0 118 -10.5t105 -33t97.5 -58
t94.5 -84.5q17 -20 17.5 -37.5t-22.5 -37.5q-39 -32 -74.5 -63t-73.5 -69q-12 -10 -24 -12.5t-23 0.5t-21 10t-18 17q-35 39 -80 52.5t-84 13.5q-49 0 -78 -17t-27 -52q2 -26 19.5 -40.5t43 -23.5t54 -14.5t52.5 -12.5q90 -29 165 -63t130 -83.5t85.5 -118.5t30.5 -168
t-39.5 -177t-108.5 -131t-163.5 -81t-203.5 -28q-62 0 -126 11t-124 35.5t-114 63t-96 93.5q-11 14 -16.5 29.5t-5 30.5t6 27.5t17.5 21.5l129 129q24 20 42.5 14t47.5 -34zM398 -225q0 17 10.5 28t29.5 11h236q15 0 28.5 -10.5t13.5 -28.5v-257q0 -85 -43.5 -159
t-125.5 -122q-1 -1 -12 -1q-13 0 -20 3t-13 8l-61 52q-10 8 -13.5 15t-3.5 15q0 12 12 23t27 25.5t27 34t12 47.5v39q0 15 -16 19h-51q-37 1 -37 39v219z" />
    <glyph glyph-name="estimated" unicode="&#x212e;" horiz-adv-x="1431" 
d="M1194 152q-88 -81 -198 -126.5t-233 -45.5q-137 0 -259 50t-214 138.5t-146 208.5t-54 261q0 88 21.5 170.5t61 154.5t96 132.5t126.5 103.5t152 67t173 24q83 0 161 -22t146.5 -62t125.5 -96t98 -122.5t63.5 -142t22.5 -155.5q0 -52 -1.5 -85t-15.5 -52.5t-46.5 -27
t-95.5 -7.5h-720q10 -64 40.5 -107t70.5 -68.5t85 -36.5t85 -11q36 0 74 7.5t73.5 20t65 29t47.5 34.5q16 13 27.5 19.5t24.5 6.5t26.5 -9t30.5 -26l106 -120q11 -13 14 -23.5t3 -21.5q0 -20 -11 -34.5t-26 -25.5zM713 985q-39 0 -75.5 -15.5t-68.5 -41.5t-57.5 -59
t-41.5 -67h511q-21 39 -45.5 72t-56 58t-72 39t-94.5 14z" />
    <glyph glyph-name="k.alt" horiz-adv-x="1413" 
d="M120 1202q0 17 1 31t8.5 24t23.5 15.5t45 5.5h239q19 0 31.5 -6.5t20 -16.5t10 -21.5t2.5 -21.5v-371l360 400q26 29 62 29h307q55 0 55 -43q0 -11 -3.5 -18t-14.5 -20l-411 -434l517 -664h-2q13 -13 18.5 -26.5t5.5 -24.5q0 -23 -12.5 -31.5t-37.5 -8.5h-338
q-17 0 -32 13t-33 39l-327 463l-111 -115v-323q0 -8 -2.5 -21t-10 -25.5t-20.5 -21.5t-34 -9h-251q-18 0 -31 9.5t-20.5 21.5t-11 22.5t-3.5 12.5v1136z" />
    <glyph glyph-name="six" unicode="6" horiz-adv-x="1238" 
d="M96 428q-2 17 -3 34.5t-1 34.5q0 132 64 244q1 1 3.5 5t14 24t35.5 62.5t67.5 120t110 196.5t163.5 292q11 21 26 32.5t40 11.5h284q39 0 39 -23q0 -4 -2 -13.5t-4 -11.5q-35 -62 -61.5 -108.5t-48 -84t-39 -68.5t-34 -60t-33.5 -59.5t-37 -66.5q96 -11 180 -53.5
t146 -109.5t97.5 -153.5t35.5 -185.5q0 -106 -41 -198.5t-112 -161t-166.5 -108t-204.5 -39.5q-101 0 -190.5 32.5t-159.5 91.5t-114.5 141.5t-54.5 181.5zM442 485q0 -40 12 -74t34 -59t53 -39t70 -14t70.5 14t53 39t33.5 59t12 74q0 39 -12 73t-33.5 59.5t-53 40.5
t-70.5 15t-70 -15t-53 -40.5t-34 -59.5t-12 -73z" />
    <glyph glyph-name="three" unicode="3" horiz-adv-x="1199" 
d="M548 640q-18 0 -30.5 8.5t-12.5 30.5q0 55 0.5 109.5t0.5 111.5q0 43 43 43q31 0 52 12t33 29.5t17 38t5 38.5q0 13 -2.5 34.5t-12.5 42t-31 35.5t-57 15q-31 0 -51 -10t-31 -27.5t-15.5 -40t-4.5 -46.5h-3l1 -1q0 -41 -43 -41h-30h-87.5t-87.5 1q-18 0 -31 11t-13 33
l1 1h-2q0 114 34 195.5t91 133.5t132.5 76.5t159.5 24.5q83 0 158.5 -31.5t132.5 -87t91 -130t34 -160.5q0 -78 -29 -141.5t-77 -111.5q46 -32 87 -66.5t71.5 -77.5t48.5 -99t18 -131q0 -103 -41.5 -191.5t-112.5 -153.5t-166.5 -102t-203.5 -37q-68 0 -133.5 8t-123.5 29
t-106.5 58t-84 94.5t-55 138.5t-19.5 191q1 18 11.5 29.5t34.5 16.5h241q13 0 28 -11.5t15 -32.5q-1 -1 -2 -1h2q0 -107 49 -154.5t135 -47.5q37 0 68 11t53.5 32.5t35 55t12.5 78.5q0 85 -45.5 126t-147.5 41h-4z" />
    <glyph glyph-name="four" unicode="4" horiz-adv-x="1317" 
d="M89 224q-29 0 -42 17t-13 38q0 28 17 51l650 1129q10 17 22.5 21.5t43.5 4.5h271q15 -1 31 -13t16 -31v-874h120q20 0 33.5 -11t13.5 -35v-250q0 -17 -13.5 -31.5t-33.5 -14.5h-120v-181q0 -44 -48 -44h-271q-44 0 -44 44v180h-633zM737 564v344l-202 -344h202z" />
    <glyph glyph-name="five" unicode="5" horiz-adv-x="1209" 
d="M73 415q1 25 32 28l241 58q3 1 11 1q11 0 15 -5t11 -12q1 -26 18.5 -56.5t44 -57.5t59.5 -45t66 -18q34 0 67.5 10t59.5 31.5t42 56t16 83.5q0 40 -16.5 75.5t-45 62t-65.5 41.5t-79 15q-14 0 -25.5 -2t-20.5 -5q-40 -6 -75.5 -12t-80.5 -3h-174q-26 0 -41 11t-17 43
q18 183 36 361t35 360q0 51 48 51h666q2 0 4 -0.5t5 -0.5h80q48 0 48 -50q0 -60 -0.5 -118.5t-0.5 -118.5q0 -20 -13 -35t-37 -15h-492l-15 -162q28 5 59 7.5t59 2.5q115 0 208.5 -42.5t160 -112t102.5 -159.5t36 -186q0 -110 -44 -204.5t-117 -164.5t-169 -109.5
t-199 -39.5v1q-94 0 -175 31.5t-144.5 85.5t-108.5 126t-68 153q-3 10 -5 20t-2 19z" />
    <glyph glyph-name="Oacute" unicode="&#xd3;" horiz-adv-x="1705" 
d="M478 742q0 -83 28 -155t78.5 -125.5t119.5 -84t152 -30.5t152.5 30.5t120 84t78.5 125.5t28 155q0 82 -28 154.5t-78.5 126.5t-120 85t-152.5 31t-152 -31t-119.5 -85t-78.5 -126.5t-28 -154.5zM92 741q0 106 27 203.5t77 183t119.5 155.5t154.5 119.5t182.5 77
t203.5 27.5q105 0 203 -27.5t183 -77t155 -119.5t119.5 -155.5t77 -183t27.5 -203.5t-27.5 -203.5t-77 -182t-119.5 -154t-155 -119.5t-183 -77t-203 -27q-106 0 -203.5 27t-182.5 77t-154.5 119.5t-119.5 154t-77 182t-27 203.5zM789 1887q5 23 20.5 32.5t32.5 9.5h258
q15 0 22.5 -6t10 -15t0.5 -20.5t-7 -22.5l-98 -215q-12 -22 -23.5 -32t-30.5 -10h-219q-15 0 -20.5 8t-5.5 19t3 24t5 22z" />
    <glyph glyph-name="Amacron" unicode="&#x100;" horiz-adv-x="1531" 
d="M586 1446q1 6 6.5 13t13.5 13t17 9.5t17 3.5h256q17 0 29 -10.5t18 -18.5l25 -57l525 -1354q8 -20 -3 -32.5t-38 -12.5h-287q-23 0 -35.5 8.5t-19.5 28.5q-20 51 -39 101.5t-38 101.5h-531q-19 -51 -38.5 -101.5t-38.5 -101.5q-13 -37 -51 -37h-295q-19 0 -31.5 10
t-4.5 30zM768 1018q-19 -51 -38.5 -110t-38.5 -119t-38.5 -118.5t-38.5 -109.5h307zM342 1840q0 35 35 35h779q15 0 25 -8.5t10 -26.5v-154q0 -12 -9 -26t-26 -14h-779q-35 0 -35 40v154z" />
    <glyph glyph-name="Aogonek" unicode="&#x104;" horiz-adv-x="1531" 
d="M586 1446q1 6 6.5 13t13.5 13t17 9.5t17 3.5h256q17 0 29 -10.5t18 -18.5l25 -57l525 -1354q8 -20 -3 -32.5t-38 -12.5h-287q-23 0 -35.5 8.5t-19.5 28.5q-20 51 -39 101.5t-38 101.5h-531q-19 -51 -38.5 -101.5t-38.5 -101.5q-13 -37 -51 -37h-295q-19 0 -31.5 10
t-4.5 30zM768 1018q-19 -51 -38.5 -110t-38.5 -119t-38.5 -118.5t-38.5 -109.5h307zM1412 22q14 -14 17 -25.5t3 -22.5q0 -29 -15 -51t-37.5 -40t-48.5 -33.5t-48.5 -31t-37.5 -32.5t-15 -39q0 -63 171 -106q11 -6 11 -22q0 -9 -11 -35.5t-27 -54.5t-34 -50t-33 -22h-5
q-76 23 -138.5 57.5t-107 74.5t-69 81t-24.5 77q0 37 15.5 64.5t38.5 49t49.5 38t49.5 31t38.5 28t15.5 29.5q0 20 -22 35h264z" />
    <glyph glyph-name="Aring" unicode="&#xc5;" horiz-adv-x="1531" 
d="M586 1446q1 6 6.5 13t13.5 13t17 9.5t17 3.5h256q17 0 29 -10.5t18 -18.5l25 -57l525 -1354q8 -20 -3 -32.5t-38 -12.5h-287q-23 0 -35.5 8.5t-19.5 28.5q-20 51 -39 101.5t-38 101.5h-531q-19 -51 -38.5 -101.5t-38.5 -101.5q-13 -37 -51 -37h-295q-19 0 -31.5 10
t-4.5 30zM768 1018q-19 -51 -38.5 -110t-38.5 -119t-38.5 -118.5t-38.5 -109.5h307zM764 1984q43 0 81.5 -16.5t67.5 -45.5t45.5 -67.5t16.5 -81.5q0 -44 -16.5 -82t-45.5 -66.5t-67.5 -44.5t-81.5 -16q-44 0 -82 16t-66.5 44.5t-44.5 66.5t-16 82q0 43 16 81.5t44.5 67.5
t66.5 45.5t82 16.5zM765 1834q-26 0 -42 -17t-16 -43t16 -42t42 -16t43 16t17 42t-17 43t-43 17z" />
    <glyph glyph-name="Atilde" unicode="&#xc3;" horiz-adv-x="1531" 
d="M586 1446q1 6 6.5 13t13.5 13t17 9.5t17 3.5h256q17 0 29 -10.5t18 -18.5l25 -57l525 -1354q8 -20 -3 -32.5t-38 -12.5h-287q-23 0 -35.5 8.5t-19.5 28.5q-20 51 -39 101.5t-38 101.5h-531q-19 -51 -38.5 -101.5t-38.5 -101.5q-13 -37 -51 -37h-295q-19 0 -31.5 10
t-4.5 30zM768 1018q-19 -51 -38.5 -110t-38.5 -119t-38.5 -118.5t-38.5 -109.5h307zM419 1801q19 27 45 49t56 37.5t62 23.5t64 8q18 0 39 -4t46 -14t56 -26.5t69 -41.5q11 -7 21.5 -11t23.5 -4q21 0 35 8.5t26 21.5l33 40q9 13 19.5 13.5t19.5 -8.5l103 -90
q11 -11 14.5 -19t-6.5 -21l-30 -39q-40 -55 -99 -86t-125 -31q-39 0 -79 13.5t-77 36.5l-55 35q-11 7 -21 11t-24 4q-20 0 -34.5 -8t-25.5 -21l-31 -40q-6 -10 -21 -11.5t-24 7.5l-103 87q-5 5 -8.5 9.5t-3.5 13.5q0 1 0.5 4t4 9t10.5 16.5t20 27.5z" />
    <glyph glyph-name="AEacute" unicode="&#x1fc;" horiz-adv-x="2202" 
d="M840 1446q8 13 25.5 26t37.5 13h1097q23 0 34.5 -13t11.5 -35v-248q0 -17 -12 -32.5t-35 -15.5h-707l47 -252h271.5t271.5 1q19 0 31.5 -10t12.5 -30v-216q0 -14 -11 -27t-32 -13h-494l46 -250h604q24 0 34.5 -11.5t10.5 -34.5v-252q0 -20 -14 -33t-34 -13h-885
q-41 0 -48 37q-9 51 -17.5 101.5t-16.5 101.5h-520l-114 -203q-22 -37 -59 -37h-315q-32 0 -32 21q0 6 5 19q121 216 322.5 567t483.5 839zM727 561h296l-70 398zM976 1885q5 23 20.5 32.5t32.5 9.5h258q15 0 22.5 -6t10 -15t0.5 -20.5t-7 -22.5l-98 -215q-12 -22 -23.5 -32
t-30.5 -10h-219q-15 0 -20.5 8t-5.5 19t3 24t5 22z" />
    <glyph glyph-name="Dcaron" unicode="&#x10e;" horiz-adv-x="1547" 
d="M1447 741q0 -106 -27 -201.5t-77 -178t-119.5 -149.5t-154 -114t-182.5 -72.5t-203 -25.5h-493q-18 0 -32 8t-14 34v1397q0 21 11.5 34t34.5 13h493q105 0 202.5 -26t182 -74t154.5 -115t119.5 -150t77 -179t27.5 -201zM532 1127v-769h84q23 0 45 1.5t44 3.5
q75 6 140 36.5t113.5 80t76 116.5t27.5 146q0 84 -31.5 154.5t-85.5 122t-126.5 80t-154.5 28.5h-132zM707 1585q-7 -5 -11 -7t-11 -2q-8 0 -20 9l-257 256q-8 6 -8 23q0 8 9 19l88 90q11 11 27 11q13 0 22 -9l139 -142l142 143q11 11 23.5 8t20.5 -11l90 -87
q5 -5 6.5 -10.5t2.5 -11.5q0 -8 -2.5 -13t-6.5 -9z" />
    <glyph glyph-name="Edotaccent" unicode="&#x116;" horiz-adv-x="1350" 
d="M161 1439q0 21 11.5 33.5t32.5 12.5h993q22 0 34 -13t12 -35v-248q0 -17 -12 -32.5t-35 -15.5h-648v-247h500q19 0 31.5 -9t12.5 -30v-216q0 -14 -11 -27t-32 -13h-501v-255h672q45 0 45 -46v-252q0 -10 -8 -18q-4 -28 -41 -28h-1012q-20 0 -32 10.5t-12 32.5v1396z
M554 1885q0 42 42 42h196q14 0 27.5 -11t13.5 -31v-189q0 -18 -11.5 -33.5t-29.5 -15.5h-196q-42 0 -42 49v189z" />
    <glyph glyph-name="Emacron" unicode="&#x112;" horiz-adv-x="1350" 
d="M161 1439q0 21 11.5 33.5t32.5 12.5h993q22 0 34 -13t12 -35v-248q0 -17 -12 -32.5t-35 -15.5h-648v-247h500q19 0 31.5 -9t12.5 -30v-216q0 -14 -11 -27t-32 -13h-501v-255h672q45 0 45 -46v-252q0 -10 -8 -18q-4 -28 -41 -28h-1012q-20 0 -32 10.5t-12 32.5v1396z
M267 1841q0 35 35 35h779q15 0 25 -8.5t10 -26.5v-154q0 -12 -9 -26t-26 -14h-779q-35 0 -35 40v154z" />
    <glyph glyph-name="Eogonek" unicode="&#x118;" horiz-adv-x="1350" 
d="M161 1439q0 21 11.5 33.5t32.5 12.5h993q22 0 34 -13t12 -35v-248q0 -17 -12 -32.5t-35 -15.5h-648v-247h500q19 0 31.5 -9t12.5 -30v-216q0 -14 -11 -27t-32 -13h-501v-255h672q45 0 45 -46v-252q0 -10 -8 -18q-4 -28 -41 -28h-1012q-20 0 -32 10.5t-12 32.5v1396z
M894 12q14 -14 17 -25.5t3 -22.5q0 -29 -15 -51t-37.5 -40t-48.5 -33.5t-48.5 -31t-37.5 -32.5t-15 -39q0 -63 171 -106q11 -6 11 -22q0 -9 -11 -35.5t-27 -54.5t-34 -50t-33 -22h-5q-76 23 -138.5 57.5t-107 74.5t-69 81t-24.5 77q0 37 15.5 64.5t38.5 49t49.5 38t49.5 31
t38.5 28t15.5 29.5q0 20 -22 35h264z" />
    <glyph glyph-name="Hcircumflex" unicode="&#x124;" horiz-adv-x="1602" 
d="M165 1441q1 17 12.5 30.5t30.5 13.5h297q15 0 31 -12.5t16 -31.5v-474h497v474q0 18 12.5 31t32.5 13h293q20 0 35 -10t15 -32v-1399q0 -22 -13 -33t-34 -11h-296q-20 0 -32.5 11t-12.5 33v568h-497v-568q0 -21 -13.5 -32.5t-36.5 -11.5h-294q-42 0 -43 39v1402z
M781 1986q7 5 11 7t11 2q8 0 20 -9l257 -256q8 -6 8 -23q0 -9 -9 -19l-88 -90q-11 -11 -27 -11q-13 0 -22 9l-139 142l-142 -143q-11 -11 -23.5 -8t-20.5 11l-90 87q-5 5 -6.5 10.5t-2.5 11.5q0 8 2.5 13t6.5 9z" />
    <glyph glyph-name="Iacute" unicode="&#xcd;" 
d="M165 1441q0 18 11 31t33 13h294q15 0 32 -12t17 -32v-1397q0 -44 -49 -44h-294q-44 0 -44 44v1397zM279 1888q5 23 20.5 32.5t32.5 9.5h258q15 0 22.5 -6t10 -15t0.5 -20.5t-7 -22.5l-98 -215q-12 -22 -23.5 -32t-30.5 -10h-219q-15 0 -20.5 8t-5.5 19t3 24t5 22z" />
    <glyph glyph-name="Ibreve" unicode="&#x12c;" 
d="M165 1441q0 18 11 31t33 13h294q15 0 32 -12t17 -32v-1397q0 -44 -49 -44h-294q-44 0 -44 44v1397zM350 1608q-59 1 -109 22.5t-87 56.5t-58 79.5t-21 92.5q0 17 11.5 27t26.5 10h144q11 0 17 -6.5t6 -15.5q0 -23 18 -41.5t56 -18.5q34 0 52.5 19t18.5 41q0 9 5 15.5
t16 6.5h146q15 0 26.5 -10t11.5 -27q0 -49 -21.5 -94t-59.5 -79.5t-89 -55.5t-110 -22z" />
    <glyph glyph-name="Icircumflex" unicode="&#xce;" 
d="M165 1441q0 18 11 31t33 13h294q15 0 32 -12t17 -32v-1397q0 -44 -49 -44h-294q-44 0 -44 44v1397zM334 1986q7 5 11 7t11 2q8 0 20 -9l257 -256q8 -6 8 -23q0 -9 -9 -19l-88 -90q-11 -11 -27 -11q-13 0 -22 9l-139 142l-142 -143q-11 -11 -23.5 -8t-20.5 11l-90 87
q-5 5 -6.5 10.5t-2.5 11.5q0 8 2.5 13t6.5 9z" />
    <glyph glyph-name="Idotaccent" unicode="&#x130;" 
d="M165 1441q0 18 11 31t33 13h294q15 0 32 -12t17 -32v-1397q0 -44 -49 -44h-294q-44 0 -44 44v1397zM180 1894q0 20 11 32t33 12h264q17 0 31.5 -12t14.5 -32v-242q0 -18 -11.5 -32t-34.5 -14h-264q-44 0 -44 46v242z" />
    <glyph glyph-name="Igrave" unicode="&#xcc;" 
d="M165 1441q0 18 11 31t33 13h294q15 0 32 -12t17 -32v-1397q0 -44 -49 -44h-294q-44 0 -44 44v1397zM481 1680q2 -9 5 -22t3 -24t-5.5 -19t-20.5 -8h-219q-19 0 -30.5 10t-23.5 32l-98 215q-5 11 -7 22.5t0.5 20.5t10 15t22.5 6h258q17 0 32.5 -9.5t20.5 -32.5z" />
    <glyph glyph-name="Imacron" unicode="&#x12a;" 
d="M165 1441q0 18 11 31t33 13h294q15 0 32 -12t17 -32v-1397q0 -44 -49 -44h-294q-44 0 -44 44v1397zM-70 1840q0 35 35 35h779q15 0 25 -8.5t10 -26.5v-154q0 -12 -9 -26t-26 -14h-779q-35 0 -35 40v154z" />
    <glyph glyph-name="Iogonek" unicode="&#x12e;" 
d="M165 1441q0 18 11 31t33 13h294q15 0 32 -12t17 -32v-1397q0 -44 -49 -44h-294q-44 0 -44 44v1397zM491 7q14 -14 17 -25.5t3 -22.5q0 -29 -15 -51t-37.5 -40t-48.5 -33.5t-48.5 -31t-37.5 -32.5t-15 -39q0 -63 171 -106q11 -6 11 -22q0 -9 -11 -35.5t-27 -54.5t-34 -50
t-33 -22h-5q-76 23 -138.5 57.5t-107 74.5t-69 81t-24.5 77q0 37 15.5 64.5t38.5 49t49.5 38t49.5 31t38.5 28t15.5 29.5q0 20 -22 35h264z" />
    <glyph glyph-name="Itilde" unicode="&#x128;" 
d="M165 1441q0 18 11 31t33 13h294q15 0 32 -12t17 -32v-1397q0 -44 -49 -44h-294q-44 0 -44 44v1397zM6 1802q19 27 45 49t56 37.5t62 23.5t64 8q18 0 39 -4t46 -14t56 -26.5t69 -41.5q11 -7 21.5 -11t23.5 -4q21 0 35 8.5t26 21.5l33 40q9 13 19.5 13.5t19.5 -8.5l103 -90
q11 -11 14.5 -19t-6.5 -21l-30 -39q-40 -55 -99 -86t-125 -31q-39 0 -79 13.5t-77 36.5l-55 35q-11 7 -21 11t-24 4q-20 0 -34.5 -8t-25.5 -21l-31 -40q-6 -10 -21 -11.5t-24 7.5l-103 87q-5 5 -8.5 9.5t-3.5 13.5q0 1 0.5 4t4 9t10.5 16.5t20 27.5z" />
    <glyph glyph-name="Jcircumflex" unicode="&#x134;" horiz-adv-x="903" 
d="M350 1445q0 37 39 40h295q54 0 54 -52v-1370q0 -99 -39.5 -185.5t-106.5 -151t-155.5 -101.5t-186.5 -37q-58 0 -114 13t-106.5 38.5t-94 63t-76.5 86.5q-3 1 -3 16q0 26 16 38l174 163q8 7 17 11.5t17 4.5q15 0 28.5 -11t30 -24.5t38.5 -24.5t53 -11q23 0 45 9t38.5 24
t26.5 35.5t10 43.5v1382zM501 1980q7 5 11 7t11 2q8 0 20 -9l257 -256q8 -6 8 -23q0 -9 -9 -19l-88 -90q-11 -11 -27 -11q-13 0 -22 9l-139 142l-142 -143q-11 -11 -23.5 -8t-20.5 11l-90 87q-5 5 -6.5 10.5t-2.5 11.5q0 8 2.5 13t6.5 9z" />
    <glyph glyph-name="Gcommaaccent" unicode="&#x122;" horiz-adv-x="1502" 
d="M1098 1066q-51 36 -109 56t-124 20q-83 0 -152 -31.5t-118.5 -85.5t-77.5 -126.5t-28 -154.5t28 -154t77.5 -125.5t118.5 -84.5t152 -31q35 0 69.5 5t73.5 13v262q0 19 11 31.5t33 12.5h272q15 0 32 -12t17 -32v-484q0 -27 -29 -44q-47 -32 -104 -55t-119 -38
t-125.5 -22.5t-123.5 -7.5q-106 0 -203.5 27t-182.5 77t-154.5 119.5t-119.5 154t-77 182t-27 203.5t27 203.5t77 183t119.5 155.5t154.5 119.5t182.5 77t203.5 27.5q120 0 226.5 -33.5t200.5 -96.5q17 -10 26 -26.5t-4 -37.5l-162 -234q-13 -16 -26 -21.5t-35 8.5z
M708 -253q0 17 10.5 28t29.5 11h236q15 0 28.5 -10.5t13.5 -28.5v-257q0 -85 -43.5 -159t-125.5 -122q-1 -1 -12 -1q-13 0 -20 3t-13 8l-61 52q-10 8 -13.5 15t-3.5 15q0 12 12 23t27 25.5t27 34t12 47.5v39q0 15 -16 19h-51q-37 1 -37 39v219z" />
    <glyph glyph-name="Lcaron" unicode="&#x13d;" horiz-adv-x="1179" 
d="M126 1442q0 18 12 31t33 13h296q17 0 31 -12t15 -32v-1088h550q18 0 31 -12t13 -33v-263q0 -17 -11.5 -31t-32.5 -15h-893q-44 0 -44 44v1398zM762 1443q0 20 11 32t33 12h264q17 0 32 -12t15 -32v-287q0 -94 -49 -177.5t-140 -134.5q-3 -3 -14 -3q-14 0 -22.5 3.5
t-13.5 10.5l-69 57q-11 8 -14.5 16.5t-3.5 16.5q0 13 13.5 26t30 29.5t30 38t13.5 51.5v44q0 19 -18 21h-57q-41 2 -41 44v244z" />
    <glyph glyph-name="Lcommaaccent" unicode="&#x13b;" horiz-adv-x="1179" 
d="M126 1442q0 18 12 31t33 13h296q17 0 31 -12t15 -32v-1088h550q18 0 31 -12t13 -33v-263q0 -17 -11.5 -31t-32.5 -15h-893q-44 0 -44 44v1398zM483 -253q0 17 10.5 28t29.5 11h236q15 0 28.5 -10.5t13.5 -28.5v-257q0 -85 -43.5 -159t-125.5 -122q-1 -1 -12 -1
q-13 0 -20 3t-13 8l-61 52q-10 8 -13.5 15t-3.5 15q0 12 12 23t27 25.5t27 34t12 47.5v39q0 15 -16 19h-51q-37 1 -37 39v219z" />
    <glyph glyph-name="Ldot" unicode="&#x13f;" horiz-adv-x="1179" 
d="M126 1442q0 18 12 31t33 13h296q17 0 31 -12t15 -32v-1088h550q18 0 31 -12t13 -33v-263q0 -17 -11.5 -31t-32.5 -15h-893q-44 0 -44 44v1398zM806 946q0 42 42 42h196q14 0 27.5 -11t13.5 -31v-189q0 -18 -11.5 -33.5t-29.5 -15.5h-196q-42 0 -42 49v189z" />
    <glyph glyph-name="Obreve" unicode="&#x14e;" horiz-adv-x="1705" 
d="M478 742q0 -83 28 -155t78.5 -125.5t119.5 -84t152 -30.5t152.5 30.5t120 84t78.5 125.5t28 155q0 82 -28 154.5t-78.5 126.5t-120 85t-152.5 31t-152 -31t-119.5 -85t-78.5 -126.5t-28 -154.5zM92 741q0 106 27 203.5t77 183t119.5 155.5t154.5 119.5t182.5 77
t203.5 27.5q105 0 203 -27.5t183 -77t155 -119.5t119.5 -155.5t77 -183t27.5 -203.5t-27.5 -203.5t-77 -182t-119.5 -154t-155 -119.5t-183 -77t-203 -27q-106 0 -203.5 27t-182.5 77t-154.5 119.5t-119.5 154t-77 182t-27 203.5zM856 1620q-59 1 -109 22.5t-87 56.5
t-58 79.5t-21 92.5q0 17 11.5 27t26.5 10h144q11 0 17 -6.5t6 -15.5q0 -23 18 -41.5t56 -18.5q34 0 52.5 19t18.5 41q0 9 5 15.5t16 6.5h146q15 0 26.5 -10t11.5 -27q0 -49 -21.5 -94t-59.5 -79.5t-89 -55.5t-110 -22z" />
    <glyph glyph-name="Ocircumflex" unicode="&#xd4;" horiz-adv-x="1705" 
d="M478 742q0 -83 28 -155t78.5 -125.5t119.5 -84t152 -30.5t152.5 30.5t120 84t78.5 125.5t28 155q0 82 -28 154.5t-78.5 126.5t-120 85t-152.5 31t-152 -31t-119.5 -85t-78.5 -126.5t-28 -154.5zM92 741q0 106 27 203.5t77 183t119.5 155.5t154.5 119.5t182.5 77
t203.5 27.5q105 0 203 -27.5t183 -77t155 -119.5t119.5 -155.5t77 -183t27.5 -203.5t-27.5 -203.5t-77 -182t-119.5 -154t-155 -119.5t-183 -77t-203 -27q-106 0 -203.5 27t-182.5 77t-154.5 119.5t-119.5 154t-77 182t-27 203.5zM846 1986q7 5 11 7t11 2q8 0 20 -9
l257 -256q8 -6 8 -23q0 -9 -9 -19l-88 -90q-11 -11 -27 -11q-13 0 -22 9l-139 142l-142 -143q-11 -11 -23.5 -8t-20.5 11l-90 87q-5 5 -6.5 10.5t-2.5 11.5q0 8 2.5 13t6.5 9z" />
    <glyph glyph-name="Ograve" unicode="&#xd2;" horiz-adv-x="1705" 
d="M478 742q0 -83 28 -155t78.5 -125.5t119.5 -84t152 -30.5t152.5 30.5t120 84t78.5 125.5t28 155q0 82 -28 154.5t-78.5 126.5t-120 85t-152.5 31t-152 -31t-119.5 -85t-78.5 -126.5t-28 -154.5zM92 741q0 106 27 203.5t77 183t119.5 155.5t154.5 119.5t182.5 77
t203.5 27.5q105 0 203 -27.5t183 -77t155 -119.5t119.5 -155.5t77 -183t27.5 -203.5t-27.5 -203.5t-77 -182t-119.5 -154t-155 -119.5t-183 -77t-203 -27q-106 0 -203.5 27t-182.5 77t-154.5 119.5t-119.5 154t-77 182t-27 203.5zM971 1681q2 -9 5 -22t3 -24t-5.5 -19
t-20.5 -8h-219q-19 0 -30.5 10t-23.5 32l-98 215q-5 11 -7 22.5t0.5 20.5t10 15t22.5 6h258q17 0 32.5 -9.5t20.5 -32.5z" />
    <glyph glyph-name="Ohungarumlaut" unicode="&#x150;" horiz-adv-x="1705" 
d="M478 742q0 -83 28 -155t78.5 -125.5t119.5 -84t152 -30.5t152.5 30.5t120 84t78.5 125.5t28 155q0 82 -28 154.5t-78.5 126.5t-120 85t-152.5 31t-152 -31t-119.5 -85t-78.5 -126.5t-28 -154.5zM92 741q0 106 27 203.5t77 183t119.5 155.5t154.5 119.5t182.5 77
t203.5 27.5q105 0 203 -27.5t183 -77t155 -119.5t119.5 -155.5t77 -183t27.5 -203.5t-27.5 -203.5t-77 -182t-119.5 -154t-155 -119.5t-183 -77t-203 -27q-106 0 -203.5 27t-182.5 77t-154.5 119.5t-119.5 154t-77 182t-27 203.5zM587 1885q19 42 53 42h212q17 0 24.5 -6
t8.5 -15t-2.5 -20.5t-8.5 -22.5l-88 -205q-12 -22 -23.5 -32t-30.5 -10h-219q-26 0 -26 22q0 8 1 17t8 20zM1039 1885q19 42 53 42h212q17 0 24.5 -6t8.5 -15t-2.5 -20.5t-8.5 -22.5l-88 -205q-12 -22 -23.5 -32t-30.5 -10h-219q-26 0 -26 22q0 8 1 17t8 20z" />
    <glyph glyph-name="Omacron" unicode="&#x14c;" horiz-adv-x="1758" 
d="M478 742q0 -83 28 -155t78.5 -125.5t119.5 -84t152 -30.5t152.5 30.5t120 84t78.5 125.5t28 155q0 82 -28 154.5t-78.5 126.5t-120 85t-152.5 31t-152 -31t-119.5 -85t-78.5 -126.5t-28 -154.5zM92 741q0 106 27 203.5t77 183t119.5 155.5t154.5 119.5t182.5 77
t203.5 27.5q105 0 203 -27.5t183 -77t155 -119.5t119.5 -155.5t77 -183t27.5 -203.5t-27.5 -203.5t-77 -182t-119.5 -154t-155 -119.5t-183 -77t-203 -27q-106 0 -203.5 27t-182.5 77t-154.5 119.5t-119.5 154t-77 182t-27 203.5zM445 1841q0 35 35 35h779q15 0 25 -8.5
t10 -26.5v-154q0 -12 -9 -26t-26 -14h-779q-35 0 -35 40v154z" />
    <glyph glyph-name="Oslashacute" unicode="&#x1fe;" horiz-adv-x="1721" 
d="M478 742q0 -83 28 -155t78.5 -125.5t119.5 -84t152 -30.5t152.5 30.5t120 84t78.5 125.5t28 155q0 82 -28 154.5t-78.5 126.5t-120 85t-152.5 31t-152 -31t-119.5 -85t-78.5 -126.5t-28 -154.5zM92 741q0 106 27 203.5t77 183t119.5 155.5t154.5 119.5t182.5 77
t203.5 27.5q38 0 74 -3.5t72 -10.5l32 71q8 18 23.5 31t40.5 13h277q20 0 35.5 -8t15.5 -23q0 -11 -2 -13l-99 -218q67 -53 122 -119.5t93.5 -143.5t59.5 -163.5t21 -178.5q0 -106 -27.5 -203.5t-77 -182t-119.5 -154t-155 -119.5t-183 -77t-203 -27q-76 0 -148 15l-35 -79
q-11 -25 -21 -34.5t-31 -9.5h-300q-41 0 -41 26q0 2 1 4l3 14l102 225q-67 52 -121.5 118.5t-92.5 143t-59 162.5t-21 178zM774 1928q5 23 20.5 32.5t32.5 9.5h258q15 0 22.5 -6t10 -15t0.5 -20.5t-7 -22.5l-98 -215q-12 -22 -23.5 -32t-30.5 -10h-219q-15 0 -20.5 8
t-5.5 19t3 24t5 22z" />
    <glyph glyph-name="Otilde" unicode="&#xd5;" horiz-adv-x="1705" 
d="M478 742q0 -83 28 -155t78.5 -125.5t119.5 -84t152 -30.5t152.5 30.5t120 84t78.5 125.5t28 155q0 82 -28 154.5t-78.5 126.5t-120 85t-152.5 31t-152 -31t-119.5 -85t-78.5 -126.5t-28 -154.5zM92 741q0 106 27 203.5t77 183t119.5 155.5t154.5 119.5t182.5 77
t203.5 27.5q105 0 203 -27.5t183 -77t155 -119.5t119.5 -155.5t77 -183t27.5 -203.5t-27.5 -203.5t-77 -182t-119.5 -154t-155 -119.5t-183 -77t-203 -27q-106 0 -203.5 27t-182.5 77t-154.5 119.5t-119.5 154t-77 182t-27 203.5zM519 1807q19 27 45 49t56 37.5t62 23.5
t64 8q18 0 39 -4t46 -14t56 -26.5t69 -41.5q11 -7 21.5 -11t23.5 -4q21 0 35 8.5t26 21.5l33 40q9 13 19.5 13.5t19.5 -8.5l103 -90q11 -11 14.5 -19t-6.5 -21l-30 -39q-40 -55 -99 -86t-125 -31q-39 0 -79 13.5t-77 36.5l-55 35q-11 7 -21 11t-24 4q-20 0 -34.5 -8
t-25.5 -21l-31 -40q-6 -10 -21 -11.5t-24 7.5l-103 87q-5 5 -8.5 9.5t-3.5 13.5q0 1 0.5 4t4 9t10.5 16.5t20 27.5z" />
    <glyph glyph-name="Racute" unicode="&#x154;" horiz-adv-x="1407" 
d="M163 1439q0 21 11 33.5t33 12.5h646q103 0 193 -38.5t157 -104.5t105.5 -154.5t38.5 -188.5q0 -68 -18.5 -129.5t-51.5 -115t-78.5 -97t-99.5 -74.5l257 -484q7 -14 18 -33t11 -33q0 -16 -10.5 -24.5t-28.5 -8.5h-343q-17 0 -30.5 10t-17.5 27l-243 457h-162v-451
q0 -43 -46 -43h-297q-20 0 -32 10.5t-12 32.5v1396zM946 995q0 30 -11 60t-31 55t-48 42t-62 22q-28 2 -52.5 3.5t-53.5 1.5h-138v-367h184q18 0 32 1t31 3q35 4 63 20.5t47 41t29 55t10 62.5zM615 1888q5 23 20.5 32.5t32.5 9.5h258q15 0 22.5 -6t10 -15t0.5 -20.5
t-7 -22.5l-98 -215q-12 -22 -23.5 -32t-30.5 -10h-219q-15 0 -20.5 8t-5.5 19t3 24t5 22z" />
    <glyph glyph-name="Rcaron" unicode="&#x158;" horiz-adv-x="1407" 
d="M163 1439q0 21 11 33.5t33 12.5h646q103 0 193 -38.5t157 -104.5t105.5 -154.5t38.5 -188.5q0 -68 -18.5 -129.5t-51.5 -115t-78.5 -97t-99.5 -74.5l257 -484q7 -14 18 -33t11 -33q0 -16 -10.5 -24.5t-28.5 -8.5h-343q-17 0 -30.5 10t-17.5 27l-243 457h-162v-451
q0 -43 -46 -43h-297q-20 0 -32 10.5t-12 32.5v1396zM946 995q0 30 -11 60t-31 55t-48 42t-62 22q-28 2 -52.5 3.5t-53.5 1.5h-138v-367h184q18 0 32 1t31 3q35 4 63 20.5t47 41t29 55t10 62.5zM719 1581q-7 -5 -11 -7t-11 -2q-8 0 -20 9l-257 256q-8 6 -8 23q0 8 9 19l88 90
q11 11 27 11q13 0 22 -9l139 -142l142 143q11 11 23.5 8t20.5 -11l90 -87q5 -5 6.5 -10.5t2.5 -11.5q0 -8 -2.5 -13t-6.5 -9z" />
    <glyph glyph-name="Rcommaaccent" unicode="&#x156;" horiz-adv-x="1421" 
d="M163 1439q0 21 11 33.5t33 12.5h646q103 0 193 -38.5t157 -104.5t105.5 -154.5t38.5 -188.5q0 -68 -18.5 -129.5t-51.5 -115t-78.5 -97t-99.5 -74.5l257 -484q7 -14 18 -33t11 -33q0 -16 -10.5 -24.5t-28.5 -8.5h-343q-17 0 -30.5 10t-17.5 27l-243 457h-162v-451
q0 -43 -46 -43h-297q-20 0 -32 10.5t-12 32.5v1396zM946 995q0 30 -11 60t-31 55t-48 42t-62 22q-28 2 -52.5 3.5t-53.5 1.5h-138v-367h184q18 0 32 1t31 3q35 4 63 20.5t47 41t29 55t10 62.5zM555 -253q0 17 10.5 28t29.5 11h236q15 0 28.5 -10.5t13.5 -28.5v-257
q0 -85 -43.5 -159t-125.5 -122q-1 -1 -12 -1q-13 0 -20 3t-13 8l-61 52q-10 8 -13.5 15t-3.5 15q0 12 12 23t27 25.5t27 34t12 47.5v39q0 15 -16 19h-51q-37 1 -37 39v219z" />
    <glyph glyph-name="Scaron" unicode="&#x160;" horiz-adv-x="1312" 
d="M348 479q17 -14 43.5 -37.5t60.5 -46.5q51 -34 101 -53t105 -19q51 0 85.5 11.5t54.5 30.5t28.5 44t8.5 53q0 31 -23.5 55.5t-57.5 43.5t-71 32.5t-64 22.5q-120 42 -210 90.5t-150 108t-90 131t-30 159.5q0 93 37.5 169t107 130t167.5 83.5t219 29.5q91 0 174.5 -20.5
t164.5 -65.5q34 -20 64.5 -41.5t53.5 -41.5t36.5 -38t13.5 -31t-6.5 -24t-19.5 -25l-153 -163q-17 -17 -34 -17q-14 0 -25.5 8t-25.5 20l-9 8q-20 17 -44.5 35t-52.5 32.5t-59 24t-63 9.5q-33 0 -62 -5.5t-51 -17.5t-35 -31.5t-13 -47.5t14 -48.5t42 -38t69.5 -33
t96.5 -33.5q106 -35 195.5 -73.5t154.5 -91t101.5 -125.5t36.5 -177q0 -110 -45 -199.5t-123.5 -152.5t-184.5 -97.5t-228 -34.5q-115 0 -226 41t-207 110q-40 29 -67.5 57t-43.5 45l-3 3q-1 2 -2 2.5t-2 1.5q-1 2 -2 2.5t-2 1.5q-23 25 -23 40q0 17 23 38l173 165
q21 15 34 15q9 0 19 -6t24 -18zM691 1604q-7 -5 -11 -7t-11 -2q-8 0 -20 9l-257 256q-8 6 -8 23q0 8 9 19l88 90q11 11 27 11q13 0 22 -9l139 -142l142 143q11 11 23.5 8t20.5 -11l90 -87q5 -5 6.5 -10.5t2.5 -11.5q0 -8 -2.5 -13t-6.5 -9z" />
    <glyph glyph-name="Scedilla" unicode="&#x15e;" horiz-adv-x="1312" 
d="M348 479q17 -14 43.5 -37.5t60.5 -46.5q51 -34 101 -53t105 -19q51 0 85.5 11.5t54.5 30.5t28.5 44t8.5 53q0 31 -23.5 55.5t-57.5 43.5t-71 32.5t-64 22.5q-120 42 -210 90.5t-150 108t-90 131t-30 159.5q0 93 37.5 169t107 130t167.5 83.5t219 29.5q91 0 174.5 -20.5
t164.5 -65.5q34 -20 64.5 -41.5t53.5 -41.5t36.5 -38t13.5 -31t-6.5 -24t-19.5 -25l-153 -163q-17 -17 -34 -17q-14 0 -25.5 8t-25.5 20l-9 8q-20 17 -44.5 35t-52.5 32.5t-59 24t-63 9.5q-33 0 -62 -5.5t-51 -17.5t-35 -31.5t-13 -47.5t14 -48.5t42 -38t69.5 -33
t96.5 -33.5q106 -35 195.5 -73.5t154.5 -91t101.5 -125.5t36.5 -177q0 -110 -45 -199.5t-123.5 -152.5t-184.5 -97.5t-228 -34.5q-115 0 -226 41t-207 110q-40 29 -67.5 57t-43.5 45l-3 3q-1 2 -2 2.5t-2 1.5q-1 2 -2 2.5t-2 1.5q-23 25 -23 40q0 17 23 38l173 165
q21 15 34 15q9 0 19 -6t24 -18zM800 0q-22 -15 -22 -35q0 -16 15.5 -29.5t38 -28t49.5 -31t49.5 -38t38 -49t15.5 -64.5q0 -36 -24.5 -77t-69 -81t-106.5 -74.5t-138 -57.5h-5q-15 0 -33 22t-34 50t-27 54.5t-11 35.5q0 16 11 22q171 43 171 106q0 22 -15 39t-37.5 32.5
t-48.5 31t-48.5 33.5t-37.5 40t-15 51q0 11 3 22.5t17 25.5h264z" />
    <glyph glyph-name="Scircumflex" unicode="&#x15c;" horiz-adv-x="1312" 
d="M348 479q17 -14 43.5 -37.5t60.5 -46.5q51 -34 101 -53t105 -19q51 0 85.5 11.5t54.5 30.5t28.5 44t8.5 53q0 31 -23.5 55.5t-57.5 43.5t-71 32.5t-64 22.5q-120 42 -210 90.5t-150 108t-90 131t-30 159.5q0 93 37.5 169t107 130t167.5 83.5t219 29.5q91 0 174.5 -20.5
t164.5 -65.5q34 -20 64.5 -41.5t53.5 -41.5t36.5 -38t13.5 -31t-6.5 -24t-19.5 -25l-153 -163q-17 -17 -34 -17q-14 0 -25.5 8t-25.5 20l-9 8q-20 17 -44.5 35t-52.5 32.5t-59 24t-63 9.5q-33 0 -62 -5.5t-51 -17.5t-35 -31.5t-13 -47.5t14 -48.5t42 -38t69.5 -33
t96.5 -33.5q106 -35 195.5 -73.5t154.5 -91t101.5 -125.5t36.5 -177q0 -110 -45 -199.5t-123.5 -152.5t-184.5 -97.5t-228 -34.5q-115 0 -226 41t-207 110q-40 29 -67.5 57t-43.5 45l-3 3q-1 2 -2 2.5t-2 1.5q-1 2 -2 2.5t-2 1.5q-23 25 -23 40q0 17 23 38l173 165
q21 15 34 15q9 0 19 -6t24 -18zM644 1980q7 5 11 7t11 2q8 0 20 -9l257 -256q8 -6 8 -23q0 -9 -9 -19l-88 -90q-11 -11 -27 -11q-13 0 -22 9l-139 142l-142 -143q-11 -11 -23.5 -8t-20.5 11l-90 87q-5 5 -6.5 10.5t-2.5 11.5q0 8 2.5 13t6.5 9z" />
    <glyph glyph-name="Scommaaccent" unicode="&#x218;" horiz-adv-x="1312" 
d="M348 479q17 -14 43.5 -37.5t60.5 -46.5q51 -34 101 -53t105 -19q51 0 85.5 11.5t54.5 30.5t28.5 44t8.5 53q0 31 -23.5 55.5t-57.5 43.5t-71 32.5t-64 22.5q-120 42 -210 90.5t-150 108t-90 131t-30 159.5q0 93 37.5 169t107 130t167.5 83.5t219 29.5q91 0 174.5 -20.5
t164.5 -65.5q34 -20 64.5 -41.5t53.5 -41.5t36.5 -38t13.5 -31t-6.5 -24t-19.5 -25l-153 -163q-17 -17 -34 -17q-14 0 -25.5 8t-25.5 20l-9 8q-20 17 -44.5 35t-52.5 32.5t-59 24t-63 9.5q-33 0 -62 -5.5t-51 -17.5t-35 -31.5t-13 -47.5t14 -48.5t42 -38t69.5 -33
t96.5 -33.5q106 -35 195.5 -73.5t154.5 -91t101.5 -125.5t36.5 -177q0 -110 -45 -199.5t-123.5 -152.5t-184.5 -97.5t-228 -34.5q-115 0 -226 41t-207 110q-40 29 -67.5 57t-43.5 45l-3 3q-1 2 -2 2.5t-2 1.5q-1 2 -2 2.5t-2 1.5q-23 25 -23 40q0 17 23 38l173 165
q21 15 34 15q9 0 19 -6t24 -18zM478 -253q0 17 10.5 28t29.5 11h236q15 0 28.5 -10.5t13.5 -28.5v-257q0 -85 -43.5 -159t-125.5 -122q-1 -1 -12 -1q-13 0 -20 3t-13 8l-61 52q-10 8 -13.5 15t-3.5 15q0 12 12 23t27 25.5t27 34t12 47.5v39q0 15 -16 19h-51q-37 1 -37 39
v219z" />
    <glyph glyph-name="Tcaron" unicode="&#x164;" horiz-adv-x="1332" 
d="M80 1441q0 20 13.5 32t33.5 12h1077q18 0 32 -11t16 -33v-249q0 -18 -12.5 -34.5t-35.5 -16.5h-345v-1094q0 -18 -13 -32.5t-34 -14.5h-294q-17 0 -32 13.5t-15 33.5v1094h-344q-20 0 -33.5 13t-13.5 38v249zM688 1598q-7 -5 -11 -7t-11 -2q-8 0 -20 9l-257 256
q-8 6 -8 23q0 8 9 19l88 90q11 11 27 11q13 0 22 -9l139 -142l142 143q11 11 23.5 8t20.5 -11l90 -87q5 -5 6.5 -10.5t2.5 -11.5q0 -8 -2.5 -13t-6.5 -9z" />
    <glyph glyph-name="Uacute" unicode="&#xda;" horiz-adv-x="1550" 
d="M544 593q0 -74 20.5 -125.5t54 -84t78 -47.5t92.5 -15q50 0 94.5 17.5t78 52t53 85.5t19.5 117v848q0 18 12.5 31t33.5 13h292q23 0 36 -13.5t13 -30.5v-843q0 -175 -51.5 -294t-138.5 -191.5t-201.5 -104t-240.5 -31.5t-241 32.5t-202 106t-138.5 192t-51.5 290.5v843
q0 17 11.5 30.5t28.5 13.5h300q15 0 31.5 -12.5t16.5 -31.5v-848zM723 1886q5 23 20.5 32.5t32.5 9.5h258q15 0 22.5 -6t10 -15t0.5 -20.5t-7 -22.5l-98 -215q-12 -22 -23.5 -32t-30.5 -10h-219q-15 0 -20.5 8t-5.5 19t3 24t5 22z" />
    <glyph glyph-name="Ubreve" unicode="&#x16c;" horiz-adv-x="1550" 
d="M544 593q0 -74 20.5 -125.5t54 -84t78 -47.5t92.5 -15q50 0 94.5 17.5t78 52t53 85.5t19.5 117v848q0 18 12.5 31t33.5 13h292q23 0 36 -13.5t13 -30.5v-843q0 -175 -51.5 -294t-138.5 -191.5t-201.5 -104t-240.5 -31.5t-241 32.5t-202 106t-138.5 192t-51.5 290.5v843
q0 17 11.5 30.5t28.5 13.5h300q15 0 31.5 -12.5t16.5 -31.5v-848zM777 1605q-59 1 -109 22.5t-87 56.5t-58 79.5t-21 92.5q0 17 11.5 27t26.5 10h144q11 0 17 -6.5t6 -15.5q0 -23 18 -41.5t56 -18.5q34 0 52.5 19t18.5 41q0 9 5 15.5t16 6.5h146q15 0 26.5 -10t11.5 -27
q0 -49 -21.5 -94t-59.5 -79.5t-89 -55.5t-110 -22z" />
    <glyph glyph-name="Ucircumflex" unicode="&#xdb;" horiz-adv-x="1550" 
d="M544 593q0 -74 20.5 -125.5t54 -84t78 -47.5t92.5 -15q50 0 94.5 17.5t78 52t53 85.5t19.5 117v848q0 18 12.5 31t33.5 13h292q23 0 36 -13.5t13 -30.5v-843q0 -175 -51.5 -294t-138.5 -191.5t-201.5 -104t-240.5 -31.5t-241 32.5t-202 106t-138.5 192t-51.5 290.5v843
q0 17 11.5 30.5t28.5 13.5h300q15 0 31.5 -12.5t16.5 -31.5v-848zM764 1984q7 5 11 7t11 2q8 0 20 -9l257 -256q8 -6 8 -23q0 -9 -9 -19l-88 -90q-11 -11 -27 -11q-13 0 -22 9l-139 142l-142 -143q-11 -11 -23.5 -8t-20.5 11l-90 87q-5 5 -6.5 10.5t-2.5 11.5q0 8 2.5 13
t6.5 9z" />
    <glyph glyph-name="Ugrave" unicode="&#xd9;" horiz-adv-x="1550" 
d="M544 593q0 -74 20.5 -125.5t54 -84t78 -47.5t92.5 -15q50 0 94.5 17.5t78 52t53 85.5t19.5 117v848q0 18 12.5 31t33.5 13h292q23 0 36 -13.5t13 -30.5v-843q0 -175 -51.5 -294t-138.5 -191.5t-201.5 -104t-240.5 -31.5t-241 32.5t-202 106t-138.5 192t-51.5 290.5v843
q0 17 11.5 30.5t28.5 13.5h300q15 0 31.5 -12.5t16.5 -31.5v-848zM962 1680q2 -9 5 -22t3 -24t-5.5 -19t-20.5 -8h-219q-19 0 -30.5 10t-23.5 32l-98 215q-5 11 -7 22.5t0.5 20.5t10 15t22.5 6h258q17 0 32.5 -9.5t20.5 -32.5z" />
    <glyph glyph-name="Uhungarumlaut" unicode="&#x170;" horiz-adv-x="1550" 
d="M544 593q0 -74 20.5 -125.5t54 -84t78 -47.5t92.5 -15q50 0 94.5 17.5t78 52t53 85.5t19.5 117v848q0 18 12.5 31t33.5 13h292q23 0 36 -13.5t13 -30.5v-843q0 -175 -51.5 -294t-138.5 -191.5t-201.5 -104t-240.5 -31.5t-241 32.5t-202 106t-138.5 192t-51.5 290.5v843
q0 17 11.5 30.5t28.5 13.5h300q15 0 31.5 -12.5t16.5 -31.5v-848zM496 1877q19 42 53 42h212q17 0 24.5 -6t8.5 -15t-2.5 -20.5t-8.5 -22.5l-88 -205q-12 -22 -23.5 -32t-30.5 -10h-219q-26 0 -26 22q0 8 1 17t8 20zM948 1877q19 42 53 42h212q17 0 24.5 -6t8.5 -15
t-2.5 -20.5t-8.5 -22.5l-88 -205q-12 -22 -23.5 -32t-30.5 -10h-219q-26 0 -26 22q0 8 1 17t8 20z" />
    <glyph glyph-name="Umacron" unicode="&#x16a;" horiz-adv-x="1504" 
d="M544 593q0 -74 20.5 -125.5t54 -84t78 -47.5t92.5 -15q50 0 94.5 17.5t78 52t53 85.5t19.5 117v848q0 18 12.5 31t33.5 13h292q23 0 36 -13.5t13 -30.5v-843q0 -175 -51.5 -294t-138.5 -191.5t-201.5 -104t-240.5 -31.5t-241 32.5t-202 106t-138.5 192t-51.5 290.5v843
q0 17 11.5 30.5t28.5 13.5h300q15 0 31.5 -12.5t16.5 -31.5v-848zM350 1840q0 35 35 35h779q15 0 25 -8.5t10 -26.5v-154q0 -12 -9 -26t-26 -14h-779q-35 0 -35 40v154z" />
    <glyph glyph-name="Uogonek" unicode="&#x172;" horiz-adv-x="1504" 
d="M544 593q0 -74 20.5 -125.5t54 -84t78 -47.5t92.5 -15q50 0 94.5 17.5t78 52t53 85.5t19.5 117v848q0 18 12.5 31t33.5 13h292q23 0 36 -13.5t13 -30.5v-843q0 -175 -51.5 -294t-138.5 -191.5t-201.5 -104t-240.5 -31.5t-241 32.5t-202 106t-138.5 192t-51.5 290.5v843
q0 17 11.5 30.5t28.5 13.5h300q15 0 31.5 -12.5t16.5 -31.5v-848zM898 0q14 -14 17 -25.5t3 -22.5q0 -29 -15 -51t-37.5 -40t-48.5 -33.5t-48.5 -31t-37.5 -32.5t-15 -39q0 -63 171 -106q11 -6 11 -22q0 -9 -11 -35.5t-27 -54.5t-34 -50t-33 -22h-5q-76 23 -138.5 57.5
t-107 74.5t-69 81t-24.5 77q0 37 15.5 64.5t38.5 49t49.5 38t49.5 31t38.5 28t15.5 29.5q0 20 -22 35h264z" />
    <glyph glyph-name="Uring" unicode="&#x16e;" horiz-adv-x="1550" 
d="M544 593q0 -74 20.5 -125.5t54 -84t78 -47.5t92.5 -15q50 0 94.5 17.5t78 52t53 85.5t19.5 117v848q0 18 12.5 31t33.5 13h292q23 0 36 -13.5t13 -30.5v-843q0 -175 -51.5 -294t-138.5 -191.5t-201.5 -104t-240.5 -31.5t-241 32.5t-202 106t-138.5 192t-51.5 290.5v843
q0 17 11.5 30.5t28.5 13.5h300q15 0 31.5 -12.5t16.5 -31.5v-848zM779 1983q43 0 81.5 -16.5t67.5 -45.5t45.5 -67.5t16.5 -81.5q0 -44 -16.5 -82t-45.5 -66.5t-67.5 -44.5t-81.5 -16q-44 0 -82 16t-66.5 44.5t-44.5 66.5t-16 82q0 43 16 81.5t44.5 67.5t66.5 45.5t82 16.5z
M780 1833q-26 0 -42 -17t-16 -43t16 -42t42 -16t43 16t17 42t-17 43t-43 17z" />
    <glyph glyph-name="Utilde" unicode="&#x168;" horiz-adv-x="1550" 
d="M544 593q0 -74 20.5 -125.5t54 -84t78 -47.5t92.5 -15q50 0 94.5 17.5t78 52t53 85.5t19.5 117v848q0 18 12.5 31t33.5 13h292q23 0 36 -13.5t13 -30.5v-843q0 -175 -51.5 -294t-138.5 -191.5t-201.5 -104t-240.5 -31.5t-241 32.5t-202 106t-138.5 192t-51.5 290.5v843
q0 17 11.5 30.5t28.5 13.5h300q15 0 31.5 -12.5t16.5 -31.5v-848zM442 1801q19 27 45 49t56 37.5t62 23.5t64 8q18 0 39 -4t46 -14t56 -26.5t69 -41.5q11 -7 21.5 -11t23.5 -4q21 0 35 8.5t26 21.5l33 40q9 13 19.5 13.5t19.5 -8.5l103 -90q11 -11 14.5 -19t-6.5 -21
l-30 -39q-40 -55 -99 -86t-125 -31q-39 0 -79 13.5t-77 36.5l-55 35q-11 7 -21 11t-24 4q-20 0 -34.5 -8t-25.5 -21l-31 -40q-6 -10 -21 -11.5t-24 7.5l-103 87q-5 5 -8.5 9.5t-3.5 13.5q0 1 0.5 4t4 9t10.5 16.5t20 27.5z" />
    <glyph glyph-name="Wacute" unicode="&#x1e82;" horiz-adv-x="2156" 
d="M571 21q-10 17 -19 35t-16 36q-129 340 -257 674t-257 674q0 5 -1.5 9t-1.5 8q0 28 37 28h322q38 0 52 -38l306 -911l283 911q14 38 55 38h325q23 0 32.5 -8.5t9.5 -22.5q0 -8 -1 -11v-3l-178 -510l134 -393l324 910q14 38 55 38h315q23 0 32.5 -8.5t9.5 -22.5
q0 -8 -1 -11v-3q-68 -176 -139 -351t-142.5 -350t-142 -350.5t-137.5 -350.5q-4 -11 -18 -24.5t-34 -13.5h-3h-242q-22 0 -33.5 8.5t-16.5 22.5l-158 416q-34 -91 -67 -178.5t-66 -178.5q-5 -14 -11.5 -29.5t-15.5 -29t-20.5 -22.5t-26.5 -9h-3h-242q-32 0 -42 21z
M1118 1887q5 23 20.5 32.5t32.5 9.5h258q15 0 22.5 -6t10 -15t0.5 -20.5t-7 -22.5l-98 -215q-12 -22 -23.5 -32t-30.5 -10h-219q-15 0 -20.5 8t-5.5 19t3 24t5 22z" />
    <glyph glyph-name="Wdieresis" unicode="&#x1e84;" horiz-adv-x="2156" 
d="M571 21q-10 17 -19 35t-16 36q-129 340 -257 674t-257 674q0 5 -1.5 9t-1.5 8q0 28 37 28h322q38 0 52 -38l306 -911l283 911q14 38 55 38h325q23 0 32.5 -8.5t9.5 -22.5q0 -8 -1 -11v-3l-178 -510l134 -393l324 910q14 38 55 38h315q23 0 32.5 -8.5t9.5 -22.5
q0 -8 -1 -11v-3q-68 -176 -139 -351t-142.5 -350t-142 -350.5t-137.5 -350.5q-4 -11 -18 -24.5t-34 -13.5h-3h-242q-22 0 -33.5 8.5t-16.5 22.5l-158 416q-34 -91 -67 -178.5t-66 -178.5q-5 -14 -11.5 -29.5t-15.5 -29t-20.5 -22.5t-26.5 -9h-3h-242q-32 0 -42 21zM725 1885
q0 42 42 42h196q14 0 27.5 -11t13.5 -31v-189q0 -18 -11.5 -33.5t-29.5 -15.5h-196q-42 0 -42 49v189zM1161 1885q0 42 44 42h193q42 0 42 -42v-189q0 -18 -11 -33.5t-31 -15.5h-193q-44 0 -44 49v189z" />
    <glyph glyph-name="Wgrave" unicode="&#x1e80;" horiz-adv-x="2156" 
d="M571 21q-10 17 -19 35t-16 36q-129 340 -257 674t-257 674q0 5 -1.5 9t-1.5 8q0 28 37 28h322q38 0 52 -38l306 -911l283 911q14 38 55 38h325q23 0 32.5 -8.5t9.5 -22.5q0 -8 -1 -11v-3l-178 -510l134 -393l324 910q14 38 55 38h315q23 0 32.5 -8.5t9.5 -22.5
q0 -8 -1 -11v-3q-68 -176 -139 -351t-142.5 -350t-142 -350.5t-137.5 -350.5q-4 -11 -18 -24.5t-34 -13.5h-3h-242q-22 0 -33.5 8.5t-16.5 22.5l-158 416q-34 -91 -67 -178.5t-66 -178.5q-5 -14 -11.5 -29.5t-15.5 -29t-20.5 -22.5t-26.5 -9h-3h-242q-32 0 -42 21z
M1274 1681q2 -9 5 -22t3 -24t-5.5 -19t-20.5 -8h-219q-19 0 -30.5 10t-23.5 32l-98 215q-5 11 -7 22.5t0.5 20.5t10 15t22.5 6h258q17 0 32.5 -9.5t20.5 -32.5z" />
    <glyph glyph-name="Yacute" unicode="&#xdd;" horiz-adv-x="1410" 
d="M706 937l242 517q6 12 10 17.5t8 8t8.5 3t10.5 2.5h385q7 0 11.5 -4.5t4.5 -10.5q0 -11 -14 -25l-474 -839v-559q0 -47 -46 -47h-300q-20 0 -31 12.5t-11 34.5v561l-473 837q-13 13 -13 25q0 6 4 10.5t11 4.5h385q7 -2 11 -2.5t8 -3t8 -8t11 -17.5zM617 1888
q5 23 20.5 32.5t32.5 9.5h258q15 0 22.5 -6t10 -15t0.5 -20.5t-7 -22.5l-98 -215q-12 -22 -23.5 -32t-30.5 -10h-219q-15 0 -20.5 8t-5.5 19t3 24t5 22z" />
    <glyph glyph-name="Ycircumflex" unicode="&#x176;" horiz-adv-x="1410" 
d="M706 937l242 517q6 12 10 17.5t8 8t8.5 3t10.5 2.5h385q7 0 11.5 -4.5t4.5 -10.5q0 -11 -14 -25l-474 -839v-559q0 -47 -46 -47h-300q-20 0 -31 12.5t-11 34.5v561l-473 837q-13 13 -13 25q0 6 4 10.5t11 4.5h385q7 -2 11 -2.5t8 -3t8 -8t11 -17.5zM685 1983q7 5 11 7
t11 2q8 0 20 -9l257 -256q8 -6 8 -23q0 -9 -9 -19l-88 -90q-11 -11 -27 -11q-13 0 -22 9l-139 142l-142 -143q-11 -11 -23.5 -8t-20.5 11l-90 87q-5 5 -6.5 10.5t-2.5 11.5q0 8 2.5 13t6.5 9z" />
    <glyph glyph-name="Ydieresis" unicode="&#x178;" horiz-adv-x="1410" 
d="M706 937l242 517q6 12 10 17.5t8 8t8.5 3t10.5 2.5h385q7 0 11.5 -4.5t4.5 -10.5q0 -11 -14 -25l-474 -839v-559q0 -47 -46 -47h-300q-20 0 -31 12.5t-11 34.5v561l-473 837q-13 13 -13 25q0 6 4 10.5t11 4.5h385q7 -2 11 -2.5t8 -3t8 -8t11 -17.5zM352 1883q0 42 42 42
h196q14 0 27.5 -11t13.5 -31v-189q0 -18 -11.5 -33.5t-29.5 -15.5h-196q-42 0 -42 49v189zM788 1883q0 42 44 42h193q42 0 42 -42v-189q0 -18 -11 -33.5t-31 -15.5h-193q-44 0 -44 49v189z" />
    <glyph glyph-name="Ygrave" unicode="&#x1ef2;" horiz-adv-x="1410" 
d="M706 937l242 517q6 12 10 17.5t8 8t8.5 3t10.5 2.5h385q7 0 11.5 -4.5t4.5 -10.5q0 -11 -14 -25l-474 -839v-559q0 -47 -46 -47h-300q-20 0 -31 12.5t-11 34.5v561l-473 837q-13 13 -13 25q0 6 4 10.5t11 4.5h385q7 -2 11 -2.5t8 -3t8 -8t11 -17.5zM846 1681q2 -9 5 -22
t3 -24t-5.5 -19t-20.5 -8h-219q-19 0 -30.5 10t-23.5 32l-98 215q-5 11 -7 22.5t0.5 20.5t10 15t22.5 6h258q17 0 32.5 -9.5t20.5 -32.5z" />
    <glyph glyph-name="Zacute" unicode="&#x179;" horiz-adv-x="1432" 
d="M108 1441q0 20 12.5 32t34.5 12h1161q19 0 32.5 -11t13.5 -33v-202q0 -8 -0.5 -15t-5.5 -18l-724 -863h687q19 0 32 -11t13 -34v-249q0 -17 -12.5 -33t-32.5 -16h-1161q-20 0 -33.5 13t-13.5 36v215q0 16 7 26l722 851h-685q-22 0 -34.5 11.5t-12.5 37.5v251zM631 1888
q5 23 20.5 32.5t32.5 9.5h258q15 0 22.5 -6t10 -15t0.5 -20.5t-7 -22.5l-98 -215q-12 -22 -23.5 -32t-30.5 -10h-219q-15 0 -20.5 8t-5.5 19t3 24t5 22z" />
    <glyph glyph-name="Zcaron" unicode="&#x17d;" horiz-adv-x="1432" 
d="M108 1441q0 20 12.5 32t34.5 12h1161q19 0 32.5 -11t13.5 -33v-202q0 -8 -0.5 -15t-5.5 -18l-724 -863h687q19 0 32 -11t13 -34v-249q0 -17 -12.5 -33t-32.5 -16h-1161q-20 0 -33.5 13t-13.5 36v215q0 16 7 26l722 851h-685q-22 0 -34.5 11.5t-12.5 37.5v251zM785 1594
q-7 -5 -11 -7t-11 -2q-8 0 -20 9l-257 256q-8 6 -8 23q0 8 9 19l88 90q11 11 27 11q13 0 22 -9l139 -142l142 143q11 11 23.5 8t20.5 -11l90 -87q5 -5 6.5 -10.5t2.5 -11.5q0 -8 -2.5 -13t-6.5 -9z" />
    <glyph glyph-name="Zdotaccent" unicode="&#x17b;" horiz-adv-x="1432" 
d="M108 1441q0 20 12.5 32t34.5 12h1161q19 0 32.5 -11t13.5 -33v-202q0 -8 -0.5 -15t-5.5 -18l-724 -863h687q19 0 32 -11t13 -34v-249q0 -17 -12.5 -33t-32.5 -16h-1161q-20 0 -33.5 13t-13.5 36v215q0 16 7 26l722 851h-685q-22 0 -34.5 11.5t-12.5 37.5v251zM599 1895
q0 20 11 32t33 12h264q17 0 31.5 -12t14.5 -32v-242q0 -18 -11.5 -32t-34.5 -14h-264q-44 0 -44 46v242z" />
    <glyph glyph-name="Ncaron" unicode="&#x147;" horiz-adv-x="1639" 
d="M165 1441q0 18 11 31t33 13h327q14 0 29 -7t26 -24q127 -205 252 -404t253 -404v801q4 18 16 28t28 10h285q21 0 35 -11.5t14 -32.5v-1402q0 -20 -12 -29.5t-33 -9.5h-319q-13 0 -23 9t-21 24q-133 220 -263 435t-264 435v-859q0 -22 -10 -33t-36 -11h-284
q-23 0 -33.5 12.5t-10.5 30.5v1398zM841 1577q-7 -5 -11 -7t-11 -2q-8 0 -20 9l-257 256q-8 6 -8 23q0 8 9 19l88 90q11 11 27 11q13 0 22 -9l139 -142l142 143q11 11 23.5 8t20.5 -11l90 -87q5 -5 6.5 -10.5t2.5 -11.5q0 -8 -2.5 -13t-6.5 -9z" />
    <glyph glyph-name="Ncommaaccent" unicode="&#x145;" horiz-adv-x="1639" 
d="M165 1441q0 18 11 31t33 13h327q14 0 29 -7t26 -24q127 -205 252 -404t253 -404v801q4 18 16 28t28 10h285q21 0 35 -11.5t14 -32.5v-1402q0 -20 -12 -29.5t-33 -9.5h-319q-13 0 -23 9t-21 24q-133 220 -263 435t-264 435v-859q0 -22 -10 -33t-36 -11h-284
q-23 0 -33.5 12.5t-10.5 30.5v1398zM653 -253q0 17 10.5 28t29.5 11h236q15 0 28.5 -10.5t13.5 -28.5v-257q0 -85 -43.5 -159t-125.5 -122q-1 -1 -12 -1q-13 0 -20 3t-13 8l-61 52q-10 8 -13.5 15t-3.5 15q0 12 12 23t27 25.5t27 34t12 47.5v39q0 15 -16 19h-51
q-37 1 -37 39v219z" />
    <glyph glyph-name="Ntilde" unicode="&#xd1;" horiz-adv-x="1639" 
d="M165 1441q0 18 11 31t33 13h327q14 0 29 -7t26 -24q127 -205 252 -404t253 -404v801q4 18 16 28t28 10h285q21 0 35 -11.5t14 -32.5v-1402q0 -20 -12 -29.5t-33 -9.5h-319q-13 0 -23 9t-21 24q-133 220 -263 435t-264 435v-859q0 -22 -10 -33t-36 -11h-284
q-23 0 -33.5 12.5t-10.5 30.5v1398zM473 1808q19 27 45 49t56 37.5t62 23.5t64 8q18 0 39 -4t46 -14t56 -26.5t69 -41.5q11 -7 21.5 -11t23.5 -4q21 0 35 8.5t26 21.5l33 40q9 13 19.5 13.5t19.5 -8.5l103 -90q11 -11 14.5 -19t-6.5 -21l-30 -39q-40 -55 -99 -86t-125 -31
q-39 0 -79 13.5t-77 36.5l-55 35q-11 7 -21 11t-24 4q-20 0 -34.5 -8t-25.5 -21l-31 -40q-6 -10 -21 -11.5t-24 7.5l-103 87q-5 5 -8.5 9.5t-3.5 13.5q0 1 0.5 4t4 9t10.5 16.5t20 27.5z" />
    <glyph glyph-name="questiondown" unicode="&#xbf;" horiz-adv-x="1122" 
d="M388.181 616.16q0 38.9902 2.49902 61.9844q2.5 22.9941 9.99805 34.4922q7.49805 11.4971 21.9941 14.4961t38.4902 2.99902h233.943q21.9941 0 33.9922 -14.9961q11.9961 -14.9961 11.9961 -33.9912q0 -52.9873 -1.49902 -86.9795q-1.5 -33.9912 -4.49902 -55.9863
q-2.99902 -21.9941 -7.99805 -35.9912q-4.99902 -13.9961 -12.9971 -26.9932q-27.9932 -44.9893 -62.9844 -77.9814q-34.9912 -32.9912 -70.9824 -59.9844q-35.9912 -26.9941 -69.9834 -50.9883q-33.9912 -23.9941 -60.9844 -51.4873q-26.9941 -27.4932 -42.9902 -61.9844
q-15.9961 -34.4922 -15.9961 -81.4805q0 -31.9922 13.9971 -61.9854q13.9961 -29.9922 37.4902 -52.9863q23.4951 -22.9941 54.9873 -36.4912t65.4834 -13.4971q33.9922 0 64.9844 13.9971q30.9922 13.9961 54.9863 37.9902t37.9912 54.9873
q13.9961 30.9922 13.9961 63.9844v22.9941q0 16.9961 11.9971 24.4941t29.9932 9.49707q17.9951 2 38.4902 1t36.4912 -1h172.958q24.9941 0 34.4912 -13.4961q9.49805 -13.4971 9.49805 -27.4932v-32.9922q0 -104.975 -41.4902 -192.453
q-41.4893 -87.4785 -110.973 -150.463q-69.4834 -62.9854 -160.961 -97.9766t-191.453 -34.9912q-102.975 0 -193.952 36.9912q-90.9785 36.9902 -159.462 102.475t-107.974 154.962q-39.4902 89.4785 -39.4902 194.452q0 94.9775 23.9941 158.462t60.4854 106.474
q36.4912 42.9902 78.4814 71.4824q41.9893 28.4932 78.4805 54.9873q36.4912 26.4932 60.4854 56.4854q23.9941 29.9932 23.9941 74.9824zM739.095 983.07q0 -19.9951 -10.9971 -31.9922q-10.998 -11.9971 -32.9922 -11.9971h-263.936q-16.9961 0 -31.4922 11.9971
t-14.4961 31.9922v241.941q0 17.9951 11.4971 31.9922q11.4971 13.9961 34.4912 13.9961h263.936q43.9893 0 43.9893 -45.9883v-241.941z" />
    <glyph glyph-name="exclamdown" unicode="&#xa1;" horiz-adv-x="611" 
d="M488.04 -333.609q0 -43.9883 -48.9883 -43.9883h-259.937q-43.9893 0 -43.9893 43.9883v1077.74q0 18.9951 10.9971 31.4922q10.998 12.4971 32.9922 12.4971h259.937q14.9961 0 31.9922 -11.9971t16.9961 -31.9922v-1077.74zM488.04 981.07
q0 -19.9951 -11.4971 -31.9922q-11.498 -11.9971 -32.4922 -11.9971h-263.936q-16.9961 0 -31.4922 11.9971q-14.4971 11.9971 -14.4971 31.9922v241.94q0 17.9961 11.9971 31.9922q11.9971 13.9971 33.9922 13.9971h263.936q43.9893 0 43.9893 -45.9893v-241.94z" />
    <glyph glyph-name="fivesuperior" unicode="&#x2075;" horiz-adv-x="667" 
d="M83 1439q0 46 43 46h397q26 0 36 -13.5t10 -33.5v-93q0 -20 -11 -32.5t-36 -12.5h-255v-96h47h8t9 -2q85 -3 139.5 -29t85 -66t42 -87.5t11.5 -93.5q0 -60 -24.5 -112.5t-66 -91t-95.5 -61t-112 -22.5q-47 0 -83 8.5t-65.5 24.5t-52.5 39.5t-43 52.5q-11 15 -12 30.5
t21 31.5h-1l82 61q17 11 30 9t27 -16h2q17 -26 42 -40t54 -14q19 0 38 7.5t35 20.5t26 31t10 39q0 42 -25 67t-85 25h-137q-41 0 -62 14.5t-29 58.5v350z" />
    <glyph glyph-name="sixsuperior" unicode="&#x2076;" horiz-adv-x="675" 
d="M39 930q0 41 10 77t28 69l-1 -1l8 14l200 362v-1q8 14 19 24t32 10h108q41 0 41 -36q0 -9 -4 -17l-117 -211q55 -6 102.5 -30.5t82.5 -63t55 -89t20 -107.5q0 -61 -23 -114t-62.5 -92.5t-93 -62t-113.5 -22.5q-61 0 -114 22.5t-92.5 62t-62.5 92.5t-23 114zM229 930
q0 -46 26.5 -78t73.5 -32q45 0 71 32t26 78q0 22 -6.5 42.5t-19.5 36t-31 24.5t-40 9q-23 0 -41.5 -9t-31.5 -24.5t-20 -36t-7 -42.5z" />
    <glyph glyph-name="sevensuperior" unicode="&#x2077;" horiz-adv-x="705" 
d="M607 1484q26 0 38 -15t12 -34q0 -18 -12 -37q-95 -177 -194.5 -363.5t-194.5 -364.5q-14 -20 -40 -20h-132q-56 0 -38 49l313 600h-278q-20 0 -33 10t-13 36v96q0 20 13 31.5t33 11.5h526z" />
    <glyph glyph-name="eightsuperior" unicode="&#x2078;" horiz-adv-x="692" 
d="M278 1269q0 -23 15 -38.5t38 -15.5t38.5 15.5t15.5 38.5t-15.5 38.5t-38.5 15.5t-38 -15.5t-15 -38.5zM230 930q0 -46 26.5 -78t73.5 -32q45 0 71 32t26 78q0 22 -6.5 42.5t-19.5 36t-31 24.5t-40 9q-23 0 -41.5 -9t-31.5 -24.5t-20 -36t-7 -42.5zM40 930
q0 69 25.5 123.5t72.5 94.5q-15 26 -24.5 58t-9.5 64q0 46 18 87.5t49 73t72 49.5t88 18q46 0 87.5 -18t72.5 -49.5t49 -73t18 -87.5q0 -33 -9 -64.5t-26 -57.5q48 -40 73 -94.5t25 -123.5q0 -61 -23 -114t-62 -92t-92 -61.5t-113 -22.5q-61 0 -114 22.5t-92.5 61.5t-62 92
t-22.5 114z" />
    <glyph glyph-name="ninesuperior" unicode="&#x2079;" horiz-adv-x="674" 
d="M623 1203q0 -41 -10 -78.5t-29 -69.5l-9 -13l2 2l-199 -361v1q-7 -14 -18.5 -24t-32.5 -10h-108q-42 0 -42 36q0 11 7 18q16 29 30 54.5t27 50t27 49.5t30 54q-55 6 -102.5 31t-82 64t-54.5 89t-20 107q0 61 23 114t62.5 92.5t92.5 62.5t114 23q60 0 113.5 -23t93 -62.5
t62.5 -92.5t23 -114zM433 1203q0 48 -26.5 79t-73.5 31q-46 0 -71.5 -31t-25.5 -79q0 -45 25.5 -78t71.5 -33q23 0 41.5 9t31.5 24t20 35t7 43z" />
    <glyph glyph-name="onethird" unicode="&#x2153;" horiz-adv-x="1504" 
d="M933 1441q8 18 23.5 31t40.5 13h189q20 0 35 -8t15 -23q0 -11 -2 -13l-763 -1397q-12 -25 -21.5 -34.5t-31.5 -9.5h-211q-42 0 -42 26q0 -2 4 18zM87 1404q0 21 24 35l88 44q5 4 18 4h149q26 0 26 -24v-768q0 -24 -24 -24h-151q-24 0 -24 22v608l-75 -37q-2 -3 -7 -3
q-2 0 -2 -2q-11 0 -16.5 7.5t-5.5 19.5v118zM1157 356q-44 0 -44 35v104q0 44 44 44q19 0 31 6t19 15t10 20t3 21q0 11 -1.5 23t-7 22t-17 16.5t-30.5 6.5q-17 0 -27 -6t-15.5 -16.5t-7.5 -23.5t-2 -28q0 -24 -10 -35t-36 -11h-92q-43 0 -43 43q0 67 19 114.5t51.5 77.5
t75.5 43.5t92 13.5q48 0 91 -18.5t75.5 -50.5t51 -75t18.5 -92q0 -77 -42 -131q22 -17 39.5 -37t29.5 -45.5t18 -57t6 -71.5q0 -59 -20.5 -109.5t-58 -88.5t-89.5 -59.5t-115 -21.5q-59 0 -110 12.5t-88.5 46t-59.5 93t-22 152.5q0 33 42 43h99q43 0 43 -43q0 -36 7.5 -59
t20 -36.5t30 -19t38.5 -5.5q47 0 72.5 24.5t25.5 72.5q0 51 -25 71t-89 20z" />
    <glyph glyph-name="oneeighth" unicode="&#x215b;" horiz-adv-x="1571" 
d="M976 1441q8 18 23.5 31t40.5 13h189q20 0 35 -8t15 -23q0 -11 -2 -13l-763 -1397q-12 -25 -21.5 -34.5t-31.5 -9.5h-211q-42 0 -42 26q0 -2 4 18zM85 1404q0 21 24 35l88 44q5 4 18 4h149q26 0 26 -24v-768q0 -24 -24 -24h-151q-24 0 -24 22v608l-75 -37q-2 -3 -7 -3
q-2 0 -2 -2q-11 0 -16.5 7.5t-5.5 19.5v118zM1146 600q0 -23 15 -38.5t38 -15.5t38.5 15.5t15.5 38.5t-15.5 38.5t-38.5 15.5t-38 -15.5t-15 -38.5zM1098 261q0 -46 26.5 -78t73.5 -32q45 0 71 32t26 78q0 22 -6.5 42.5t-19.5 36t-31 24.5t-40 9q-23 0 -41.5 -9t-31.5 -24.5
t-20 -36t-7 -42.5zM908 261q0 69 25.5 123.5t72.5 94.5q-15 26 -24.5 58t-9.5 64q0 46 18 87.5t49 73t72 49.5t88 18q46 0 87.5 -18t72.5 -49.5t49 -73t18 -87.5q0 -33 -9 -64.5t-26 -57.5q48 -40 73 -94.5t25 -123.5q0 -61 -23 -114t-62 -92t-92 -61.5t-113 -22.5
q-61 0 -114 22.5t-92.5 61.5t-62 92t-22.5 114z" />
    <glyph glyph-name="twothirds" unicode="&#x2154;" horiz-adv-x="1698" 
d="M1145 1441q8 18 23.5 31t40.5 13h189q20 0 35 -8t15 -23q0 -11 -2 -13l-763 -1397q-12 -25 -21.5 -34.5t-31.5 -9.5h-211q-42 0 -42 26q0 -2 4 18zM357 825h250q45 0 45 -45v-90q0 -20 -12.5 -32.5t-32.5 -12.5h-493q-18 0 -33 12.5t-15 32.5v81q0 10 6 19q-1 -1 0 1l2 4
l352 361h-1q21 23 27.5 37t6.5 33q0 18 -8 35t-22 30t-32.5 20.5t-39.5 7.5t-39.5 -8t-31.5 -22t-20.5 -32t-7.5 -38v-45q0 -42 -44 -42h-98q-23 0 -33 14t-10 28v45q0 60 22.5 110.5t61.5 87t90.5 57t109.5 20.5q57 0 110.5 -19t94.5 -53.5t65.5 -83t24.5 -108.5
q0 -64 -25 -113.5t-62 -83.5v1zM1362 336q-44 0 -44 35v104q0 44 44 44q19 0 31 6t19 15t10 20t3 21q0 11 -1.5 23t-7 22t-17 16.5t-30.5 6.5q-17 0 -27 -6t-15.5 -16.5t-7.5 -23.5t-2 -28q0 -24 -10 -35t-36 -11h-92q-43 0 -43 43q0 67 19 114.5t51.5 77.5t75.5 43.5
t92 13.5q48 0 91 -18.5t75.5 -50.5t51 -75t18.5 -92q0 -77 -42 -131q22 -17 39.5 -37t29.5 -45.5t18 -57t6 -71.5q0 -59 -20.5 -109.5t-58 -88.5t-89.5 -59.5t-115 -21.5q-59 0 -110 12.5t-88.5 46t-59.5 93t-22 152.5q0 33 42 43h99q43 0 43 -43q0 -36 7.5 -59t20 -36.5
t30 -19t38.5 -5.5q47 0 72.5 24.5t25.5 72.5q0 51 -25 71t-89 20z" />
    <glyph glyph-name="threeeighths" unicode="&#x215c;" horiz-adv-x="1574" 
d="M1039 1441q8 18 23.5 31t40.5 13h189q20 0 35 -8t15 -23q0 -11 -2 -13l-763 -1397q-12 -25 -21.5 -34.5t-31.5 -9.5h-211q-42 0 -42 26q0 -2 4 18zM1200 600q0 -23 15 -38.5t38 -15.5t38.5 15.5t15.5 38.5t-15.5 38.5t-38.5 15.5t-38 -15.5t-15 -38.5zM1152 261
q0 -46 26.5 -78t73.5 -32q45 0 71 32t26 78q0 22 -6.5 42.5t-19.5 36t-31 24.5t-40 9q-23 0 -41.5 -9t-31.5 -24.5t-20 -36t-7 -42.5zM962 261q0 69 25.5 123.5t72.5 94.5q-15 26 -24.5 58t-9.5 64q0 46 18 87.5t49 73t72 49.5t88 18q46 0 87.5 -18t72.5 -49.5t49 -73
t18 -87.5q0 -33 -9 -64.5t-26 -57.5q48 -40 73 -94.5t25 -123.5q0 -61 -23 -114t-62 -92t-92 -61.5t-113 -22.5q-61 0 -114 22.5t-92.5 61.5t-62 92t-22.5 114zM307 1009q-44 0 -44 35v104q0 44 44 44q19 0 31 6t19 15t10 20t3 21q0 11 -1.5 23t-7 22t-17 16.5t-30.5 6.5
q-17 0 -27 -6t-15.5 -16.5t-7.5 -23.5t-2 -28q0 -24 -10 -35t-36 -11h-92q-43 0 -43 43q0 67 19 114.5t51.5 77.5t75.5 43.5t92 13.5q48 0 91 -18.5t75.5 -50.5t51 -75t18.5 -92q0 -77 -42 -131q22 -17 39.5 -37t29.5 -45.5t18 -57t6 -71.5q0 -59 -20.5 -109.5t-58 -88.5
t-89.5 -59.5t-115 -21.5q-59 0 -110 12.5t-88.5 46t-59.5 93t-22 152.5q0 33 42 43h99q43 0 43 -43q0 -36 7.5 -59t20 -36.5t30 -19t38.5 -5.5q47 0 72.5 24.5t25.5 72.5q0 51 -25 71t-89 20z" />
    <glyph glyph-name="fiveeighths" unicode="&#x215d;" horiz-adv-x="1613" 
d="M1081 1441q8 18 23.5 31t40.5 13h189q20 0 35 -8t15 -23q0 -11 -2 -13l-763 -1397q-12 -25 -21.5 -34.5t-31.5 -9.5h-211q-42 0 -42 26q0 -2 4 18zM83 1439q0 46 43 46h397q26 0 36 -13.5t10 -33.5v-93q0 -20 -11 -32.5t-36 -12.5h-255v-96h47h8t9 -2q85 -3 139.5 -29
t85 -66t42 -87.5t11.5 -93.5q0 -60 -24.5 -112.5t-66 -91t-95.5 -61t-112 -22.5q-47 0 -83 8.5t-65.5 24.5t-52.5 39.5t-43 52.5q-11 15 -12 30.5t21 31.5h-1l82 61q17 11 30 9t27 -16h2q17 -26 42 -40t54 -14q19 0 38 7.5t35 20.5t26 31t10 39q0 42 -25 67t-85 25h-137
q-41 0 -62 14.5t-29 58.5v350zM1187 600q0 -23 15 -38.5t38 -15.5t38.5 15.5t15.5 38.5t-15.5 38.5t-38.5 15.5t-38 -15.5t-15 -38.5zM1139 261q0 -46 26.5 -78t73.5 -32q45 0 71 32t26 78q0 22 -6.5 42.5t-19.5 36t-31 24.5t-40 9q-23 0 -41.5 -9t-31.5 -24.5t-20 -36
t-7 -42.5zM949 261q0 69 25.5 123.5t72.5 94.5q-15 26 -24.5 58t-9.5 64q0 46 18 87.5t49 73t72 49.5t88 18q46 0 87.5 -18t72.5 -49.5t49 -73t18 -87.5q0 -33 -9 -64.5t-26 -57.5q48 -40 73 -94.5t25 -123.5q0 -61 -23 -114t-62 -92t-92 -61.5t-113 -22.5q-61 0 -114 22.5
t-92.5 61.5t-62 92t-22.5 114z" />
    <glyph glyph-name="seveneighths" unicode="&#x215e;" horiz-adv-x="1571" 
d="M1016 1441q8 18 23.5 31t40.5 13h189q20 0 35 -8t15 -23q0 -11 -2 -13l-763 -1397q-12 -25 -21.5 -34.5t-31.5 -9.5h-211q-42 0 -42 26q0 -2 4 18zM1126 600q0 -23 15 -38.5t38 -15.5t38.5 15.5t15.5 38.5t-15.5 38.5t-38.5 15.5t-38 -15.5t-15 -38.5zM1078 261
q0 -46 26.5 -78t73.5 -32q45 0 71 32t26 78q0 22 -6.5 42.5t-19.5 36t-31 24.5t-40 9q-23 0 -41.5 -9t-31.5 -24.5t-20 -36t-7 -42.5zM888 261q0 69 25.5 123.5t72.5 94.5q-15 26 -24.5 58t-9.5 64q0 46 18 87.5t49 73t72 49.5t88 18q46 0 87.5 -18t72.5 -49.5t49 -73
t18 -87.5q0 -33 -9 -64.5t-26 -57.5q48 -40 73 -94.5t25 -123.5q0 -61 -23 -114t-62 -92t-92 -61.5t-113 -22.5q-61 0 -114 22.5t-92.5 61.5t-62 92t-22.5 114zM681 1484q26 0 38 -15t12 -34q0 -18 -12 -37q-95 -177 -194.5 -363.5t-194.5 -364.5q-14 -20 -40 -20h-132
q-56 0 -38 49l313 600h-278q-20 0 -33 10t-13 36v96q0 20 13 31.5t33 11.5h526z" />
    <glyph glyph-name="Udieresis" unicode="&#xdc;" horiz-adv-x="1550" 
d="M544 593q0 -74 20.5 -125.5t54 -84t78 -47.5t92.5 -15q50 0 94.5 17.5t78 52t53 85.5t19.5 117v848q0 18 12.5 31t33.5 13h292q23 0 36 -13.5t13 -30.5v-843q0 -175 -51.5 -294t-138.5 -191.5t-201.5 -104t-240.5 -31.5t-241 32.5t-202 106t-138.5 192t-51.5 290.5v843
q0 17 11.5 30.5t28.5 13.5h300q15 0 31.5 -12.5t16.5 -31.5v-848zM423 1884q0 42 42 42h196q14 0 27.5 -11t13.5 -31v-189q0 -18 -11.5 -33.5t-29.5 -15.5h-196q-42 0 -42 49v189zM859 1884q0 42 44 42h193q42 0 42 -42v-189q0 -18 -11 -33.5t-31 -15.5h-193q-44 0 -44 49
v189z" />
    <glyph glyph-name="C" unicode="C" horiz-adv-x="1409" 
d="M1294 1377q17 -10 25 -26t-3 -38l-169 -240q-11 -17 -23.5 -19.5t-30.5 8.5q-49 37 -108 57t-125 20q-82 0 -151 -31t-119 -85t-78 -126t-28 -154t28 -153.5t78 -125t119 -84.5t151 -31q66 0 126 20.5t109 57.5q18 11 30 9t24 -18l171 -246q11 -22 3 -37t-25 -25
q-94 -63 -202.5 -97.5t-228.5 -34.5q-106 0 -203.5 27t-182.5 77t-154.5 119.5t-119.5 154t-77 182t-27 203.5t27 203.5t77 183t119.5 155.5t154.5 119.5t182.5 77t203.5 27.5q120 0 226.5 -33.5t200.5 -96.5z" />
    <glyph glyph-name="D" unicode="D" horiz-adv-x="1547" 
d="M1447 741q0 -106 -27 -201.5t-77 -178t-119.5 -149.5t-154 -114t-182.5 -72.5t-203 -25.5h-493q-18 0 -32 8t-14 34v1397q0 21 11.5 34t34.5 13h493q105 0 202.5 -26t182 -74t154.5 -115t119.5 -150t77 -179t27.5 -201zM532 1127v-769h84q23 0 45 1.5t44 3.5
q75 6 140 36.5t113.5 80t76 116.5t27.5 146q0 84 -31.5 154.5t-85.5 122t-126.5 80t-154.5 28.5h-132z" />
    <glyph glyph-name="approxequal" unicode="&#x2248;" horiz-adv-x="554" 
 />
    <glyph glyph-name="nacute" unicode="&#x144;" horiz-adv-x="1405" 
d="M146 1253q13 11 27.5 14t27.5 3h151q18 0 31 -6.5t22 -17.5t14.5 -25t10.5 -29l31 -128q15 31 43.5 70.5t72.5 74t104.5 58t140.5 23.5q114 0 207 -44t158.5 -120t101.5 -177.5t36 -216.5v-655q0 -38 -16.5 -57.5t-52.5 -19.5h-231q-43 0 -59 14.5t-16 56.5v651
q0 43 -19.5 81.5t-51.5 68t-72.5 46.5t-82.5 17q-36 0 -73.5 -16t-69 -44.5t-53 -67t-24.5 -83.5v-650q0 -17 -6.5 -34t-19.5 -26q-13 -8 -24.5 -11t-26.5 -3h-226q-43 0 -62 21t-19 56v1119q0 19 8.5 35t23.5 25zM670 1670q5 23 20.5 32.5t32.5 9.5h258q15 0 22.5 -6
t10 -15t0.5 -20.5t-7 -22.5l-98 -215q-12 -22 -23.5 -32t-30.5 -10h-219q-15 0 -20.5 8t-5.5 19t3 24t5 22z" />
    <glyph glyph-name="napostrophe" unicode="&#x149;" horiz-adv-x="1657" 
d="M397 1253q13 11 27.5 14t27.5 3h151q18 0 31 -6.5t22 -17.5t14.5 -25t10.5 -29l31 -128q15 31 43.5 70.5t72.5 74t104.5 58t140.5 23.5q114 0 207 -44t158.5 -120t101.5 -177.5t36 -216.5v-655q0 -38 -16.5 -57.5t-52.5 -19.5h-231q-43 0 -59 14.5t-16 56.5v651
q0 43 -19.5 81.5t-51.5 68t-72.5 46.5t-82.5 17q-36 0 -73.5 -16t-69 -44.5t-53 -67t-24.5 -83.5v-650q0 -17 -6.5 -34t-19.5 -26q-13 -8 -24.5 -11t-26.5 -3h-226q-43 0 -62 21t-19 56v1119q0 19 8.5 35t23.5 25zM-33 1229q0 17 10.5 28t29.5 11h236q15 0 28.5 -10.5
t13.5 -28.5v-257q0 -85 -43.5 -159t-125.5 -122q-1 -1 -12 -1q-13 0 -20 3t-13 8l-61 52q-10 8 -13.5 15t-3.5 15q0 12 12 23t27 25.5t27 34t12 47.5v39q0 15 -16 19h-51q-37 1 -37 39v219z" />
    <glyph glyph-name="ncaron" unicode="&#x148;" horiz-adv-x="1405" 
d="M146 1253q13 11 27.5 14t27.5 3h151q18 0 31 -6.5t22 -17.5t14.5 -25t10.5 -29l31 -128q15 31 43.5 70.5t72.5 74t104.5 58t140.5 23.5q114 0 207 -44t158.5 -120t101.5 -177.5t36 -216.5v-655q0 -38 -16.5 -57.5t-52.5 -19.5h-231q-43 0 -59 14.5t-16 56.5v651
q0 43 -19.5 81.5t-51.5 68t-72.5 46.5t-82.5 17q-36 0 -73.5 -16t-69 -44.5t-53 -67t-24.5 -83.5v-650q0 -17 -6.5 -34t-19.5 -26q-13 -8 -24.5 -11t-26.5 -3h-226q-43 0 -62 21t-19 56v1119q0 19 8.5 35t23.5 25zM822 1373q-7 -5 -11 -7t-11 -2q-8 0 -20 9l-257 256
q-8 6 -8 23q0 8 9 19l88 90q11 11 27 11q13 0 22 -9l139 -142l142 143q11 11 23.5 8t20.5 -11l90 -87q5 -5 6.5 -10.5t2.5 -11.5q0 -8 -2.5 -13t-6.5 -9z" />
    <glyph glyph-name="ncommaaccent" unicode="&#x146;" horiz-adv-x="1448" 
d="M149 1253q13 11 27.5 14t27.5 3h151q18 0 31 -6.5t22 -17.5t14.5 -25t10.5 -29l31 -128q15 31 43.5 70.5t72.5 74t104.5 58t140.5 23.5q114 0 207 -44t158.5 -120t101.5 -177.5t36 -216.5v-655q0 -38 -16.5 -57.5t-52.5 -19.5h-231q-43 0 -59 14.5t-16 56.5v651
q0 43 -19.5 81.5t-51.5 68t-72.5 46.5t-82.5 17q-36 0 -73.5 -16t-69 -44.5t-53 -67t-24.5 -83.5v-650q0 -17 -6.5 -34t-19.5 -26q-13 -8 -24.5 -11t-26.5 -3h-226q-43 0 -62 21t-19 56v1119q0 19 8.5 35t23.5 25zM673 -226q0 17 10.5 28t29.5 11h236q15 0 28.5 -10.5
t13.5 -28.5v-257q0 -85 -43.5 -159t-125.5 -122q-1 -1 -12 -1q-13 0 -20 3t-13 8l-61 52q-10 8 -13.5 15t-3.5 15q0 12 12 23t27 25.5t27 34t12 47.5v39q0 15 -16 19h-51q-37 1 -37 39v219z" />
    <glyph glyph-name="ntilde" unicode="&#xf1;" horiz-adv-x="1405" 
d="M146 1253q13 11 27.5 14t27.5 3h151q18 0 31 -6.5t22 -17.5t14.5 -25t10.5 -29l31 -128q15 31 43.5 70.5t72.5 74t104.5 58t140.5 23.5q114 0 207 -44t158.5 -120t101.5 -177.5t36 -216.5v-655q0 -38 -16.5 -57.5t-52.5 -19.5h-231q-43 0 -59 14.5t-16 56.5v651
q0 43 -19.5 81.5t-51.5 68t-72.5 46.5t-82.5 17q-36 0 -73.5 -16t-69 -44.5t-53 -67t-24.5 -83.5v-650q0 -17 -6.5 -34t-19.5 -26q-13 -8 -24.5 -11t-26.5 -3h-226q-43 0 -62 21t-19 56v1119q0 19 8.5 35t23.5 25zM367 1618q19 27 45 49t56 37.5t62 23.5t64 8q18 0 39 -4
t46 -14t56 -26.5t69 -41.5q11 -7 21.5 -11t23.5 -4q21 0 35 8.5t26 21.5l33 40q9 13 19.5 13.5t19.5 -8.5l103 -90q11 -11 14.5 -19t-6.5 -21l-30 -39q-40 -55 -99 -86t-125 -31q-39 0 -79 13.5t-77 36.5l-55 35q-11 7 -21 11t-24 4q-20 0 -34.5 -8t-25.5 -21l-31 -40
q-6 -10 -21 -11.5t-24 7.5l-103 87q-5 5 -8.5 9.5t-3.5 13.5q0 1 0.5 4t4 9t10.5 16.5t20 27.5z" />
    <glyph glyph-name="Phi.alt" horiz-adv-x="1692" 
d="M658 106q-113 25 -213 82.5t-174.5 138.5t-117.5 181t-43 210q0 115 40 218t112 184.5t173 136.5t223 75v20q0 35 23.5 60.5t74.5 25.5h92q19 0 37.5 -6.5t32 -18t22 -27t8.5 -34.5v-20q116 -25 217 -82.5t175.5 -138.5t117 -182t42.5 -213q0 -116 -40 -219.5
t-112.5 -184.5t-174 -135.5t-225.5 -72.5v-18q0 -86 -100 -86h-92q-51 0 -74.5 20.5t-23.5 65.5v20zM1206 718q0 62 -18.5 116t-52 97.5t-81.5 75.5t-106 49v-674q59 17 107 48t81.5 73.5t51.5 96.5t18 118zM402 718q0 -127 67.5 -214t188.5 -122v670q-55 -18 -101.5 -50
t-81 -75.5t-54 -96.5t-19.5 -112zM35 1115q-20 2 -33 12.5t-13 31.5l-33 295q-2 15 8 25t27 10h221q18 0 29.5 -11.5t7.5 -30.5l-30 -288q-2 -17 -14.5 -30.5t-29.5 -13.5h-140z" />
    <glyph glyph-name="Idieresis" unicode="&#xcf;" 
d="M165 1441q0 18 11 31t33 13h294q15 0 32 -12t17 -32v-1397q0 -44 -49 -44h-294q-44 0 -44 44v1397zM-1 1845q0 42 42 42h196q14 0 27.5 -11t13.5 -31v-189q0 -18 -11.5 -33.5t-29.5 -15.5h-196q-42 0 -42 49v189zM435 1845q0 42 44 42h193q42 0 42 -42v-189
q0 -18 -11 -33.5t-31 -15.5h-193q-44 0 -44 49v189z" />
    <glyph glyph-name="Oslash" unicode="&#xd8;" horiz-adv-x="1705" 
d="M478 742q0 -83 28 -155t78.5 -125.5t119.5 -84t152 -30.5t152.5 30.5t120 84t78.5 125.5t28 155q0 82 -28 154.5t-78.5 126.5t-120 85t-152.5 31t-152 -31t-119.5 -85t-78.5 -126.5t-28 -154.5zM92 741q0 106 27 203.5t77 183t119.5 155.5t154.5 119.5t182.5 77
t203.5 27.5q38 0 74 -3.5t72 -10.5l32 71q8 18 23.5 31t40.5 13h277q20 0 35.5 -8t15.5 -23q0 -11 -2 -13l-99 -218q67 -53 122 -119.5t93.5 -143.5t59.5 -163.5t21 -178.5q0 -106 -27.5 -203.5t-77 -182t-119.5 -154t-155 -119.5t-183 -77t-203 -27q-76 0 -148 15l-35 -79
q-11 -25 -21 -34.5t-31 -9.5h-300q-41 0 -41 26q0 2 1 4l3 14l102 225q-67 52 -121.5 118.5t-92.5 143t-59 162.5t-21 178z" />
    <glyph glyph-name="Odieresis" unicode="&#xd6;" horiz-adv-x="1705" 
d="M478 742q0 -83 28 -155t78.5 -125.5t119.5 -84t152 -30.5t152.5 30.5t120 84t78.5 125.5t28 155q0 82 -28 154.5t-78.5 126.5t-120 85t-152.5 31t-152 -31t-119.5 -85t-78.5 -126.5t-28 -154.5zM92 741q0 106 27 203.5t77 183t119.5 155.5t154.5 119.5t182.5 77
t203.5 27.5q105 0 203 -27.5t183 -77t155 -119.5t119.5 -155.5t77 -183t27.5 -203.5t-27.5 -203.5t-77 -182t-119.5 -154t-155 -119.5t-183 -77t-203 -27q-106 0 -203.5 27t-182.5 77t-154.5 119.5t-119.5 154t-77 182t-27 203.5zM503 1862q0 42 42 42h196q14 0 27.5 -11
t13.5 -31v-189q0 -18 -11.5 -33.5t-29.5 -15.5h-196q-42 0 -42 49v189zM939 1862q0 42 44 42h193q42 0 42 -42v-189q0 -18 -11 -33.5t-31 -15.5h-193q-44 0 -44 49v189z" />
    <glyph glyph-name="uogonek" unicode="&#x173;" horiz-adv-x="1448" 
d="M1301 17q-13 -11 -27.5 -14t-27.5 -3h-151q-18 0 -31 6.5t-22 17.5t-15 25t-10 29l-31 128q-15 -31 -43.5 -70.5t-72.5 -74t-105 -58t-140 -23.5q-114 0 -207 44t-158.5 120t-101.5 177.5t-36 216.5v655q0 38 16.5 57.5t52.5 19.5h231q43 0 59 -14.5t16 -56.5v-651
q0 -43 19.5 -81.5t51.5 -68t72.5 -46.5t82.5 -17q36 0 74.5 17t71 45.5t53.5 67t21 81.5v650q0 17 6.5 34t19.5 26q13 8 24.5 11t26.5 3h226q43 0 62 -21t19 -56v-1119q0 -19 -8.5 -35t-23.5 -25zM1288.56 33q12.9854 -12.9844 15.7676 -23.6494t2.78223 -20.8672
q0 -26.8955 -13.9121 -47.2988t-34.7812 -37.0977q-20.8682 -16.6934 -44.9824 -31.0684q-24.1152 -14.375 -44.9834 -28.75q-20.8691 -14.376 -34.7812 -30.1416q-13.9121 -15.7666 -13.9121 -36.1699q0 -58.4277 158.601 -98.3076q10.2021 -5.56445 10.2021 -20.4033
q0 -8.34668 -10.2021 -32.9238t-25.042 -50.5449t-31.5352 -46.3711q-16.6943 -20.4033 -30.6064 -20.4033h-4.6377q-70.4893 21.3301 -128.458 53.3271q-57.9678 31.9961 -99.2412 69.0928q-41.2734 37.0977 -63.9971 75.1221q-22.7227 38.0244 -22.7227 71.4121
q0 34.3145 14.376 59.8193q14.376 25.5039 35.708 45.4434q21.332 19.9404 45.9111 35.2432q24.5781 15.3018 45.9102 28.75q21.333 13.4473 35.709 25.9678t14.376 27.3594q0 18.5488 -20.4053 32.46h244.857z" />
    <glyph glyph-name="uring" unicode="&#x16f;" horiz-adv-x="1404" 
d="M1299 17q-13 -11 -27.5 -14t-27.5 -3h-151q-18 0 -31 6.5t-22 17.5t-15 25t-10 29l-31 128q-15 -31 -43.5 -70.5t-72.5 -74t-105 -58t-140 -23.5q-114 0 -207 44t-158.5 120t-101.5 177.5t-36 216.5v655q0 38 16.5 57.5t52.5 19.5h231q43 0 59 -14.5t16 -56.5v-651
q0 -43 19.5 -81.5t51.5 -68t72.5 -46.5t82.5 -17q36 0 74.5 17t71 45.5t53.5 67t21 81.5v650q0 17 6.5 34t19.5 26q13 8 24.5 11t26.5 3h226q43 0 62 -21t19 -56v-1119q0 -19 -8.5 -35t-23.5 -25zM733 1782q43 0 81.5 -16.5t67.5 -45.5t45.5 -67.5t16.5 -81.5
q0 -44 -16.5 -82t-45.5 -66.5t-67.5 -44.5t-81.5 -16q-44 0 -82 16t-66.5 44.5t-44.5 66.5t-16 82q0 43 16 81.5t44.5 67.5t66.5 45.5t82 16.5zM734 1632q-26 0 -42 -17t-16 -43t16 -42t42 -16t43 16t17 42t-17 43t-43 17z" />
    <glyph glyph-name="utilde" unicode="&#x169;" horiz-adv-x="1404" 
d="M1299 17q-13 -11 -27.5 -14t-27.5 -3h-151q-18 0 -31 6.5t-22 17.5t-15 25t-10 29l-31 128q-15 -31 -43.5 -70.5t-72.5 -74t-105 -58t-140 -23.5q-114 0 -207 44t-158.5 120t-101.5 177.5t-36 216.5v655q0 38 16.5 57.5t52.5 19.5h231q43 0 59 -14.5t16 -56.5v-651
q0 -43 19.5 -81.5t51.5 -68t72.5 -46.5t82.5 -17q36 0 74.5 17t71 45.5t53.5 67t21 81.5v650q0 17 6.5 34t19.5 26q13 8 24.5 11t26.5 3h226q43 0 62 -21t19 -56v-1119q0 -19 -8.5 -35t-23.5 -25zM385 1591q19 27 45 49t56 37.5t62 23.5t64 8q18 0 39 -4t46 -14t56 -26.5
t69 -41.5q11 -7 21.5 -11t23.5 -4q21 0 35 8.5t26 21.5l33 40q9 13 19.5 13.5t19.5 -8.5l103 -90q11 -11 14.5 -19t-6.5 -21l-30 -39q-40 -55 -99 -86t-125 -31q-39 0 -79 13.5t-77 36.5l-55 35q-11 7 -21 11t-24 4q-20 0 -34.5 -8t-25.5 -21l-31 -40q-6 -10 -21 -11.5
t-24 7.5l-103 87q-5 5 -8.5 9.5t-3.5 13.5q0 1 0.5 4t4 9t10.5 16.5t20 27.5z" />
    <glyph glyph-name="Eng" unicode="&#x14a;" horiz-adv-x="1643" 
d="M169 1441q0 18 11 31t33 13h327q14 0 29 -7t26 -24q127 -205 252 -404t253 -404v801q4 18 16 28t28 10h285q21 0 35 -11.5t14 -32.5v-1402q0 -20 -12 -29.5t-33 -9.5h-319q-13 0 -23 9t-21 24q-133 220 -263 435t-264 435v-859q0 -22 -10 -33t-36 -11h-284
q-23 0 -33.5 12.5t-10.5 30.5v1398zM1090 1445q0 37 39 40h295q54 0 54 -52v-1370q0 -99 -39.5 -185.5t-106.5 -151t-155.5 -101.5t-186.5 -37q-58 0 -114 13t-106.5 38.5t-94 63t-76.5 86.5q-3 1 -3 16q0 26 16 38l174 163q8 7 17 11.5t17 4.5q15 0 28.5 -11t30 -24.5
t38.5 -24.5t53 -11q23 0 45 9t38.5 24t26.5 35.5t10 43.5v1382z" />
    <glyph glyph-name="uni2206" unicode="&#x2206;" horiz-adv-x="1531" 
d="M570 1464q10 21 41 21h247q15 0 27 -10t21 -24.5t16 -31.5t12 -31l516 -1343v-3q1 -3 1 -11q0 -14 -9.5 -22.5t-32.5 -8.5h-1354q-37 0 -37 28q0 4 1.5 8t1.5 9l513 1343q8 20 16.5 39t19.5 37zM508 313h450q-57 171 -110 337.5t-114 337.5z" />
    <glyph glyph-name="product" unicode="&#x220f;" horiz-adv-x="1440" 
d="M913 1131h-369v-1089q0 -42 -47 -42h-303q-44 0 -44 42v1397q0 46 44 46h1066q17 0 32 -12t15 -32v-1397q0 -44 -47 -44h-303q-44 0 -44 44v1087z" />
    <glyph glyph-name="Ccedilla" unicode="&#xc7;" horiz-adv-x="1409" 
d="M1294 1377q17 -10 25 -26t-3 -38l-169 -240q-11 -17 -23.5 -19.5t-30.5 8.5q-49 37 -108 57t-125 20q-82 0 -151 -31t-119 -85t-78 -126t-28 -154t28 -153.5t78 -125t119 -84.5t151 -31q66 0 126 20.5t109 57.5q18 11 30 9t24 -18l171 -246q11 -22 3 -37t-25 -25
q-94 -63 -202.5 -97.5t-228.5 -34.5q-106 0 -203.5 27t-182.5 77t-154.5 119.5t-119.5 154t-77 182t-27 203.5t27 203.5t77 183t119.5 155.5t154.5 119.5t182.5 77t203.5 27.5q120 0 226.5 -33.5t200.5 -96.5zM1001 0q-22 -15 -22 -35q0 -16 15.5 -29.5t38 -28t49.5 -31
t49.5 -38t38 -49t15.5 -64.5q0 -36 -24.5 -77t-69 -81t-106.5 -74.5t-138 -57.5h-5q-15 0 -33 22t-34 50t-27 54.5t-11 35.5q0 16 11 22q171 43 171 106q0 22 -15 39t-37.5 32.5t-48.5 31t-48.5 33.5t-37.5 40t-15 51q0 11 3 22.5t17 25.5h264z" />
    <glyph glyph-name="Ccircumflex" unicode="&#x108;" horiz-adv-x="1409" 
d="M1294 1377q17 -10 25 -26t-3 -38l-169 -240q-11 -17 -23.5 -19.5t-30.5 8.5q-49 37 -108 57t-125 20q-82 0 -151 -31t-119 -85t-78 -126t-28 -154t28 -153.5t78 -125t119 -84.5t151 -31q66 0 126 20.5t109 57.5q18 11 30 9t24 -18l171 -246q11 -22 3 -37t-25 -25
q-94 -63 -202.5 -97.5t-228.5 -34.5q-106 0 -203.5 27t-182.5 77t-154.5 119.5t-119.5 154t-77 182t-27 203.5t27 203.5t77 183t119.5 155.5t154.5 119.5t182.5 77t203.5 27.5q120 0 226.5 -33.5t200.5 -96.5zM835 1976q7 5 11 7t11 2q8 0 20 -9l257 -256q8 -6 8 -23
q0 -9 -9 -19l-88 -90q-11 -11 -27 -11q-13 0 -22 9l-139 142l-142 -143q-11 -11 -23.5 -8t-20.5 11l-90 87q-5 5 -6.5 10.5t-2.5 11.5q0 8 2.5 13t6.5 9z" />
    <glyph glyph-name="Cdotaccent" unicode="&#x10a;" horiz-adv-x="1409" 
d="M1294 1377q17 -10 25 -26t-3 -38l-169 -240q-11 -17 -23.5 -19.5t-30.5 8.5q-49 37 -108 57t-125 20q-82 0 -151 -31t-119 -85t-78 -126t-28 -154t28 -153.5t78 -125t119 -84.5t151 -31q66 0 126 20.5t109 57.5q18 11 30 9t24 -18l171 -246q11 -22 3 -37t-25 -25
q-94 -63 -202.5 -97.5t-228.5 -34.5q-106 0 -203.5 27t-182.5 77t-154.5 119.5t-119.5 154t-77 182t-27 203.5t27 203.5t77 183t119.5 155.5t154.5 119.5t182.5 77t203.5 27.5q120 0 226.5 -33.5t200.5 -96.5zM731 1880q0 42 42 42h196q14 0 27.5 -11t13.5 -31v-189
q0 -18 -11.5 -33.5t-29.5 -15.5h-196q-42 0 -42 49v189z" />
    <glyph glyph-name="Eacute" unicode="&#xc9;" horiz-adv-x="1350" 
d="M161 1439q0 21 11.5 33.5t32.5 12.5h993q22 0 34 -13t12 -35v-248q0 -17 -12 -32.5t-35 -15.5h-648v-247h500q19 0 31.5 -9t12.5 -30v-216q0 -14 -11 -27t-32 -13h-501v-255h672q45 0 45 -46v-252q0 -10 -8 -18q-4 -28 -41 -28h-1012q-20 0 -32 10.5t-12 32.5v1396z
M544 1886q5 23 20.5 32.5t32.5 9.5h258q15 0 22.5 -6t10 -15t0.5 -20.5t-7 -22.5l-98 -215q-12 -22 -23.5 -32t-30.5 -10h-219q-15 0 -20.5 8t-5.5 19t3 24t5 22z" />
    <glyph glyph-name="Ebreve" unicode="&#x114;" horiz-adv-x="1350" 
d="M161 1439q0 21 11.5 33.5t32.5 12.5h993q22 0 34 -13t12 -35v-248q0 -17 -12 -32.5t-35 -15.5h-648v-247h500q19 0 31.5 -9t12.5 -30v-216q0 -14 -11 -27t-32 -13h-501v-255h672q45 0 45 -46v-252q0 -10 -8 -18q-4 -28 -41 -28h-1012q-20 0 -32 10.5t-12 32.5v1396z
M712 1624q-59 1 -109 22.5t-87 56.5t-58 79.5t-21 92.5q0 17 11.5 27t26.5 10h144q11 0 17 -6.5t6 -15.5q0 -23 18 -41.5t56 -18.5q34 0 52.5 19t18.5 41q0 9 5 15.5t16 6.5h146q15 0 26.5 -10t11.5 -27q0 -49 -21.5 -94t-59.5 -79.5t-89 -55.5t-110 -22z" />
    <glyph glyph-name="Ecaron" unicode="&#x11a;" horiz-adv-x="1350" 
d="M161 1439q0 21 11.5 33.5t32.5 12.5h993q22 0 34 -13t12 -35v-248q0 -17 -12 -32.5t-35 -15.5h-648v-247h500q19 0 31.5 -9t12.5 -30v-216q0 -14 -11 -27t-32 -13h-501v-255h672q45 0 45 -46v-252q0 -10 -8 -18q-4 -28 -41 -28h-1012q-20 0 -32 10.5t-12 32.5v1396z
M698 1585q-7 -5 -11 -7t-11 -2q-8 0 -20 9l-257 256q-8 6 -8 23q0 8 9 19l88 90q11 11 27 11q13 0 22 -9l139 -142l142 143q11 11 23.5 8t20.5 -11l90 -87q5 -5 6.5 -10.5t2.5 -11.5q0 -8 -2.5 -13t-6.5 -9z" />
    <glyph glyph-name="Ecircumflex" unicode="&#xca;" horiz-adv-x="1350" 
d="M161 1439q0 21 11.5 33.5t32.5 12.5h993q22 0 34 -13t12 -35v-248q0 -17 -12 -32.5t-35 -15.5h-648v-247h500q19 0 31.5 -9t12.5 -30v-216q0 -14 -11 -27t-32 -13h-501v-255h672q45 0 45 -46v-252q0 -10 -8 -18q-4 -28 -41 -28h-1012q-20 0 -32 10.5t-12 32.5v1396z
M702 1974q7 5 11 7t11 2q8 0 20 -9l257 -256q8 -6 8 -23q0 -9 -9 -19l-88 -90q-11 -11 -27 -11q-13 0 -22 9l-139 142l-142 -143q-11 -11 -23.5 -8t-20.5 11l-90 87q-5 5 -6.5 10.5t-2.5 11.5q0 8 2.5 13t6.5 9z" />
    <glyph glyph-name="Edieresis" unicode="&#xcb;" horiz-adv-x="1350" 
d="M161 1439q0 21 11.5 33.5t32.5 12.5h993q22 0 34 -13t12 -35v-248q0 -17 -12 -32.5t-35 -15.5h-648v-247h500q19 0 31.5 -9t12.5 -30v-216q0 -14 -11 -27t-32 -13h-501v-255h672q45 0 45 -46v-252q0 -10 -8 -18q-4 -28 -41 -28h-1012q-20 0 -32 10.5t-12 32.5v1396z
M383 1878q0 42 42 42h196q14 0 27.5 -11t13.5 -31v-189q0 -18 -11.5 -33.5t-29.5 -15.5h-196q-42 0 -42 49v189zM819 1878q0 42 44 42h193q42 0 42 -42v-189q0 -18 -11 -33.5t-31 -15.5h-193q-44 0 -44 49v189z" />
    <glyph glyph-name="Egrave" unicode="&#xc8;" horiz-adv-x="1350" 
d="M161 1439q0 21 11.5 33.5t32.5 12.5h993q22 0 34 -13t12 -35v-248q0 -17 -12 -32.5t-35 -15.5h-648v-247h500q19 0 31.5 -9t12.5 -30v-216q0 -14 -11 -27t-32 -13h-501v-255h672q45 0 45 -46v-252q0 -10 -8 -18q-4 -28 -41 -28h-1012q-20 0 -32 10.5t-12 32.5v1396z
M872 1680q2 -9 5 -22t3 -24t-5.5 -19t-20.5 -8h-219q-19 0 -30.5 10t-23.5 32l-98 215q-5 11 -7 22.5t0.5 20.5t10 15t22.5 6h258q17 0 32.5 -9.5t20.5 -32.5z" />
    <glyph glyph-name="Gbreve" unicode="&#x11e;" horiz-adv-x="1502" 
d="M1098 1066q-51 36 -109 56t-124 20q-83 0 -152 -31.5t-118.5 -85.5t-77.5 -126.5t-28 -154.5t28 -154t77.5 -125.5t118.5 -84.5t152 -31q35 0 69.5 5t73.5 13v262q0 19 11 31.5t33 12.5h272q15 0 32 -12t17 -32v-484q0 -27 -29 -44q-47 -32 -104 -55t-119 -38
t-125.5 -22.5t-123.5 -7.5q-106 0 -203.5 27t-182.5 77t-154.5 119.5t-119.5 154t-77 182t-27 203.5t27 203.5t77 183t119.5 155.5t154.5 119.5t182.5 77t203.5 27.5q120 0 226.5 -33.5t200.5 -96.5q17 -10 26 -26.5t-4 -37.5l-162 -234q-13 -16 -26 -21.5t-35 8.5z
M875 1632q-59 1 -109 22.5t-87 56.5t-58 79.5t-21 92.5q0 17 11.5 27t26.5 10h144q11 0 17 -6.5t6 -15.5q0 -23 18 -41.5t56 -18.5q34 0 52.5 19t18.5 41q0 9 5 15.5t16 6.5h146q15 0 26.5 -10t11.5 -27q0 -49 -21.5 -94t-59.5 -79.5t-89 -55.5t-110 -22z" />
    <glyph glyph-name="Gcircumflex" unicode="&#x11c;" horiz-adv-x="1502" 
d="M1098 1066q-51 36 -109 56t-124 20q-83 0 -152 -31.5t-118.5 -85.5t-77.5 -126.5t-28 -154.5t28 -154t77.5 -125.5t118.5 -84.5t152 -31q35 0 69.5 5t73.5 13v262q0 19 11 31.5t33 12.5h272q15 0 32 -12t17 -32v-484q0 -27 -29 -44q-47 -32 -104 -55t-119 -38
t-125.5 -22.5t-123.5 -7.5q-106 0 -203.5 27t-182.5 77t-154.5 119.5t-119.5 154t-77 182t-27 203.5t27 203.5t77 183t119.5 155.5t154.5 119.5t182.5 77t203.5 27.5q120 0 226.5 -33.5t200.5 -96.5q17 -10 26 -26.5t-4 -37.5l-162 -234q-13 -16 -26 -21.5t-35 8.5z
M832 1983q7 5 11 7t11 2q8 0 20 -9l257 -256q8 -6 8 -23q0 -9 -9 -19l-88 -90q-11 -11 -27 -11q-13 0 -22 9l-139 142l-142 -143q-11 -11 -23.5 -8t-20.5 11l-90 87q-5 5 -6.5 10.5t-2.5 11.5q0 8 2.5 13t6.5 9z" />
    <glyph glyph-name="Adieresis" unicode="&#xc4;" horiz-adv-x="1531" 
d="M586 1446q1 6 6.5 13t13.5 13t17 9.5t17 3.5h256q17 0 29 -10.5t18 -18.5l25 -57l525 -1354q8 -20 -3 -32.5t-38 -12.5h-287q-23 0 -35.5 8.5t-19.5 28.5q-20 51 -39 101.5t-38 101.5h-531q-19 -51 -38.5 -101.5t-38.5 -101.5q-13 -37 -51 -37h-295q-19 0 -31.5 10
t-4.5 30zM768 1018q-19 -51 -38.5 -110t-38.5 -119t-38.5 -118.5t-38.5 -109.5h307zM416 1884q0 42 42 42h196q14 0 27.5 -11t13.5 -31v-189q0 -18 -11.5 -33.5t-29.5 -15.5h-196q-42 0 -42 49v189zM852 1884q0 42 44 42h193q42 0 42 -42v-189q0 -18 -11 -33.5t-31 -15.5
h-193q-44 0 -44 49v189z" />
    <glyph glyph-name="Agrave" unicode="&#xc0;" horiz-adv-x="1531" 
d="M586 1446q1 6 6.5 13t13.5 13t17 9.5t17 3.5h256q17 0 29 -10.5t18 -18.5l25 -57l525 -1354q8 -20 -3 -32.5t-38 -12.5h-287q-23 0 -35.5 8.5t-19.5 28.5q-20 51 -39 101.5t-38 101.5h-531q-19 -51 -38.5 -101.5t-38.5 -101.5q-13 -37 -51 -37h-295q-19 0 -31.5 10
t-4.5 30zM768 1018q-19 -51 -38.5 -110t-38.5 -119t-38.5 -118.5t-38.5 -109.5h307zM877 1680q2 -9 5 -22t3 -24t-5.5 -19t-20.5 -8h-219q-19 0 -30.5 10t-23.5 32l-98 215q-5 11 -7 22.5t0.5 20.5t10 15t22.5 6h258q17 0 32.5 -9.5t20.5 -32.5z" />
    <glyph glyph-name="aacute" unicode="&#xe1;" horiz-adv-x="1569" 
d="M1449 74q0 -17 -6 -32.5t-20 -24.5q-11 -11 -26 -14t-26 -3h-197q-21 0 -34 5.5t-21 15.5t-13.5 24.5t-11.5 31.5l-29 75q-27 -27 -59 -57.5t-70.5 -56.5t-83.5 -43.5t-96 -17.5q-91 0 -174.5 23t-156 65.5t-131.5 102t-101.5 132.5t-65.5 157.5t-23 176.5
q0 139 51 258.5t139 208t207 139t255 50.5q62 0 114 -18.5t94.5 -48.5t77 -68t61.5 -77l39 121q10 25 16.5 40.5t14 23t18.5 10t31 2.5h149q11 0 26 -3t26 -14q14 -11 20 -25t6 -32v-1127zM464 634q0 -66 20.5 -123.5t58.5 -99.5t91.5 -66.5t118.5 -24.5q67 0 124.5 24.5
t100 66.5t66.5 99.5t24 123.5q0 64 -24 122t-66.5 102t-100 69.5t-124.5 25.5q-65 0 -118.5 -25.5t-91.5 -69.5t-58.5 -102t-20.5 -122zM653 1670q5 23 20.5 32.5t32.5 9.5h258q15 0 22.5 -6t10 -15t0.5 -20.5t-7 -22.5l-98 -215q-12 -22 -23.5 -32t-30.5 -10h-219
q-15 0 -20.5 8t-5.5 19t3 24t5 22z" />
    <glyph glyph-name="abreve" unicode="&#x103;" horiz-adv-x="1569" 
d="M1449 74q0 -17 -6 -32.5t-20 -24.5q-11 -11 -26 -14t-26 -3h-197q-21 0 -34 5.5t-21 15.5t-13.5 24.5t-11.5 31.5l-29 75q-27 -27 -59 -57.5t-70.5 -56.5t-83.5 -43.5t-96 -17.5q-91 0 -174.5 23t-156 65.5t-131.5 102t-101.5 132.5t-65.5 157.5t-23 176.5
q0 139 51 258.5t139 208t207 139t255 50.5q62 0 114 -18.5t94.5 -48.5t77 -68t61.5 -77l39 121q10 25 16.5 40.5t14 23t18.5 10t31 2.5h149q11 0 26 -3t26 -14q14 -11 20 -25t6 -32v-1127zM464 634q0 -66 20.5 -123.5t58.5 -99.5t91.5 -66.5t118.5 -24.5q67 0 124.5 24.5
t100 66.5t66.5 99.5t24 123.5q0 64 -24 122t-66.5 102t-100 69.5t-124.5 25.5q-65 0 -118.5 -25.5t-91.5 -69.5t-58.5 -102t-20.5 -122zM782 1413q-59 1 -109 22.5t-87 56.5t-58 79.5t-21 92.5q0 17 11.5 27t26.5 10h144q11 0 17 -6.5t6 -15.5q0 -23 18 -41.5t56 -18.5
q34 0 52.5 19t18.5 41q0 9 5 15.5t16 6.5h146q15 0 26.5 -10t11.5 -27q0 -49 -21.5 -94t-59.5 -79.5t-89 -55.5t-110 -22z" />
    <glyph glyph-name="acircumflex" unicode="&#xe2;" horiz-adv-x="1569" 
d="M1449 74q0 -17 -6 -32.5t-20 -24.5q-11 -11 -26 -14t-26 -3h-197q-21 0 -34 5.5t-21 15.5t-13.5 24.5t-11.5 31.5l-29 75q-27 -27 -59 -57.5t-70.5 -56.5t-83.5 -43.5t-96 -17.5q-91 0 -174.5 23t-156 65.5t-131.5 102t-101.5 132.5t-65.5 157.5t-23 176.5
q0 139 51 258.5t139 208t207 139t255 50.5q62 0 114 -18.5t94.5 -48.5t77 -68t61.5 -77l39 121q10 25 16.5 40.5t14 23t18.5 10t31 2.5h149q11 0 26 -3t26 -14q14 -11 20 -25t6 -32v-1127zM464 634q0 -66 20.5 -123.5t58.5 -99.5t91.5 -66.5t118.5 -24.5q67 0 124.5 24.5
t100 66.5t66.5 99.5t24 123.5q0 64 -24 122t-66.5 102t-100 69.5t-124.5 25.5q-65 0 -118.5 -25.5t-91.5 -69.5t-58.5 -102t-20.5 -122zM762 1801q7 5 11 7t11 2q8 0 20 -9l257 -256q8 -6 8 -23q0 -9 -9 -19l-88 -90q-11 -11 -27 -11q-13 0 -22 9l-139 142l-142 -143
q-11 -11 -23.5 -8t-20.5 11l-90 87q-5 5 -6.5 10.5t-2.5 11.5q0 8 2.5 13t6.5 9z" />
    <glyph glyph-name="adieresis" unicode="&#xe4;" horiz-adv-x="1569" 
d="M1449 74q0 -17 -6 -32.5t-20 -24.5q-11 -11 -26 -14t-26 -3h-197q-21 0 -34 5.5t-21 15.5t-13.5 24.5t-11.5 31.5l-29 75q-27 -27 -59 -57.5t-70.5 -56.5t-83.5 -43.5t-96 -17.5q-91 0 -174.5 23t-156 65.5t-131.5 102t-101.5 132.5t-65.5 157.5t-23 176.5
q0 139 51 258.5t139 208t207 139t255 50.5q62 0 114 -18.5t94.5 -48.5t77 -68t61.5 -77l39 121q10 25 16.5 40.5t14 23t18.5 10t31 2.5h149q11 0 26 -3t26 -14q14 -11 20 -25t6 -32v-1127zM464 634q0 -66 20.5 -123.5t58.5 -99.5t91.5 -66.5t118.5 -24.5q67 0 124.5 24.5
t100 66.5t66.5 99.5t24 123.5q0 64 -24 122t-66.5 102t-100 69.5t-124.5 25.5q-65 0 -118.5 -25.5t-91.5 -69.5t-58.5 -102t-20.5 -122zM427 1688q0 42 42 42h196q14 0 27.5 -11t13.5 -31v-189q0 -18 -11.5 -33.5t-29.5 -15.5h-196q-42 0 -42 49v189zM863 1688q0 42 44 42
h193q42 0 42 -42v-189q0 -18 -11 -33.5t-31 -15.5h-193q-44 0 -44 49v189z" />
    <glyph glyph-name="agrave" unicode="&#xe0;" horiz-adv-x="1569" 
d="M1449 74q0 -17 -6 -32.5t-20 -24.5q-11 -11 -26 -14t-26 -3h-197q-21 0 -34 5.5t-21 15.5t-13.5 24.5t-11.5 31.5l-29 75q-27 -27 -59 -57.5t-70.5 -56.5t-83.5 -43.5t-96 -17.5q-91 0 -174.5 23t-156 65.5t-131.5 102t-101.5 132.5t-65.5 157.5t-23 176.5
q0 139 51 258.5t139 208t207 139t255 50.5q62 0 114 -18.5t94.5 -48.5t77 -68t61.5 -77l39 121q10 25 16.5 40.5t14 23t18.5 10t31 2.5h149q11 0 26 -3t26 -14q14 -11 20 -25t6 -32v-1127zM464 634q0 -66 20.5 -123.5t58.5 -99.5t91.5 -66.5t118.5 -24.5q67 0 124.5 24.5
t100 66.5t66.5 99.5t24 123.5q0 64 -24 122t-66.5 102t-100 69.5t-124.5 25.5q-65 0 -118.5 -25.5t-91.5 -69.5t-58.5 -102t-20.5 -122zM981 1464q2 -9 5 -22t3 -24t-5.5 -19t-20.5 -8h-219q-19 0 -30.5 10t-23.5 32l-98 215q-5 11 -7 22.5t0.5 20.5t10 15t22.5 6h258
q17 0 32.5 -9.5t20.5 -32.5z" />
    <glyph glyph-name="amacron" unicode="&#x101;" horiz-adv-x="1569" 
d="M1449 74q0 -17 -6 -32.5t-20 -24.5q-11 -11 -26 -14t-26 -3h-197q-21 0 -34 5.5t-21 15.5t-13.5 24.5t-11.5 31.5l-29 75q-27 -27 -59 -57.5t-70.5 -56.5t-83.5 -43.5t-96 -17.5q-91 0 -174.5 23t-156 65.5t-131.5 102t-101.5 132.5t-65.5 157.5t-23 176.5
q0 139 51 258.5t139 208t207 139t255 50.5q62 0 114 -18.5t94.5 -48.5t77 -68t61.5 -77l39 121q10 25 16.5 40.5t14 23t18.5 10t31 2.5h149q11 0 26 -3t26 -14q14 -11 20 -25t6 -32v-1127zM464 634q0 -66 20.5 -123.5t58.5 -99.5t91.5 -66.5t118.5 -24.5q67 0 124.5 24.5
t100 66.5t66.5 99.5t24 123.5q0 64 -24 122t-66.5 102t-100 69.5t-124.5 25.5q-65 0 -118.5 -25.5t-91.5 -69.5t-58.5 -102t-20.5 -122zM357 1664q0 35 35 35h779q15 0 25 -8.5t10 -26.5v-154q0 -12 -9 -26t-26 -14h-779q-35 0 -35 40v154z" />
    <glyph glyph-name="aogonek" unicode="&#x105;" horiz-adv-x="1569" 
d="M1449 74q0 -17 -6 -32.5t-20 -24.5q-11 -11 -26 -14t-26 -3h-197q-21 0 -34 5.5t-21 15.5t-13.5 24.5t-11.5 31.5l-29 75q-27 -27 -59 -57.5t-70.5 -56.5t-83.5 -43.5t-96 -17.5q-91 0 -174.5 23t-156 65.5t-131.5 102t-101.5 132.5t-65.5 157.5t-23 176.5
q0 139 51 258.5t139 208t207 139t255 50.5q62 0 114 -18.5t94.5 -48.5t77 -68t61.5 -77l39 121q10 25 16.5 40.5t14 23t18.5 10t31 2.5h149q11 0 26 -3t26 -14q14 -11 20 -25t6 -32v-1127zM464 634q0 -66 20.5 -123.5t58.5 -99.5t91.5 -66.5t118.5 -24.5q67 0 124.5 24.5
t100 66.5t66.5 99.5t24 123.5q0 64 -24 122t-66.5 102t-100 69.5t-124.5 25.5q-65 0 -118.5 -25.5t-91.5 -69.5t-58.5 -102t-20.5 -122zM1399 18q14 -14 17 -25.5t3 -22.5q0 -29 -15 -51t-37.5 -40t-48.5 -33.5t-48.5 -31t-37.5 -32.5t-15 -39q0 -63 171 -106q11 -6 11 -22
q0 -9 -11 -35.5t-27 -54.5t-34 -50t-33 -22h-5q-76 23 -138.5 57.5t-107 74.5t-69 81t-24.5 77q0 37 15.5 64.5t38.5 49t49.5 38t49.5 31t38.5 28t15.5 29.5q0 20 -22 35h264z" />
    <glyph glyph-name="aring" unicode="&#xe5;" horiz-adv-x="1569" 
d="M1449 74q0 -17 -6 -32.5t-20 -24.5q-11 -11 -26 -14t-26 -3h-197q-21 0 -34 5.5t-21 15.5t-13.5 24.5t-11.5 31.5l-29 75q-27 -27 -59 -57.5t-70.5 -56.5t-83.5 -43.5t-96 -17.5q-91 0 -174.5 23t-156 65.5t-131.5 102t-101.5 132.5t-65.5 157.5t-23 176.5
q0 139 51 258.5t139 208t207 139t255 50.5q62 0 114 -18.5t94.5 -48.5t77 -68t61.5 -77l39 121q10 25 16.5 40.5t14 23t18.5 10t31 2.5h149q11 0 26 -3t26 -14q14 -11 20 -25t6 -32v-1127zM464 634q0 -66 20.5 -123.5t58.5 -99.5t91.5 -66.5t118.5 -24.5q67 0 124.5 24.5
t100 66.5t66.5 99.5t24 123.5q0 64 -24 122t-66.5 102t-100 69.5t-124.5 25.5q-65 0 -118.5 -25.5t-91.5 -69.5t-58.5 -102t-20.5 -122zM753 1809q43 0 81.5 -16.5t67.5 -45.5t45.5 -67.5t16.5 -81.5q0 -44 -16.5 -82t-45.5 -66.5t-67.5 -44.5t-81.5 -16q-44 0 -82 16
t-66.5 44.5t-44.5 66.5t-16 82q0 43 16 81.5t44.5 67.5t66.5 45.5t82 16.5zM754 1659q-26 0 -42 -17t-16 -43t16 -42t42 -16t43 16t17 42t-17 43t-43 17z" />
    <glyph glyph-name="atilde" unicode="&#xe3;" horiz-adv-x="1569" 
d="M1449 74q0 -17 -6 -32.5t-20 -24.5q-11 -11 -26 -14t-26 -3h-197q-21 0 -34 5.5t-21 15.5t-13.5 24.5t-11.5 31.5l-29 75q-27 -27 -59 -57.5t-70.5 -56.5t-83.5 -43.5t-96 -17.5q-91 0 -174.5 23t-156 65.5t-131.5 102t-101.5 132.5t-65.5 157.5t-23 176.5
q0 139 51 258.5t139 208t207 139t255 50.5q62 0 114 -18.5t94.5 -48.5t77 -68t61.5 -77l39 121q10 25 16.5 40.5t14 23t18.5 10t31 2.5h149q11 0 26 -3t26 -14q14 -11 20 -25t6 -32v-1127zM464 634q0 -66 20.5 -123.5t58.5 -99.5t91.5 -66.5t118.5 -24.5q67 0 124.5 24.5
t100 66.5t66.5 99.5t24 123.5q0 64 -24 122t-66.5 102t-100 69.5t-124.5 25.5q-65 0 -118.5 -25.5t-91.5 -69.5t-58.5 -102t-20.5 -122zM441 1618q19 27 45 49t56 37.5t62 23.5t64 8q18 0 39 -4t46 -14t56 -26.5t69 -41.5q11 -7 21.5 -11t23.5 -4q21 0 35 8.5t26 21.5l33 40
q9 13 19.5 13.5t19.5 -8.5l103 -90q11 -11 14.5 -19t-6.5 -21l-30 -39q-40 -55 -99 -86t-125 -31q-39 0 -79 13.5t-77 36.5l-55 35q-11 7 -21 11t-24 4q-20 0 -34.5 -8t-25.5 -21l-31 -40q-6 -10 -21 -11.5t-24 7.5l-103 87q-5 5 -8.5 9.5t-3.5 13.5q0 1 0.5 4t4 9
t10.5 16.5t20 27.5z" />
    <glyph glyph-name="cacute" unicode="&#x107;" horiz-adv-x="1256" 
d="M954 391q14 10 26.5 12.5t19.5 2.5q17 0 31 -7t29 -30l112 -169q5 -8 9.5 -18t4.5 -16q0 -23 -14.5 -37.5t-31.5 -25.5q-82 -57 -179.5 -91.5t-206.5 -34.5q-90 0 -173.5 23t-155.5 65.5t-132 102t-102 132.5t-65.5 157.5t-23.5 176.5t23.5 177t65.5 157.5t102 132
t132 101.5t155.5 65t173.5 23q109 0 201.5 -29t173.5 -86l-3 3q22 -13 35 -30.5t13 -43.5q0 -18 -12 -37l-89 -151q-28 -49 -68 -49q-9 0 -22 4.5t-29 15.5q-44 29 -94.5 47.5t-107.5 18.5q-63 0 -116 -25.5t-90.5 -69.5t-58.5 -102t-21 -122q0 -66 21 -123.5t58.5 -99.5
t90.5 -66.5t116 -24.5q57 0 107 20t95 51zM712 1670q5 23 20.5 32.5t32.5 9.5h258q15 0 22.5 -6t10 -15t0.5 -20.5t-7 -22.5l-98 -215q-12 -22 -23.5 -32t-30.5 -10h-219q-15 0 -20.5 8t-5.5 19t3 24t5 22z" />
    <glyph glyph-name="ccaron" unicode="&#x10d;" horiz-adv-x="1256" 
d="M954 391q14 10 26.5 12.5t19.5 2.5q17 0 31 -7t29 -30l112 -169q5 -8 9.5 -18t4.5 -16q0 -23 -14.5 -37.5t-31.5 -25.5q-82 -57 -179.5 -91.5t-206.5 -34.5q-90 0 -173.5 23t-155.5 65.5t-132 102t-102 132.5t-65.5 157.5t-23.5 176.5t23.5 177t65.5 157.5t102 132
t132 101.5t155.5 65t173.5 23q109 0 201.5 -29t173.5 -86l-3 3q22 -13 35 -30.5t13 -43.5q0 -18 -12 -37l-89 -151q-28 -49 -68 -49q-9 0 -22 4.5t-29 15.5q-44 29 -94.5 47.5t-107.5 18.5q-63 0 -116 -25.5t-90.5 -69.5t-58.5 -102t-21 -122q0 -66 21 -123.5t58.5 -99.5
t90.5 -66.5t116 -24.5q57 0 107 20t95 51zM790 1406q-7 -5 -11 -7t-11 -2q-8 0 -20 9l-257 256q-8 6 -8 23q0 8 9 19l88 90q11 11 27 11q13 0 22 -9l139 -142l142 143q11 11 23.5 8t20.5 -11l90 -87q5 -5 6.5 -10.5t2.5 -11.5q0 -8 -2.5 -13t-6.5 -9z" />
    <glyph glyph-name="ccedilla" unicode="&#xe7;" horiz-adv-x="1256" 
d="M954 391q14 10 26.5 12.5t19.5 2.5q17 0 31 -7t29 -30l112 -169q5 -8 9.5 -18t4.5 -16q0 -23 -14.5 -37.5t-31.5 -25.5q-82 -57 -179.5 -91.5t-206.5 -34.5q-90 0 -173.5 23t-155.5 65.5t-132 102t-102 132.5t-65.5 157.5t-23.5 176.5t23.5 177t65.5 157.5t102 132
t132 101.5t155.5 65t173.5 23q109 0 201.5 -29t173.5 -86l-3 3q22 -13 35 -30.5t13 -43.5q0 -18 -12 -37l-89 -151q-28 -49 -68 -49q-9 0 -22 4.5t-29 15.5q-44 29 -94.5 47.5t-107.5 18.5q-63 0 -116 -25.5t-90.5 -69.5t-58.5 -102t-21 -122q0 -66 21 -123.5t58.5 -99.5
t90.5 -66.5t116 -24.5q57 0 107 20t95 51zM907 0q-22 -15 -22 -35q0 -16 15.5 -29.5t38 -28t49.5 -31t49.5 -38t38 -49t15.5 -64.5q0 -36 -24.5 -77t-69 -81t-106.5 -74.5t-138 -57.5h-5q-15 0 -33 22t-34 50t-27 54.5t-11 35.5q0 16 11 22q171 43 171 106q0 22 -15 39
t-37.5 32.5t-48.5 31t-48.5 33.5t-37.5 40t-15 51q0 11 3 22.5t17 25.5h264z" />
    <glyph glyph-name="ccircumflex" unicode="&#x109;" horiz-adv-x="1256" 
d="M954 391q14 10 26.5 12.5t19.5 2.5q17 0 31 -7t29 -30l112 -169q5 -8 9.5 -18t4.5 -16q0 -23 -14.5 -37.5t-31.5 -25.5q-82 -57 -179.5 -91.5t-206.5 -34.5q-90 0 -173.5 23t-155.5 65.5t-132 102t-102 132.5t-65.5 157.5t-23.5 176.5t23.5 177t65.5 157.5t102 132
t132 101.5t155.5 65t173.5 23q109 0 201.5 -29t173.5 -86l-3 3q22 -13 35 -30.5t13 -43.5q0 -18 -12 -37l-89 -151q-28 -49 -68 -49q-9 0 -22 4.5t-29 15.5q-44 29 -94.5 47.5t-107.5 18.5q-63 0 -116 -25.5t-90.5 -69.5t-58.5 -102t-21 -122q0 -66 21 -123.5t58.5 -99.5
t90.5 -66.5t116 -24.5q57 0 107 20t95 51zM745 1801q7 5 11 7t11 2q8 0 20 -9l257 -256q8 -6 8 -23q0 -9 -9 -19l-88 -90q-11 -11 -27 -11q-13 0 -22 9l-139 142l-142 -143q-11 -11 -23.5 -8t-20.5 11l-90 87q-5 5 -6.5 10.5t-2.5 11.5q0 8 2.5 13t6.5 9z" />
    <glyph glyph-name="cdotaccent" unicode="&#x10b;" horiz-adv-x="1256" 
d="M954 391q14 10 26.5 12.5t19.5 2.5q17 0 31 -7t29 -30l112 -169q5 -8 9.5 -18t4.5 -16q0 -23 -14.5 -37.5t-31.5 -25.5q-82 -57 -179.5 -91.5t-206.5 -34.5q-90 0 -173.5 23t-155.5 65.5t-132 102t-102 132.5t-65.5 157.5t-23.5 176.5t23.5 177t65.5 157.5t102 132
t132 101.5t155.5 65t173.5 23q109 0 201.5 -29t173.5 -86l-3 3q22 -13 35 -30.5t13 -43.5q0 -18 -12 -37l-89 -151q-28 -49 -68 -49q-9 0 -22 4.5t-29 15.5q-44 29 -94.5 47.5t-107.5 18.5q-63 0 -116 -25.5t-90.5 -69.5t-58.5 -102t-21 -122q0 -66 21 -123.5t58.5 -99.5
t90.5 -66.5t116 -24.5q57 0 107 20t95 51zM615 1670q0 42 42 42h196q14 0 27.5 -11t13.5 -31v-189q0 -18 -11.5 -33.5t-29.5 -15.5h-196q-42 0 -42 49v189z" />
    <glyph glyph-name="dcaron" unicode="&#x10f;" horiz-adv-x="1828" 
d="M1039 155q-27 -27 -59.5 -58t-71.5 -58t-84 -44.5t-97 -17.5q-136 0 -250.5 51t-197 139.5t-129 208.5t-46.5 258q0 139 46.5 258.5t129 208t197 139t250.5 50.5q55 0 100.5 -16t83 -41t69 -56.5t59.5 -61.5v457q0 32 19.5 54t58.5 22h225q13 0 27.5 -5.5t26.5 -15.5
t19.5 -24t7.5 -31v-1495q0 -77 -81 -77h-196q-20 0 -31 5t-18.5 14.5t-13.5 24t-15 33.5zM464 634q0 -66 20.5 -123.5t58.5 -99.5t91.5 -66.5t118.5 -24.5q64 0 120.5 23t98.5 63.5t67.5 95.5t28.5 118v14q0 64 -24 122t-66.5 102t-100 69.5t-124.5 25.5q-65 0 -118.5 -25.5
t-91.5 -69.5t-58.5 -102t-20.5 -122zM1513 1669q0 20 11 32t33 12h242q17 0 31.5 -12t14.5 -32v-216q0 -43 -3 -85q-6 -78 -49 -143.5t-121 -110.5q-1 -1 -7.5 -3t-14 -4t-14.5 -3.5t-9 -1.5q-8 0 -13 4t-11 10l-38 29q-17 12 -20 20.5t-3 16.5q0 11 13.5 25t30 33t30 43
t13.5 55v44q0 18 -18 21h-57q-20 0 -30.5 12t-10.5 32v222z" />
    <glyph glyph-name="dcroat" unicode="&#x111;" horiz-adv-x="1569" 
d="M1039 155q-27 -27 -59.5 -58t-71.5 -58t-84 -44.5t-97 -17.5q-136 0 -250.5 51t-197 139.5t-129 208.5t-46.5 258q0 139 46.5 258.5t129 208t197 139t250.5 50.5q55 0 100.5 -16t83 -41t69 -56.5t59.5 -61.5v457q0 32 19.5 54t58.5 22h225q13 0 27.5 -5.5t26.5 -15.5
t19.5 -24t7.5 -31v-1495q0 -77 -81 -77h-196q-20 0 -31 5t-18.5 14.5t-13.5 24t-15 33.5zM464 634q0 -66 20.5 -123.5t58.5 -99.5t91.5 -66.5t118.5 -24.5q64 0 120.5 23t98.5 63.5t67.5 95.5t28.5 118v14q0 64 -24 122t-66.5 102t-100 69.5t-124.5 25.5q-65 0 -118.5 -25.5
t-91.5 -69.5t-58.5 -102t-20.5 -122zM905.593 1530.64q0 38.9297 36.5146 38.9297h565.989q14.9375 0 25.7266 -10.1748q10.7881 -10.1748 10.7881 -28.7549v-179.607q0 -13.2715 -9.95801 -27.8701q-9.95898 -14.5986 -26.5566 -14.5986h-565.989
q-36.5146 0 -36.5146 42.4688v179.607z" />
    </font>
</defs>
</svg>
